<?xml version="1.0" encoding="UTF-8" standalone="no"?>
<!DOCTYPE svg PUBLIC "-//W3C//DTD SVG 1.1//EN"
 "http://www.w3.org/Graphics/SVG/1.1/DTD/svg11.dtd">
<!-- Generated by graphviz version 2.26.3 (20100126.1600)
 -->
<!-- Title: g Pages: 1 -->
<svg width="104pt" height="298pt"
 viewBox="0.00 0.00 104.00 298.00" xmlns="http://www.w3.org/2000/svg" xmlns:xlink="http://www.w3.org/1999/xlink">
<g id="graph1" class="graph" transform="scale(1 1) rotate(0) translate(4 294)">
<title>g</title>
<polygon fill="white" stroke="white" points="-4,5 -4,-294 101,-294 101,5 -4,5"/>
<!-- N0 -->
<g id="node1" class="node"><title>N0</title>
<polygon fill="#ffffff" stroke="#ffffff" stroke-width="1.5" points="11.5,-1 84.5,-1 96.5,-13 96.5,-25 84.5,-37 11.5,-37 -0.5,-25 -0.5,-13 11.5,-1"/>
<path fill="#ffffff" stroke="#ffffff" stroke-width="1.5" d="M84.5,-1C90.5,-1 96.5,-7 96.5,-13"/>
<path fill="#ffffff" stroke="#ffffff" stroke-width="1.5" d="M96.5,-25C96.5,-31 90.5,-37 84.5,-37"/>
<path fill="#ffffff" stroke="#ffffff" stroke-width="1.5" d="M11.5,-37C5.5,-37 -0.5,-31 -0.5,-25"/>
<path fill="#ffffff" stroke="#ffffff" stroke-width="1.5" d="M-0.5,-13C-0.5,-7 5.5,-1 11.5,-1"/>
<polyline fill="none" stroke="#2e3436" stroke-width="1.5" points="11.5,-1 84.5,-1 "/>
<path fill="none" stroke="#2e3436" stroke-width="1.5" d="M84.5,-1C90.5,-1 96.5,-7 96.5,-13"/>
<polyline fill="none" stroke="#2e3436" stroke-width="1.5" points="96.5,-13 96.5,-25 "/>
<path fill="none" stroke="#2e3436" stroke-width="1.5" d="M96.5,-25C96.5,-31 90.5,-37 84.5,-37"/>
<polyline fill="none" stroke="#2e3436" stroke-width="1.5" points="84.5,-37 11.5,-37 "/>
<path fill="none" stroke="#2e3436" stroke-width="1.5" d="M11.5,-37C5.5,-37 -0.5,-31 -0.5,-25"/>
<polyline fill="none" stroke="#2e3436" stroke-width="1.5" points="-0.5,-25 -0.5,-13 "/>
<path fill="none" stroke="#2e3436" stroke-width="1.5" d="M-0.5,-13C-0.5,-7 5.5,-1 11.5,-1"/>
<text text-anchor="start" x="7.5" y="-16.8" font-family="FreeSans" font-size="8.00" fill="#1c2021">Node[0]name = &#39;D&#39;</text>
</g>
<!-- N1 -->
<g id="node2" class="node"><title>N1</title>
<polygon fill="#ffffff" stroke="#ffffff" stroke-width="1.5" points="12,-253 84,-253 96,-265 96,-277 84,-289 12,-289 0,-277 0,-265 12,-253"/>
<path fill="#ffffff" stroke="#ffffff" stroke-width="1.5" d="M84,-253C90,-253 96,-259 96,-265"/>
<path fill="#ffffff" stroke="#ffffff" stroke-width="1.5" d="M96,-277C96,-283 90,-289 84,-289"/>
<path fill="#ffffff" stroke="#ffffff" stroke-width="1.5" d="M12,-289C6,-289 0,-283 0,-277"/>
<path fill="#ffffff" stroke="#ffffff" stroke-width="1.5" d="M0,-265C0,-259 6,-253 12,-253"/>
<polyline fill="none" stroke="#2e3436" stroke-width="1.5" points="12,-253 84,-253 "/>
<path fill="none" stroke="#2e3436" stroke-width="1.5" d="M84,-253C90,-253 96,-259 96,-265"/>
<polyline fill="none" stroke="#2e3436" stroke-width="1.5" points="96,-265 96,-277 "/>
<path fill="none" stroke="#2e3436" stroke-width="1.5" d="M96,-277C96,-283 90,-289 84,-289"/>
<polyline fill="none" stroke="#2e3436" stroke-width="1.5" points="84,-289 12,-289 "/>
<path fill="none" stroke="#2e3436" stroke-width="1.5" d="M12,-289C6,-289 0,-283 0,-277"/>
<polyline fill="none" stroke="#2e3436" stroke-width="1.5" points="0,-277 0,-265 "/>
<path fill="none" stroke="#2e3436" stroke-width="1.5" d="M0,-265C0,-259 6,-253 12,-253"/>
<text text-anchor="start" x="8" y="-268.8" font-family="FreeSans" font-size="8.00" fill="#1c2021">Node[1]name = &#39;A&#39;</text>
</g>
<!-- N2 -->
<g id="node4" class="node"><title>N2</title>
<polygon fill="#ffffff" stroke="#ffffff" stroke-width="1.5" points="11.5,-169 84.5,-169 96.5,-181 96.5,-193 84.5,-205 11.5,-205 -0.5,-193 -0.5,-181 11.5,-169"/>
<path fill="#ffffff" stroke="#ffffff" stroke-width="1.5" d="M84.5,-169C90.5,-169 96.5,-175 96.5,-181"/>
<path fill="#ffffff" stroke="#ffffff" stroke-width="1.5" d="M96.5,-193C96.5,-199 90.5,-205 84.5,-205"/>
<path fill="#ffffff" stroke="#ffffff" stroke-width="1.5" d="M11.5,-205C5.5,-205 -0.5,-199 -0.5,-193"/>
<path fill="#ffffff" stroke="#ffffff" stroke-width="1.5" d="M-0.5,-181C-0.5,-175 5.5,-169 11.5,-169"/>
<polyline fill="none" stroke="#2e3436" stroke-width="1.5" points="11.5,-169 84.5,-169 "/>
<path fill="none" stroke="#2e3436" stroke-width="1.5" d="M84.5,-169C90.5,-169 96.5,-175 96.5,-181"/>
<polyline fill="none" stroke="#2e3436" stroke-width="1.5" points="96.5,-181 96.5,-193 "/>
<path fill="none" stroke="#2e3436" stroke-width="1.5" d="M96.5,-193C96.5,-199 90.5,-205 84.5,-205"/>
<polyline fill="none" stroke="#2e3436" stroke-width="1.5" points="84.5,-205 11.5,-205 "/>
<path fill="none" stroke="#2e3436" stroke-width="1.5" d="M11.5,-205C5.5,-205 -0.5,-199 -0.5,-193"/>
<polyline fill="none" stroke="#2e3436" stroke-width="1.5" points="-0.5,-193 -0.5,-181 "/>
<path fill="none" stroke="#2e3436" stroke-width="1.5" d="M-0.5,-181C-0.5,-175 5.5,-169 11.5,-169"/>
<text text-anchor="start" x="7.5" y="-184.8" font-family="FreeSans" font-size="8.00" fill="#1c2021">Node[2]name = &#39;B&#39;</text>
</g>
<!-- N1&#45;&gt;N2 -->
<g id="edge2" class="edge"><title>N1&#45;&gt;N2</title>
<path fill="none" stroke="#2e3436" stroke-width="2" d="M48,-252.773C48,-241.105 48,-225.787 48,-212.87"/>
<polygon fill="#2e3436" stroke="#2e3436" points="48,-205.191 51.3751,-212.691 48.5,-208.941 48.5001,-212.691 48.0001,-212.691 47.5001,-212.691 47.5,-208.941 44.6251,-212.691 48,-205.191 48,-205.191"/>
<text text-anchor="middle" x="63.5" y="-226.8" font-family="FreeSans" font-size="8.00" fill="#2e3436">KNOWS</text>
</g>
<!-- N3 -->
<g id="node6" class="node"><title>N3</title>
<polygon fill="#ffffff" stroke="#ffffff" stroke-width="1.5" points="11.5,-85 84.5,-85 96.5,-97 96.5,-109 84.5,-121 11.5,-121 -0.5,-109 -0.5,-97 11.5,-85"/>
<path fill="#ffffff" stroke="#ffffff" stroke-width="1.5" d="M84.5,-85C90.5,-85 96.5,-91 96.5,-97"/>
<path fill="#ffffff" stroke="#ffffff" stroke-width="1.5" d="M96.5,-109C96.5,-115 90.5,-121 84.5,-121"/>
<path fill="#ffffff" stroke="#ffffff" stroke-width="1.5" d="M11.5,-121C5.5,-121 -0.5,-115 -0.5,-109"/>
<path fill="#ffffff" stroke="#ffffff" stroke-width="1.5" d="M-0.5,-97C-0.5,-91 5.5,-85 11.5,-85"/>
<polyline fill="none" stroke="#2e3436" stroke-width="1.5" points="11.5,-85 84.5,-85 "/>
<path fill="none" stroke="#2e3436" stroke-width="1.5" d="M84.5,-85C90.5,-85 96.5,-91 96.5,-97"/>
<polyline fill="none" stroke="#2e3436" stroke-width="1.5" points="96.5,-97 96.5,-109 "/>
<path fill="none" stroke="#2e3436" stroke-width="1.5" d="M96.5,-109C96.5,-115 90.5,-121 84.5,-121"/>
<polyline fill="none" stroke="#2e3436" stroke-width="1.5" points="84.5,-121 11.5,-121 "/>
<path fill="none" stroke="#2e3436" stroke-width="1.5" d="M11.5,-121C5.5,-121 -0.5,-115 -0.5,-109"/>
<polyline fill="none" stroke="#2e3436" stroke-width="1.5" points="-0.5,-109 -0.5,-97 "/>
<path fill="none" stroke="#2e3436" stroke-width="1.5" d="M-0.5,-97C-0.5,-91 5.5,-85 11.5,-85"/>
<text text-anchor="start" x="7.5" y="-100.8" font-family="FreeSans" font-size="8.00" fill="#1c2021">Node[3]name = &#39;C&#39;</text>
</g>
<!-- N2&#45;&gt;N3 -->
<g id="edge4" class="edge"><title>N2&#45;&gt;N3</title>
<path fill="none" stroke="#2e3436" stroke-width="2" d="M48,-168.773C48,-157.105 48,-141.787 48,-128.87"/>
<polygon fill="#2e3436" stroke="#2e3436" points="48,-121.191 51.3751,-128.691 48.5,-124.941 48.5001,-128.691 48.0001,-128.691 47.5001,-128.691 47.5,-124.941 44.6251,-128.691 48,-121.191 48,-121.191"/>
<text text-anchor="middle" x="63.5" y="-142.8" font-family="FreeSans" font-size="8.00" fill="#2e3436">KNOWS</text>
</g>
<!-- N3&#45;&gt;N0 -->
<g id="edge6" class="edge"><title>N3&#45;&gt;N0</title>
<path fill="none" stroke="#2e3436" stroke-width="2" d="M48,-84.7733C48,-73.1053 48,-57.7874 48,-44.8699"/>
<polygon fill="#2e3436" stroke="#2e3436" points="48,-37.1912 51.3751,-44.6911 48.5,-40.9412 48.5001,-44.6912 48.0001,-44.6912 47.5001,-44.6912 47.5,-40.9412 44.6251,-44.6912 48,-37.1912 48,-37.1912"/>
<text text-anchor="middle" x="63.5" y="-58.8" font-family="FreeSans" font-size="8.00" fill="#2e3436">KNOWS</text>
</g>
</g>
</svg>
