<?xml version="1.0" encoding="UTF-8" standalone="no"?>
<!DOCTYPE svg PUBLIC "-//W3C//DTD SVG 1.1//EN"
 "http://www.w3.org/Graphics/SVG/1.1/DTD/svg11.dtd">
<!-- Generated by graphviz version 2.26.3 (20100126.1600)
 -->
<!-- Title: g Pages: 1 -->
<svg width="504pt" height="93pt"
 viewBox="0.00 0.00 504.00 92.63" xmlns="http://www.w3.org/2000/svg" xmlns:xlink="http://www.w3.org/1999/xlink">
<g id="graph1" class="graph" transform="scale(0.617546 0.617546) rotate(0) translate(4 146)">
<title>g</title>
<polygon fill="white" stroke="white" points="-4,5 -4,-146 813.134,-146 813.134,5 -4,5"/>
<!-- N0 -->
<g id="node1" class="node"><title>N0</title>
<polygon fill="#ffffff" stroke="#ffffff" stroke-width="1.5" points="99.1339,-105 209.134,-105 221.134,-117 221.134,-129 209.134,-141 99.1339,-141 87.1339,-129 87.1339,-117 99.1339,-105"/>
<path fill="#ffffff" stroke="#ffffff" stroke-width="1.5" d="M209.134,-105C215.134,-105 221.134,-111 221.134,-117"/>
<path fill="#ffffff" stroke="#ffffff" stroke-width="1.5" d="M221.134,-129C221.134,-135 215.134,-141 209.134,-141"/>
<path fill="#ffffff" stroke="#ffffff" stroke-width="1.5" d="M99.1339,-141C93.1339,-141 87.1339,-135 87.1339,-129"/>
<path fill="#ffffff" stroke="#ffffff" stroke-width="1.5" d="M87.1339,-117C87.1339,-111 93.1339,-105 99.1339,-105"/>
<polyline fill="none" stroke="#2e3436" stroke-width="1.5" points="99.1339,-105 209.134,-105 "/>
<path fill="none" stroke="#2e3436" stroke-width="1.5" d="M209.134,-105C215.134,-105 221.134,-111 221.134,-117"/>
<polyline fill="none" stroke="#2e3436" stroke-width="1.5" points="221.134,-117 221.134,-129 "/>
<path fill="none" stroke="#2e3436" stroke-width="1.5" d="M221.134,-129C221.134,-135 215.134,-141 209.134,-141"/>
<polyline fill="none" stroke="#2e3436" stroke-width="1.5" points="209.134,-141 99.1339,-141 "/>
<path fill="none" stroke="#2e3436" stroke-width="1.5" d="M99.1339,-141C93.1339,-141 87.1339,-135 87.1339,-129"/>
<polyline fill="none" stroke="#2e3436" stroke-width="1.5" points="87.1339,-129 87.1339,-117 "/>
<path fill="none" stroke="#2e3436" stroke-width="1.5" d="M87.1339,-117C87.1339,-111 93.1339,-105 99.1339,-105"/>
<text text-anchor="middle" x="154.134" y="-129.8" font-family="FreeSans" font-size="8.00" fill="#1c2021">Actor</text>
<polyline fill="none" stroke="#2e3436" stroke-width="1.5" points="87.1339,-123 221.134,-123 "/>
<text text-anchor="start" x="95.1339" y="-111.8" font-family="FreeSans" font-size="8.00" fill="#1c2021">name = &#39;Carrie&#45;Anne Moss&#39;</text>
</g>
<!-- N5 -->
<g id="node3" class="node"><title>N5</title>
<polygon fill="#ffffff" stroke="#ffffff" stroke-width="1.5" points="239.634,-1 316.634,-1 328.634,-13 328.634,-35 316.634,-47 239.634,-47 227.634,-35 227.634,-13 239.634,-1"/>
<path fill="#ffffff" stroke="#ffffff" stroke-width="1.5" d="M316.634,-1C322.634,-1 328.634,-7 328.634,-13"/>
<path fill="#ffffff" stroke="#ffffff" stroke-width="1.5" d="M328.634,-35C328.634,-41 322.634,-47 316.634,-47"/>
<path fill="#ffffff" stroke="#ffffff" stroke-width="1.5" d="M239.634,-47C233.634,-47 227.634,-41 227.634,-35"/>
<path fill="#ffffff" stroke="#ffffff" stroke-width="1.5" d="M227.634,-13C227.634,-7 233.634,-1 239.634,-1"/>
<polyline fill="none" stroke="#2e3436" stroke-width="1.5" points="239.634,-1 316.634,-1 "/>
<path fill="none" stroke="#2e3436" stroke-width="1.5" d="M316.634,-1C322.634,-1 328.634,-7 328.634,-13"/>
<polyline fill="none" stroke="#2e3436" stroke-width="1.5" points="328.634,-13 328.634,-35 "/>
<path fill="none" stroke="#2e3436" stroke-width="1.5" d="M328.634,-35C328.634,-41 322.634,-47 316.634,-47"/>
<polyline fill="none" stroke="#2e3436" stroke-width="1.5" points="316.634,-47 239.634,-47 "/>
<path fill="none" stroke="#2e3436" stroke-width="1.5" d="M239.634,-47C233.634,-47 227.634,-41 227.634,-35"/>
<polyline fill="none" stroke="#2e3436" stroke-width="1.5" points="227.634,-35 227.634,-13 "/>
<path fill="none" stroke="#2e3436" stroke-width="1.5" d="M227.634,-13C227.634,-7 233.634,-1 239.634,-1"/>
<text text-anchor="middle" x="278.134" y="-35.8" font-family="FreeSans" font-size="8.00" fill="#1c2021">Movie</text>
<polyline fill="none" stroke="#2e3436" stroke-width="1.5" points="227.634,-29 328.634,-29 "/>
<text text-anchor="start" x="235.634" y="-17.8" font-family="FreeSans" font-size="8.00" fill="#1c2021">title = &#39;The Matrix&#39;</text>
<text text-anchor="start" x="235.634" y="-7.8" font-family="FreeSans" font-size="8.00" fill="#1c2021">year = &#39;1999&#45;03&#45;31&#39;</text>
</g>
<!-- N0&#45;&gt;N5 -->
<g id="edge2" class="edge"><title>N0&#45;&gt;N5</title>
<path fill="none" stroke="#2e3436" stroke-width="2" d="M168.144,-104.978C177.972,-93.0476 191.86,-77.5342 206.134,-66 212.597,-60.7771 219.783,-55.7842 227.043,-51.1808"/>
<polygon fill="#2e3436" stroke="#2e3436" points="233.712,-47.0672 229.101,-53.8771 230.783,-49.4615 227.591,-51.4301 227.329,-51.0046 227.066,-50.579 230.258,-48.6103 225.557,-48.132 233.712,-47.0672 233.712,-47.0672"/>
<text text-anchor="middle" x="235.634" y="-78.8" font-family="FreeSans" font-size="8.00" fill="#2e3436">ACTS_IN</text>
<text text-anchor="start" x="206.134" y="-68.8" font-family="FreeSans" font-size="8.00" fill="#2e3436">role = &#39;Trinity&#39;</text>
</g>
<!-- N4 -->
<g id="node5" class="node"><title>N4</title>
<polygon fill="#ffffff" stroke="#ffffff" stroke-width="1.5" points="44.1339,-1 156.134,-1 168.134,-13 168.134,-35 156.134,-47 44.1339,-47 32.1339,-35 32.1339,-13 44.1339,-1"/>
<path fill="#ffffff" stroke="#ffffff" stroke-width="1.5" d="M156.134,-1C162.134,-1 168.134,-7 168.134,-13"/>
<path fill="#ffffff" stroke="#ffffff" stroke-width="1.5" d="M168.134,-35C168.134,-41 162.134,-47 156.134,-47"/>
<path fill="#ffffff" stroke="#ffffff" stroke-width="1.5" d="M44.1339,-47C38.1339,-47 32.1339,-41 32.1339,-35"/>
<path fill="#ffffff" stroke="#ffffff" stroke-width="1.5" d="M32.1339,-13C32.1339,-7 38.1339,-1 44.1339,-1"/>
<polyline fill="none" stroke="#2e3436" stroke-width="1.5" points="44.1339,-1 156.134,-1 "/>
<path fill="none" stroke="#2e3436" stroke-width="1.5" d="M156.134,-1C162.134,-1 168.134,-7 168.134,-13"/>
<polyline fill="none" stroke="#2e3436" stroke-width="1.5" points="168.134,-13 168.134,-35 "/>
<path fill="none" stroke="#2e3436" stroke-width="1.5" d="M168.134,-35C168.134,-41 162.134,-47 156.134,-47"/>
<polyline fill="none" stroke="#2e3436" stroke-width="1.5" points="156.134,-47 44.1339,-47 "/>
<path fill="none" stroke="#2e3436" stroke-width="1.5" d="M44.1339,-47C38.1339,-47 32.1339,-41 32.1339,-35"/>
<polyline fill="none" stroke="#2e3436" stroke-width="1.5" points="32.1339,-35 32.1339,-13 "/>
<path fill="none" stroke="#2e3436" stroke-width="1.5" d="M32.1339,-13C32.1339,-7 38.1339,-1 44.1339,-1"/>
<text text-anchor="middle" x="100.134" y="-35.8" font-family="FreeSans" font-size="8.00" fill="#1c2021">Movie</text>
<polyline fill="none" stroke="#2e3436" stroke-width="1.5" points="32.1339,-29 168.134,-29 "/>
<text text-anchor="start" x="40.1339" y="-17.8" font-family="FreeSans" font-size="8.00" fill="#1c2021">title = &#39;The Matrix Reloaded&#39;</text>
<text text-anchor="start" x="40.1339" y="-7.8" font-family="FreeSans" font-size="8.00" fill="#1c2021">year = &#39;2003&#45;05&#45;07&#39;</text>
</g>
<!-- N0&#45;&gt;N4 -->
<g id="edge4" class="edge"><title>N0&#45;&gt;N4</title>
<path fill="none" stroke="#2e3436" stroke-width="2" d="M87.1094,-114.509C52.6018,-108.615 15.6014,-99.3847 5.13388,-86 -7.29259,-70.1104 5.43073,-57.0109 25.1688,-47.0124"/>
<polygon fill="#2e3436" stroke="#2e3436" points="32.1053,-43.741 26.7616,-49.9928 28.9269,-45.7929 25.5352,-47.3925 25.3219,-46.9403 25.1086,-46.4881 28.5003,-44.8884 23.8822,-43.8878 32.1053,-43.741 32.1053,-43.741"/>
<text text-anchor="middle" x="34.6339" y="-78.8" font-family="FreeSans" font-size="8.00" fill="#2e3436">ACTS_IN</text>
<text text-anchor="start" x="5.13388" y="-68.8" font-family="FreeSans" font-size="8.00" fill="#2e3436">role = &#39;Trinity&#39;</text>
</g>
<!-- N3 -->
<g id="node7" class="node"><title>N3</title>
<polygon fill="#ffffff" stroke="#ffffff" stroke-width="1.5" points="505.134,-1 627.134,-1 639.134,-13 639.134,-35 627.134,-47 505.134,-47 493.134,-35 493.134,-13 505.134,-1"/>
<path fill="#ffffff" stroke="#ffffff" stroke-width="1.5" d="M627.134,-1C633.134,-1 639.134,-7 639.134,-13"/>
<path fill="#ffffff" stroke="#ffffff" stroke-width="1.5" d="M639.134,-35C639.134,-41 633.134,-47 627.134,-47"/>
<path fill="#ffffff" stroke="#ffffff" stroke-width="1.5" d="M505.134,-47C499.134,-47 493.134,-41 493.134,-35"/>
<path fill="#ffffff" stroke="#ffffff" stroke-width="1.5" d="M493.134,-13C493.134,-7 499.134,-1 505.134,-1"/>
<polyline fill="none" stroke="#2e3436" stroke-width="1.5" points="505.134,-1 627.134,-1 "/>
<path fill="none" stroke="#2e3436" stroke-width="1.5" d="M627.134,-1C633.134,-1 639.134,-7 639.134,-13"/>
<polyline fill="none" stroke="#2e3436" stroke-width="1.5" points="639.134,-13 639.134,-35 "/>
<path fill="none" stroke="#2e3436" stroke-width="1.5" d="M639.134,-35C639.134,-41 633.134,-47 627.134,-47"/>
<polyline fill="none" stroke="#2e3436" stroke-width="1.5" points="627.134,-47 505.134,-47 "/>
<path fill="none" stroke="#2e3436" stroke-width="1.5" d="M505.134,-47C499.134,-47 493.134,-41 493.134,-35"/>
<polyline fill="none" stroke="#2e3436" stroke-width="1.5" points="493.134,-35 493.134,-13 "/>
<path fill="none" stroke="#2e3436" stroke-width="1.5" d="M493.134,-13C493.134,-7 499.134,-1 505.134,-1"/>
<text text-anchor="middle" x="566.134" y="-35.8" font-family="FreeSans" font-size="8.00" fill="#1c2021">Movie</text>
<polyline fill="none" stroke="#2e3436" stroke-width="1.5" points="493.134,-29 639.134,-29 "/>
<text text-anchor="start" x="501.134" y="-17.8" font-family="FreeSans" font-size="8.00" fill="#1c2021">title = &#39;The Matrix Revolutions&#39;</text>
<text text-anchor="start" x="501.134" y="-7.8" font-family="FreeSans" font-size="8.00" fill="#1c2021">year = &#39;2003&#45;10&#45;27&#39;</text>
</g>
<!-- N0&#45;&gt;N3 -->
<g id="edge6" class="edge"><title>N0&#45;&gt;N3</title>
<path fill="none" stroke="#2e3436" stroke-width="2" d="M221.171,-106.497C225.882,-105.578 230.57,-104.732 235.134,-104 325.442,-89.5196 354.618,-118.439 440.134,-86 454.097,-80.7035 454.17,-73.4123 467.134,-66 476.973,-60.3747 487.712,-55.0556 498.371,-50.2138"/>
<polygon fill="#2e3436" stroke="#2e3436" points="505.354,-47.1026 499.877,-53.2378 502.133,-49.0855 498.707,-50.6117 498.504,-50.155 498.3,-49.6982 501.726,-48.172 497.13,-47.0721 505.354,-47.1026 505.354,-47.1026"/>
<text text-anchor="middle" x="496.634" y="-78.8" font-family="FreeSans" font-size="8.00" fill="#2e3436">ACTS_IN</text>
<text text-anchor="start" x="467.134" y="-68.8" font-family="FreeSans" font-size="8.00" fill="#2e3436">role = &#39;Trinity&#39;</text>
</g>
<!-- N1 -->
<g id="node8" class="node"><title>N1</title>
<polygon fill="#ffffff" stroke="#ffffff" stroke-width="1.5" points="592.634,-105 709.634,-105 721.634,-117 721.634,-129 709.634,-141 592.634,-141 580.634,-129 580.634,-117 592.634,-105"/>
<path fill="#ffffff" stroke="#ffffff" stroke-width="1.5" d="M709.634,-105C715.634,-105 721.634,-111 721.634,-117"/>
<path fill="#ffffff" stroke="#ffffff" stroke-width="1.5" d="M721.634,-129C721.634,-135 715.634,-141 709.634,-141"/>
<path fill="#ffffff" stroke="#ffffff" stroke-width="1.5" d="M592.634,-141C586.634,-141 580.634,-135 580.634,-129"/>
<path fill="#ffffff" stroke="#ffffff" stroke-width="1.5" d="M580.634,-117C580.634,-111 586.634,-105 592.634,-105"/>
<polyline fill="none" stroke="#2e3436" stroke-width="1.5" points="592.634,-105 709.634,-105 "/>
<path fill="none" stroke="#2e3436" stroke-width="1.5" d="M709.634,-105C715.634,-105 721.634,-111 721.634,-117"/>
<polyline fill="none" stroke="#2e3436" stroke-width="1.5" points="721.634,-117 721.634,-129 "/>
<path fill="none" stroke="#2e3436" stroke-width="1.5" d="M721.634,-129C721.634,-135 715.634,-141 709.634,-141"/>
<polyline fill="none" stroke="#2e3436" stroke-width="1.5" points="709.634,-141 592.634,-141 "/>
<path fill="none" stroke="#2e3436" stroke-width="1.5" d="M592.634,-141C586.634,-141 580.634,-135 580.634,-129"/>
<polyline fill="none" stroke="#2e3436" stroke-width="1.5" points="580.634,-129 580.634,-117 "/>
<path fill="none" stroke="#2e3436" stroke-width="1.5" d="M580.634,-117C580.634,-111 586.634,-105 592.634,-105"/>
<text text-anchor="middle" x="651.134" y="-129.8" font-family="FreeSans" font-size="8.00" fill="#1c2021">Actor</text>
<polyline fill="none" stroke="#2e3436" stroke-width="1.5" points="580.634,-123 721.634,-123 "/>
<text text-anchor="start" x="588.634" y="-111.8" font-family="FreeSans" font-size="8.00" fill="#1c2021">name = &#39;Laurence Fishburne&#39;</text>
</g>
<!-- N1&#45;&gt;N5 -->
<g id="edge8" class="edge"><title>N1&#45;&gt;N5</title>
<path fill="none" stroke="#2e3436" stroke-width="2" d="M642.511,-104.958C635.25,-91.8708 623.575,-74.9551 608.134,-66 602.31,-62.6226 429.817,-41.8738 336.597,-30.8579"/>
<polygon fill="#2e3436" stroke="#2e3436" points="328.928,-29.9525 336.772,-27.4803 332.711,-29.8957 336.435,-30.3354 336.376,-30.832 336.318,-31.3285 332.593,-30.8888 335.98,-34.1837 328.928,-29.9525 328.928,-29.9525"/>
<text text-anchor="middle" x="667.134" y="-78.8" font-family="FreeSans" font-size="8.00" fill="#2e3436">ACTS_IN</text>
<text text-anchor="start" x="629.134" y="-68.8" font-family="FreeSans" font-size="8.00" fill="#2e3436">role = &#39;Morpheus&#39;</text>
</g>
<!-- N1&#45;&gt;N4 -->
<g id="edge10" class="edge"><title>N1&#45;&gt;N4</title>
<path fill="none" stroke="#2e3436" stroke-width="2" d="M580.358,-118.234C506.602,-112.535 396.407,-101.749 357.134,-86 343.273,-80.4418 343.917,-71.7479 330.134,-66 281.575,-45.7497 264.887,-57.469 213.134,-48 201.126,-45.8029 188.44,-43.2939 176.077,-40.7454"/>
<polygon fill="#2e3436" stroke="#2e3436" points="168.431,-39.156 176.461,-37.378 172.204,-39.4296 175.875,-40.1928 175.774,-40.6824 175.672,-41.1719 172,-40.4087 175.087,-43.9868 168.431,-39.156 168.431,-39.156"/>
<text text-anchor="middle" x="395.134" y="-78.8" font-family="FreeSans" font-size="8.00" fill="#2e3436">ACTS_IN</text>
<text text-anchor="start" x="357.134" y="-68.8" font-family="FreeSans" font-size="8.00" fill="#2e3436">role = &#39;Morpheus&#39;</text>
</g>
<!-- N1&#45;&gt;N3 -->
<g id="edge12" class="edge"><title>N1&#45;&gt;N3</title>
<path fill="none" stroke="#2e3436" stroke-width="2" d="M704.095,-104.948C724.46,-95.0705 740.246,-81.6533 728.134,-66 717.593,-52.3775 682.066,-42.3642 646.958,-35.539"/>
<polygon fill="#2e3436" stroke="#2e3436" points="639.482,-34.1308 647.477,-32.2025 643.26,-34.3336 646.945,-35.0278 646.852,-35.5192 646.76,-36.0105 643.075,-35.3164 646.228,-38.8359 639.482,-34.1308 639.482,-34.1308"/>
<text text-anchor="middle" x="770.134" y="-78.8" font-family="FreeSans" font-size="8.00" fill="#2e3436">ACTS_IN</text>
<text text-anchor="start" x="732.134" y="-68.8" font-family="FreeSans" font-size="8.00" fill="#2e3436">role = &#39;Morpheus&#39;</text>
</g>
<!-- N2 -->
<g id="node12" class="node"><title>N2</title>
<polygon fill="#ffffff" stroke="#ffffff" stroke-width="1.5" points="261.634,-105 354.634,-105 366.634,-117 366.634,-129 354.634,-141 261.634,-141 249.634,-129 249.634,-117 261.634,-105"/>
<path fill="#ffffff" stroke="#ffffff" stroke-width="1.5" d="M354.634,-105C360.634,-105 366.634,-111 366.634,-117"/>
<path fill="#ffffff" stroke="#ffffff" stroke-width="1.5" d="M366.634,-129C366.634,-135 360.634,-141 354.634,-141"/>
<path fill="#ffffff" stroke="#ffffff" stroke-width="1.5" d="M261.634,-141C255.634,-141 249.634,-135 249.634,-129"/>
<path fill="#ffffff" stroke="#ffffff" stroke-width="1.5" d="M249.634,-117C249.634,-111 255.634,-105 261.634,-105"/>
<polyline fill="none" stroke="#2e3436" stroke-width="1.5" points="261.634,-105 354.634,-105 "/>
<path fill="none" stroke="#2e3436" stroke-width="1.5" d="M354.634,-105C360.634,-105 366.634,-111 366.634,-117"/>
<polyline fill="none" stroke="#2e3436" stroke-width="1.5" points="366.634,-117 366.634,-129 "/>
<path fill="none" stroke="#2e3436" stroke-width="1.5" d="M366.634,-129C366.634,-135 360.634,-141 354.634,-141"/>
<polyline fill="none" stroke="#2e3436" stroke-width="1.5" points="354.634,-141 261.634,-141 "/>
<path fill="none" stroke="#2e3436" stroke-width="1.5" d="M261.634,-141C255.634,-141 249.634,-135 249.634,-129"/>
<polyline fill="none" stroke="#2e3436" stroke-width="1.5" points="249.634,-129 249.634,-117 "/>
<path fill="none" stroke="#2e3436" stroke-width="1.5" d="M249.634,-117C249.634,-111 255.634,-105 261.634,-105"/>
<text text-anchor="middle" x="308.134" y="-129.8" font-family="FreeSans" font-size="8.00" fill="#1c2021">Actor</text>
<polyline fill="none" stroke="#2e3436" stroke-width="1.5" points="249.634,-123 366.634,-123 "/>
<text text-anchor="start" x="257.634" y="-111.8" font-family="FreeSans" font-size="8.00" fill="#1c2021">name = &#39;Keanu Reeves&#39;</text>
</g>
<!-- N2&#45;&gt;N5 -->
<g id="edge14" class="edge"><title>N2&#45;&gt;N5</title>
<path fill="none" stroke="#2e3436" stroke-width="2" d="M287.914,-104.776C283.131,-99.2659 278.683,-92.8445 276.134,-86 272.48,-76.1885 271.889,-64.8875 272.563,-54.6433"/>
<polygon fill="#2e3436" stroke="#2e3436" points="273.294,-47.0577 275.934,-54.8471 273.432,-50.8384 273.072,-54.5711 272.574,-54.523 272.077,-54.475 272.437,-50.7424 269.215,-54.199 273.294,-47.0577 273.294,-47.0577"/>
<text text-anchor="middle" x="301.634" y="-78.8" font-family="FreeSans" font-size="8.00" fill="#2e3436">ACTS_IN</text>
<text text-anchor="start" x="276.134" y="-68.8" font-family="FreeSans" font-size="8.00" fill="#2e3436">role = &#39;Neo&#39;</text>
</g>
<!-- N2&#45;&gt;N4 -->
<g id="edge16" class="edge"><title>N2&#45;&gt;N4</title>
<path fill="none" stroke="#2e3436" stroke-width="2" d="M249.273,-107.206C244.501,-106.07 239.744,-104.986 235.134,-104 187.976,-93.9169 166.33,-115.438 128.134,-86 118.081,-78.2522 111.534,-66.0842 107.321,-54.5721"/>
<polygon fill="#2e3436" stroke="#2e3436" points="104.877,-47.1548 110.43,-53.2213 106.525,-50.5598 107.699,-54.1213 107.225,-54.2779 106.75,-54.4344 105.576,-50.8729 104.019,-55.3344 104.877,-47.1548 104.877,-47.1548"/>
<text text-anchor="middle" x="153.634" y="-78.8" font-family="FreeSans" font-size="8.00" fill="#2e3436">ACTS_IN</text>
<text text-anchor="start" x="128.134" y="-68.8" font-family="FreeSans" font-size="8.00" fill="#2e3436">role = &#39;Neo&#39;</text>
</g>
<!-- N2&#45;&gt;N3 -->
<g id="edge18" class="edge"><title>N2&#45;&gt;N3</title>
<path fill="none" stroke="#2e3436" stroke-width="2" d="M366.859,-119.214C424.412,-114.483 507.16,-104.634 533.134,-86 543.882,-78.2889 551.447,-65.9793 556.596,-54.3534"/>
<polygon fill="#2e3436" stroke="#2e3436" points="559.497,-47.2502 559.786,-55.4696 558.542,-50.9109 557.124,-54.3826 556.661,-54.1935 556.199,-54.0045 557.616,-50.5328 553.537,-52.9175 559.497,-47.2502 559.497,-47.2502"/>
<text text-anchor="middle" x="575.634" y="-78.8" font-family="FreeSans" font-size="8.00" fill="#2e3436">ACTS_IN</text>
<text text-anchor="start" x="550.134" y="-68.8" font-family="FreeSans" font-size="8.00" fill="#2e3436">role = &#39;Neo&#39;</text>
</g>
</g>
</svg>
