<?xml version="1.0" encoding="UTF-8" standalone="no"?>
<!DOCTYPE svg PUBLIC "-//W3C//DTD SVG 1.1//EN"
 "http://www.w3.org/Graphics/SVG/1.1/DTD/svg11.dtd">
<!-- Generated by graphviz version 2.26.3 (20100126.1600)
 -->
<!-- Title: g Pages: 1 -->
<svg width="504pt" height="364pt"
 viewBox="0.00 0.00 504.00 364.11" xmlns="http://www.w3.org/2000/svg" xmlns:xlink="http://www.w3.org/1999/xlink">
<g id="graph1" class="graph" transform="scale(0.950691 0.950691) rotate(0) translate(4 379)">
<title>g</title>
<polygon fill="white" stroke="white" points="-4,5 -4,-379 527.141,-379 527.141,5 -4,5"/>
<!-- N34 -->
<g id="node1" class="node"><title>N34</title>
<polygon fill="#ffffff" stroke="#ffffff" stroke-width="1.5" points="285.141,-65.5 315.141,-65.5 327.141,-77.5 327.141,-89.5 315.141,-101.5 285.141,-101.5 273.141,-89.5 273.141,-77.5 285.141,-65.5"/>
<path fill="#ffffff" stroke="#ffffff" stroke-width="1.5" d="M315.141,-65.5C321.141,-65.5 327.141,-71.5 327.141,-77.5"/>
<path fill="#ffffff" stroke="#ffffff" stroke-width="1.5" d="M327.141,-89.5C327.141,-95.5 321.141,-101.5 315.141,-101.5"/>
<path fill="#ffffff" stroke="#ffffff" stroke-width="1.5" d="M285.141,-101.5C279.141,-101.5 273.141,-95.5 273.141,-89.5"/>
<path fill="#ffffff" stroke="#ffffff" stroke-width="1.5" d="M273.141,-77.5C273.141,-71.5 279.141,-65.5 285.141,-65.5"/>
<polyline fill="none" stroke="#2e3436" stroke-width="1.5" points="285.141,-65.5 315.141,-65.5 "/>
<path fill="none" stroke="#2e3436" stroke-width="1.5" d="M315.141,-65.5C321.141,-65.5 327.141,-71.5 327.141,-77.5"/>
<polyline fill="none" stroke="#2e3436" stroke-width="1.5" points="327.141,-77.5 327.141,-89.5 "/>
<path fill="none" stroke="#2e3436" stroke-width="1.5" d="M327.141,-89.5C327.141,-95.5 321.141,-101.5 315.141,-101.5"/>
<polyline fill="none" stroke="#2e3436" stroke-width="1.5" points="315.141,-101.5 285.141,-101.5 "/>
<path fill="none" stroke="#2e3436" stroke-width="1.5" d="M285.141,-101.5C279.141,-101.5 273.141,-95.5 273.141,-89.5"/>
<polyline fill="none" stroke="#2e3436" stroke-width="1.5" points="273.141,-89.5 273.141,-77.5 "/>
<path fill="none" stroke="#2e3436" stroke-width="1.5" d="M273.141,-77.5C273.141,-71.5 279.141,-65.5 285.141,-65.5"/>
<text text-anchor="middle" x="300.141" y="-81.3" font-family="FreeSans" font-size="8.00" fill="#1c2021"> </text>
</g>
<!-- N35 -->
<g id="node3" class="node"><title>N35</title>
<polygon fill="#ffffff" stroke="#ffffff" stroke-width="1.5" points="411.141,-65.5 445.141,-65.5 457.141,-77.5 457.141,-89.5 445.141,-101.5 411.141,-101.5 399.141,-89.5 399.141,-77.5 411.141,-65.5"/>
<path fill="#ffffff" stroke="#ffffff" stroke-width="1.5" d="M445.141,-65.5C451.141,-65.5 457.141,-71.5 457.141,-77.5"/>
<path fill="#ffffff" stroke="#ffffff" stroke-width="1.5" d="M457.141,-89.5C457.141,-95.5 451.141,-101.5 445.141,-101.5"/>
<path fill="#ffffff" stroke="#ffffff" stroke-width="1.5" d="M411.141,-101.5C405.141,-101.5 399.141,-95.5 399.141,-89.5"/>
<path fill="#ffffff" stroke="#ffffff" stroke-width="1.5" d="M399.141,-77.5C399.141,-71.5 405.141,-65.5 411.141,-65.5"/>
<polyline fill="none" stroke="#2e3436" stroke-width="1.5" points="411.141,-65.5 445.141,-65.5 "/>
<path fill="none" stroke="#2e3436" stroke-width="1.5" d="M445.141,-65.5C451.141,-65.5 457.141,-71.5 457.141,-77.5"/>
<polyline fill="none" stroke="#2e3436" stroke-width="1.5" points="457.141,-77.5 457.141,-89.5 "/>
<path fill="none" stroke="#2e3436" stroke-width="1.5" d="M457.141,-89.5C457.141,-95.5 451.141,-101.5 445.141,-101.5"/>
<polyline fill="none" stroke="#2e3436" stroke-width="1.5" points="445.141,-101.5 411.141,-101.5 "/>
<path fill="none" stroke="#2e3436" stroke-width="1.5" d="M411.141,-101.5C405.141,-101.5 399.141,-95.5 399.141,-89.5"/>
<polyline fill="none" stroke="#2e3436" stroke-width="1.5" points="399.141,-89.5 399.141,-77.5 "/>
<path fill="none" stroke="#2e3436" stroke-width="1.5" d="M399.141,-77.5C399.141,-71.5 405.141,-65.5 411.141,-65.5"/>
<text text-anchor="start" x="407.141" y="-81.3" font-family="FreeSans" font-size="8.00" fill="#1c2021">count = 5</text>
</g>
<!-- N34&#45;&gt;N35 -->
<g id="edge2" class="edge"><title>N34&#45;&gt;N35</title>
<path fill="none" stroke="#2e3436" stroke-width="2" d="M327.286,-83.5C345.897,-83.5 370.815,-83.5 391.226,-83.5"/>
<polygon fill="#2e3436" stroke="#2e3436" points="398.805,-83.5 391.305,-86.8751 395.055,-84 391.305,-84.0001 391.305,-83.5001 391.305,-83.0001 395.055,-83 391.305,-80.1251 398.805,-83.5 398.805,-83.5"/>
<text text-anchor="middle" x="359.256" y="-75.3" font-family="FreeSans" font-size="8.00" fill="#2e3436">X</text>
</g>
<!-- N32 -->
<g id="node4" class="node"><title>N32</title>
<polygon fill="#ffffff" stroke="#ffffff" stroke-width="1.5" points="285.141,-241.5 315.141,-241.5 327.141,-253.5 327.141,-265.5 315.141,-277.5 285.141,-277.5 273.141,-265.5 273.141,-253.5 285.141,-241.5"/>
<path fill="#ffffff" stroke="#ffffff" stroke-width="1.5" d="M315.141,-241.5C321.141,-241.5 327.141,-247.5 327.141,-253.5"/>
<path fill="#ffffff" stroke="#ffffff" stroke-width="1.5" d="M327.141,-265.5C327.141,-271.5 321.141,-277.5 315.141,-277.5"/>
<path fill="#ffffff" stroke="#ffffff" stroke-width="1.5" d="M285.141,-277.5C279.141,-277.5 273.141,-271.5 273.141,-265.5"/>
<path fill="#ffffff" stroke="#ffffff" stroke-width="1.5" d="M273.141,-253.5C273.141,-247.5 279.141,-241.5 285.141,-241.5"/>
<polyline fill="none" stroke="#2e3436" stroke-width="1.5" points="285.141,-241.5 315.141,-241.5 "/>
<path fill="none" stroke="#2e3436" stroke-width="1.5" d="M315.141,-241.5C321.141,-241.5 327.141,-247.5 327.141,-253.5"/>
<polyline fill="none" stroke="#2e3436" stroke-width="1.5" points="327.141,-253.5 327.141,-265.5 "/>
<path fill="none" stroke="#2e3436" stroke-width="1.5" d="M327.141,-265.5C327.141,-271.5 321.141,-277.5 315.141,-277.5"/>
<polyline fill="none" stroke="#2e3436" stroke-width="1.5" points="315.141,-277.5 285.141,-277.5 "/>
<path fill="none" stroke="#2e3436" stroke-width="1.5" d="M285.141,-277.5C279.141,-277.5 273.141,-271.5 273.141,-265.5"/>
<polyline fill="none" stroke="#2e3436" stroke-width="1.5" points="273.141,-265.5 273.141,-253.5 "/>
<path fill="none" stroke="#2e3436" stroke-width="1.5" d="M273.141,-253.5C273.141,-247.5 279.141,-241.5 285.141,-241.5"/>
<text text-anchor="middle" x="300.141" y="-257.3" font-family="FreeSans" font-size="8.00" fill="#1c2021"> </text>
</g>
<!-- N33 -->
<g id="node6" class="node"><title>N33</title>
<polygon fill="#ffffff" stroke="#ffffff" stroke-width="1.5" points="411.141,-241.5 445.141,-241.5 457.141,-253.5 457.141,-265.5 445.141,-277.5 411.141,-277.5 399.141,-265.5 399.141,-253.5 411.141,-241.5"/>
<path fill="#ffffff" stroke="#ffffff" stroke-width="1.5" d="M445.141,-241.5C451.141,-241.5 457.141,-247.5 457.141,-253.5"/>
<path fill="#ffffff" stroke="#ffffff" stroke-width="1.5" d="M457.141,-265.5C457.141,-271.5 451.141,-277.5 445.141,-277.5"/>
<path fill="#ffffff" stroke="#ffffff" stroke-width="1.5" d="M411.141,-277.5C405.141,-277.5 399.141,-271.5 399.141,-265.5"/>
<path fill="#ffffff" stroke="#ffffff" stroke-width="1.5" d="M399.141,-253.5C399.141,-247.5 405.141,-241.5 411.141,-241.5"/>
<polyline fill="none" stroke="#2e3436" stroke-width="1.5" points="411.141,-241.5 445.141,-241.5 "/>
<path fill="none" stroke="#2e3436" stroke-width="1.5" d="M445.141,-241.5C451.141,-241.5 457.141,-247.5 457.141,-253.5"/>
<polyline fill="none" stroke="#2e3436" stroke-width="1.5" points="457.141,-253.5 457.141,-265.5 "/>
<path fill="none" stroke="#2e3436" stroke-width="1.5" d="M457.141,-265.5C457.141,-271.5 451.141,-277.5 445.141,-277.5"/>
<polyline fill="none" stroke="#2e3436" stroke-width="1.5" points="445.141,-277.5 411.141,-277.5 "/>
<path fill="none" stroke="#2e3436" stroke-width="1.5" d="M411.141,-277.5C405.141,-277.5 399.141,-271.5 399.141,-265.5"/>
<polyline fill="none" stroke="#2e3436" stroke-width="1.5" points="399.141,-265.5 399.141,-253.5 "/>
<path fill="none" stroke="#2e3436" stroke-width="1.5" d="M399.141,-253.5C399.141,-247.5 405.141,-241.5 411.141,-241.5"/>
<text text-anchor="start" x="407.141" y="-257.3" font-family="FreeSans" font-size="8.00" fill="#1c2021">count = 4</text>
</g>
<!-- N32&#45;&gt;N33 -->
<g id="edge4" class="edge"><title>N32&#45;&gt;N33</title>
<path fill="none" stroke="#2e3436" stroke-width="2" d="M327.286,-259.5C345.897,-259.5 370.815,-259.5 391.226,-259.5"/>
<polygon fill="#2e3436" stroke="#2e3436" points="398.805,-259.5 391.305,-262.875 395.055,-260 391.305,-260 391.305,-259.5 391.305,-259 395.055,-259 391.305,-256.125 398.805,-259.5 398.805,-259.5"/>
<text text-anchor="middle" x="359.256" y="-251.3" font-family="FreeSans" font-size="8.00" fill="#2e3436">X</text>
</g>
<!-- N36 -->
<g id="node7" class="node"><title>N36</title>
<polygon fill="#ffffff" stroke="#ffffff" stroke-width="1.5" points="301.141,-305.5 331.141,-305.5 343.141,-317.5 343.141,-329.5 331.141,-341.5 301.141,-341.5 289.141,-329.5 289.141,-317.5 301.141,-305.5"/>
<path fill="#ffffff" stroke="#ffffff" stroke-width="1.5" d="M331.141,-305.5C337.141,-305.5 343.141,-311.5 343.141,-317.5"/>
<path fill="#ffffff" stroke="#ffffff" stroke-width="1.5" d="M343.141,-329.5C343.141,-335.5 337.141,-341.5 331.141,-341.5"/>
<path fill="#ffffff" stroke="#ffffff" stroke-width="1.5" d="M301.141,-341.5C295.141,-341.5 289.141,-335.5 289.141,-329.5"/>
<path fill="#ffffff" stroke="#ffffff" stroke-width="1.5" d="M289.141,-317.5C289.141,-311.5 295.141,-305.5 301.141,-305.5"/>
<polyline fill="none" stroke="#2e3436" stroke-width="1.5" points="301.141,-305.5 331.141,-305.5 "/>
<path fill="none" stroke="#2e3436" stroke-width="1.5" d="M331.141,-305.5C337.141,-305.5 343.141,-311.5 343.141,-317.5"/>
<polyline fill="none" stroke="#2e3436" stroke-width="1.5" points="343.141,-317.5 343.141,-329.5 "/>
<path fill="none" stroke="#2e3436" stroke-width="1.5" d="M343.141,-329.5C343.141,-335.5 337.141,-341.5 331.141,-341.5"/>
<polyline fill="none" stroke="#2e3436" stroke-width="1.5" points="331.141,-341.5 301.141,-341.5 "/>
<path fill="none" stroke="#2e3436" stroke-width="1.5" d="M301.141,-341.5C295.141,-341.5 289.141,-335.5 289.141,-329.5"/>
<polyline fill="none" stroke="#2e3436" stroke-width="1.5" points="289.141,-329.5 289.141,-317.5 "/>
<path fill="none" stroke="#2e3436" stroke-width="1.5" d="M289.141,-317.5C289.141,-311.5 295.141,-305.5 301.141,-305.5"/>
<text text-anchor="middle" x="316.141" y="-321.3" font-family="FreeSans" font-size="8.00" fill="#1c2021"> </text>
</g>
<!-- N37 -->
<g id="node9" class="node"><title>N37</title>
<polygon fill="#ffffff" stroke="#ffffff" stroke-width="1.5" points="427.141,-305.5 461.141,-305.5 473.141,-317.5 473.141,-329.5 461.141,-341.5 427.141,-341.5 415.141,-329.5 415.141,-317.5 427.141,-305.5"/>
<path fill="#ffffff" stroke="#ffffff" stroke-width="1.5" d="M461.141,-305.5C467.141,-305.5 473.141,-311.5 473.141,-317.5"/>
<path fill="#ffffff" stroke="#ffffff" stroke-width="1.5" d="M473.141,-329.5C473.141,-335.5 467.141,-341.5 461.141,-341.5"/>
<path fill="#ffffff" stroke="#ffffff" stroke-width="1.5" d="M427.141,-341.5C421.141,-341.5 415.141,-335.5 415.141,-329.5"/>
<path fill="#ffffff" stroke="#ffffff" stroke-width="1.5" d="M415.141,-317.5C415.141,-311.5 421.141,-305.5 427.141,-305.5"/>
<polyline fill="none" stroke="#2e3436" stroke-width="1.5" points="427.141,-305.5 461.141,-305.5 "/>
<path fill="none" stroke="#2e3436" stroke-width="1.5" d="M461.141,-305.5C467.141,-305.5 473.141,-311.5 473.141,-317.5"/>
<polyline fill="none" stroke="#2e3436" stroke-width="1.5" points="473.141,-317.5 473.141,-329.5 "/>
<path fill="none" stroke="#2e3436" stroke-width="1.5" d="M473.141,-329.5C473.141,-335.5 467.141,-341.5 461.141,-341.5"/>
<polyline fill="none" stroke="#2e3436" stroke-width="1.5" points="461.141,-341.5 427.141,-341.5 "/>
<path fill="none" stroke="#2e3436" stroke-width="1.5" d="M427.141,-341.5C421.141,-341.5 415.141,-335.5 415.141,-329.5"/>
<polyline fill="none" stroke="#2e3436" stroke-width="1.5" points="415.141,-329.5 415.141,-317.5 "/>
<path fill="none" stroke="#2e3436" stroke-width="1.5" d="M415.141,-317.5C415.141,-311.5 421.141,-305.5 427.141,-305.5"/>
<text text-anchor="start" x="423.141" y="-321.3" font-family="FreeSans" font-size="8.00" fill="#1c2021">count = 6</text>
</g>
<!-- N36&#45;&gt;N37 -->
<g id="edge6" class="edge"><title>N36&#45;&gt;N37</title>
<path fill="none" stroke="#2e3436" stroke-width="2" d="M343.286,-323.5C361.897,-323.5 386.815,-323.5 407.226,-323.5"/>
<polygon fill="#2e3436" stroke="#2e3436" points="414.805,-323.5 407.305,-326.875 411.055,-324 407.305,-324 407.305,-323.5 407.305,-323 411.055,-323 407.305,-320.125 414.805,-323.5 414.805,-323.5"/>
<text text-anchor="middle" x="375.256" y="-315.3" font-family="FreeSans" font-size="8.00" fill="#2e3436">X</text>
</g>
<!-- N21 -->
<g id="node10" class="node"><title>N21</title>
<polygon fill="#ffffff" stroke="#ffffff" stroke-width="1.5" points="199.211,-48.9909 233.211,-48.9909 245.211,-60.9909 245.211,-72.9909 233.211,-84.9909 199.211,-84.9909 187.211,-72.9909 187.211,-60.9909 199.211,-48.9909"/>
<path fill="#ffffff" stroke="#ffffff" stroke-width="1.5" d="M233.211,-48.9909C239.211,-48.9909 245.211,-54.9909 245.211,-60.9909"/>
<path fill="#ffffff" stroke="#ffffff" stroke-width="1.5" d="M245.211,-72.9909C245.211,-78.9909 239.211,-84.9909 233.211,-84.9909"/>
<path fill="#ffffff" stroke="#ffffff" stroke-width="1.5" d="M199.211,-84.9909C193.211,-84.9909 187.211,-78.9909 187.211,-72.9909"/>
<path fill="#ffffff" stroke="#ffffff" stroke-width="1.5" d="M187.211,-60.9909C187.211,-54.9909 193.211,-48.9909 199.211,-48.9909"/>
<polyline fill="none" stroke="#2e3436" stroke-width="1.5" points="199.211,-48.9909 233.211,-48.9909 "/>
<path fill="none" stroke="#2e3436" stroke-width="1.5" d="M233.211,-48.9909C239.211,-48.9909 245.211,-54.9909 245.211,-60.9909"/>
<polyline fill="none" stroke="#2e3436" stroke-width="1.5" points="245.211,-60.9909 245.211,-72.9909 "/>
<path fill="none" stroke="#2e3436" stroke-width="1.5" d="M245.211,-72.9909C245.211,-78.9909 239.211,-84.9909 233.211,-84.9909"/>
<polyline fill="none" stroke="#2e3436" stroke-width="1.5" points="233.211,-84.9909 199.211,-84.9909 "/>
<path fill="none" stroke="#2e3436" stroke-width="1.5" d="M199.211,-84.9909C193.211,-84.9909 187.211,-78.9909 187.211,-72.9909"/>
<polyline fill="none" stroke="#2e3436" stroke-width="1.5" points="187.211,-72.9909 187.211,-60.9909 "/>
<path fill="none" stroke="#2e3436" stroke-width="1.5" d="M187.211,-60.9909C187.211,-54.9909 193.211,-48.9909 199.211,-48.9909"/>
<text text-anchor="start" x="195.211" y="-64.7909" font-family="FreeSans" font-size="8.00" fill="#1c2021">count = 2</text>
</g>
<!-- N22 -->
<g id="node12" class="node"><title>N22</title>
<polygon fill="#ffffff" stroke="#ffffff" stroke-width="1.5" points="261.282,-156.5 295.282,-156.5 307.282,-168.5 307.282,-180.5 295.282,-192.5 261.282,-192.5 249.282,-180.5 249.282,-168.5 261.282,-156.5"/>
<path fill="#ffffff" stroke="#ffffff" stroke-width="1.5" d="M295.282,-156.5C301.282,-156.5 307.282,-162.5 307.282,-168.5"/>
<path fill="#ffffff" stroke="#ffffff" stroke-width="1.5" d="M307.282,-180.5C307.282,-186.5 301.282,-192.5 295.282,-192.5"/>
<path fill="#ffffff" stroke="#ffffff" stroke-width="1.5" d="M261.282,-192.5C255.282,-192.5 249.282,-186.5 249.282,-180.5"/>
<path fill="#ffffff" stroke="#ffffff" stroke-width="1.5" d="M249.282,-168.5C249.282,-162.5 255.282,-156.5 261.282,-156.5"/>
<polyline fill="none" stroke="#2e3436" stroke-width="1.5" points="261.282,-156.5 295.282,-156.5 "/>
<path fill="none" stroke="#2e3436" stroke-width="1.5" d="M295.282,-156.5C301.282,-156.5 307.282,-162.5 307.282,-168.5"/>
<polyline fill="none" stroke="#2e3436" stroke-width="1.5" points="307.282,-168.5 307.282,-180.5 "/>
<path fill="none" stroke="#2e3436" stroke-width="1.5" d="M307.282,-180.5C307.282,-186.5 301.282,-192.5 295.282,-192.5"/>
<polyline fill="none" stroke="#2e3436" stroke-width="1.5" points="295.282,-192.5 261.282,-192.5 "/>
<path fill="none" stroke="#2e3436" stroke-width="1.5" d="M261.282,-192.5C255.282,-192.5 249.282,-186.5 249.282,-180.5"/>
<polyline fill="none" stroke="#2e3436" stroke-width="1.5" points="249.282,-180.5 249.282,-168.5 "/>
<path fill="none" stroke="#2e3436" stroke-width="1.5" d="M249.282,-168.5C249.282,-162.5 255.282,-156.5 261.282,-156.5"/>
<text text-anchor="start" x="257.282" y="-172.3" font-family="FreeSans" font-size="8.00" fill="#1c2021">count = 3</text>
</g>
<!-- N21&#45;&gt;N22 -->
<g id="edge8" class="edge"><title>N21&#45;&gt;N22</title>
<path fill="none" stroke="#2e3436" stroke-width="2" d="M226.741,-85.2283C236.951,-102.913 252.521,-129.88 263.876,-149.548"/>
<polygon fill="#2e3436" stroke="#2e3436" points="267.701,-156.173 261.028,-151.365 265.393,-153.175 263.518,-149.928 263.951,-149.678 264.384,-149.428 266.259,-152.675 266.873,-147.99 267.701,-156.173 267.701,-156.173"/>
<text text-anchor="middle" x="240.308" y="-118.188" font-family="FreeSans" font-size="8.00" fill="#2e3436">X</text>
</g>
<!-- N23 -->
<g id="node14" class="node"><title>N23</title>
<polygon fill="#ffffff" stroke="#ffffff" stroke-width="1.5" points="13,-156.5 47,-156.5 59,-168.5 59,-180.5 47,-192.5 13,-192.5 1,-180.5 1,-168.5 13,-156.5"/>
<path fill="#ffffff" stroke="#ffffff" stroke-width="1.5" d="M47,-156.5C53,-156.5 59,-162.5 59,-168.5"/>
<path fill="#ffffff" stroke="#ffffff" stroke-width="1.5" d="M59,-180.5C59,-186.5 53,-192.5 47,-192.5"/>
<path fill="#ffffff" stroke="#ffffff" stroke-width="1.5" d="M13,-192.5C7,-192.5 1,-186.5 1,-180.5"/>
<path fill="#ffffff" stroke="#ffffff" stroke-width="1.5" d="M1,-168.5C1,-162.5 7,-156.5 13,-156.5"/>
<polyline fill="none" stroke="#2e3436" stroke-width="1.5" points="13,-156.5 47,-156.5 "/>
<path fill="none" stroke="#2e3436" stroke-width="1.5" d="M47,-156.5C53,-156.5 59,-162.5 59,-168.5"/>
<polyline fill="none" stroke="#2e3436" stroke-width="1.5" points="59,-168.5 59,-180.5 "/>
<path fill="none" stroke="#2e3436" stroke-width="1.5" d="M59,-180.5C59,-186.5 53,-192.5 47,-192.5"/>
<polyline fill="none" stroke="#2e3436" stroke-width="1.5" points="47,-192.5 13,-192.5 "/>
<path fill="none" stroke="#2e3436" stroke-width="1.5" d="M13,-192.5C7,-192.5 1,-186.5 1,-180.5"/>
<polyline fill="none" stroke="#2e3436" stroke-width="1.5" points="1,-180.5 1,-168.5 "/>
<path fill="none" stroke="#2e3436" stroke-width="1.5" d="M1,-168.5C1,-162.5 7,-156.5 13,-156.5"/>
<text text-anchor="start" x="9" y="-172.3" font-family="FreeSans" font-size="8.00" fill="#1c2021">count = 4</text>
</g>
<!-- N21&#45;&gt;N23 -->
<g id="edge10" class="edge"><title>N21&#45;&gt;N23</title>
<path fill="none" stroke="#2e3436" stroke-width="2" d="M187.116,-83.7892C154.415,-102.669 101.297,-133.337 66.0068,-153.711"/>
<polygon fill="#2e3436" stroke="#2e3436" points="59.1979,-157.643 64.0056,-150.97 62.1955,-155.335 65.4431,-153.46 65.6931,-153.893 65.9431,-154.326 62.6955,-156.201 67.3806,-156.815 59.1979,-157.643 59.1979,-157.643"/>
<text text-anchor="middle" x="129.561" y="-122.55" font-family="FreeSans" font-size="8.00" fill="#2e3436">X</text>
</g>
<!-- N24 -->
<g id="node16" class="node"><title>N24</title>
<polygon fill="#ffffff" stroke="#ffffff" stroke-width="1.5" points="75.0704,-264.009 109.07,-264.009 121.07,-276.009 121.07,-288.009 109.07,-300.009 75.0704,-300.009 63.0704,-288.009 63.0704,-276.009 75.0704,-264.009"/>
<path fill="#ffffff" stroke="#ffffff" stroke-width="1.5" d="M109.07,-264.009C115.07,-264.009 121.07,-270.009 121.07,-276.009"/>
<path fill="#ffffff" stroke="#ffffff" stroke-width="1.5" d="M121.07,-288.009C121.07,-294.009 115.07,-300.009 109.07,-300.009"/>
<path fill="#ffffff" stroke="#ffffff" stroke-width="1.5" d="M75.0704,-300.009C69.0704,-300.009 63.0704,-294.009 63.0704,-288.009"/>
<path fill="#ffffff" stroke="#ffffff" stroke-width="1.5" d="M63.0704,-276.009C63.0704,-270.009 69.0704,-264.009 75.0704,-264.009"/>
<polyline fill="none" stroke="#2e3436" stroke-width="1.5" points="75.0704,-264.009 109.07,-264.009 "/>
<path fill="none" stroke="#2e3436" stroke-width="1.5" d="M109.07,-264.009C115.07,-264.009 121.07,-270.009 121.07,-276.009"/>
<polyline fill="none" stroke="#2e3436" stroke-width="1.5" points="121.07,-276.009 121.07,-288.009 "/>
<path fill="none" stroke="#2e3436" stroke-width="1.5" d="M121.07,-288.009C121.07,-294.009 115.07,-300.009 109.07,-300.009"/>
<polyline fill="none" stroke="#2e3436" stroke-width="1.5" points="109.07,-300.009 75.0704,-300.009 "/>
<path fill="none" stroke="#2e3436" stroke-width="1.5" d="M75.0704,-300.009C69.0704,-300.009 63.0704,-294.009 63.0704,-288.009"/>
<polyline fill="none" stroke="#2e3436" stroke-width="1.5" points="63.0704,-288.009 63.0704,-276.009 "/>
<path fill="none" stroke="#2e3436" stroke-width="1.5" d="M63.0704,-276.009C63.0704,-270.009 69.0704,-264.009 75.0704,-264.009"/>
<text text-anchor="start" x="71.0704" y="-279.809" font-family="FreeSans" font-size="8.00" fill="#1c2021">count = 5</text>
</g>
<!-- N21&#45;&gt;N24 -->
<g id="edge12" class="edge"><title>N21&#45;&gt;N24</title>
<path fill="none" stroke="#2e3436" stroke-width="2" d="M205.627,-85.3232C183.364,-123.883 131.672,-213.418 106.441,-257.118"/>
<polygon fill="#2e3436" stroke="#2e3436" points="102.628,-263.723 103.455,-255.54 104.07,-260.226 105.945,-256.978 106.378,-257.228 106.811,-257.478 104.936,-260.726 109.301,-258.916 102.628,-263.723 102.628,-263.723"/>
<text text-anchor="middle" x="161.034" y="-172.021" font-family="FreeSans" font-size="8.00" fill="#2e3436">X</text>
</g>
<!-- N25 -->
<g id="node18" class="node"><title>N25</title>
<polygon fill="#ffffff" stroke="#ffffff" stroke-width="1.5" points="199.211,-264.009 233.211,-264.009 245.211,-276.009 245.211,-288.009 233.211,-300.009 199.211,-300.009 187.211,-288.009 187.211,-276.009 199.211,-264.009"/>
<path fill="#ffffff" stroke="#ffffff" stroke-width="1.5" d="M233.211,-264.009C239.211,-264.009 245.211,-270.009 245.211,-276.009"/>
<path fill="#ffffff" stroke="#ffffff" stroke-width="1.5" d="M245.211,-288.009C245.211,-294.009 239.211,-300.009 233.211,-300.009"/>
<path fill="#ffffff" stroke="#ffffff" stroke-width="1.5" d="M199.211,-300.009C193.211,-300.009 187.211,-294.009 187.211,-288.009"/>
<path fill="#ffffff" stroke="#ffffff" stroke-width="1.5" d="M187.211,-276.009C187.211,-270.009 193.211,-264.009 199.211,-264.009"/>
<polyline fill="none" stroke="#2e3436" stroke-width="1.5" points="199.211,-264.009 233.211,-264.009 "/>
<path fill="none" stroke="#2e3436" stroke-width="1.5" d="M233.211,-264.009C239.211,-264.009 245.211,-270.009 245.211,-276.009"/>
<polyline fill="none" stroke="#2e3436" stroke-width="1.5" points="245.211,-276.009 245.211,-288.009 "/>
<path fill="none" stroke="#2e3436" stroke-width="1.5" d="M245.211,-288.009C245.211,-294.009 239.211,-300.009 233.211,-300.009"/>
<polyline fill="none" stroke="#2e3436" stroke-width="1.5" points="233.211,-300.009 199.211,-300.009 "/>
<path fill="none" stroke="#2e3436" stroke-width="1.5" d="M199.211,-300.009C193.211,-300.009 187.211,-294.009 187.211,-288.009"/>
<polyline fill="none" stroke="#2e3436" stroke-width="1.5" points="187.211,-288.009 187.211,-276.009 "/>
<path fill="none" stroke="#2e3436" stroke-width="1.5" d="M187.211,-276.009C187.211,-270.009 193.211,-264.009 199.211,-264.009"/>
<text text-anchor="start" x="195.211" y="-279.809" font-family="FreeSans" font-size="8.00" fill="#1c2021">count = 6</text>
</g>
<!-- N21&#45;&gt;N25 -->
<g id="edge14" class="edge"><title>N21&#45;&gt;N25</title>
<path fill="none" stroke="#2e3436" stroke-width="2" d="M216.211,-85.3232C216.211,-123.566 216.211,-211.947 216.211,-256.03"/>
<polygon fill="#2e3436" stroke="#2e3436" points="216.211,-263.723 212.836,-256.223 215.711,-259.973 215.711,-256.223 216.211,-256.223 216.711,-256.223 216.711,-259.973 219.586,-256.223 216.211,-263.723 216.211,-263.723"/>
<text text-anchor="middle" x="212.211" y="-168.476" font-family="FreeSans" font-size="8.00" fill="#2e3436">X</text>
</g>
<!-- N22&#45;&gt;N23 -->
<g id="edge30" class="edge"><title>N22&#45;&gt;N23</title>
<path fill="none" stroke="#2e3436" stroke-width="2" d="M248.826,-174.5C203.346,-174.5 116.124,-174.5 66.6395,-174.5"/>
<polygon fill="#2e3436" stroke="#2e3436" points="59.0337,-174.5 66.5337,-171.125 62.7837,-174 66.5337,-174 66.5337,-174.5 66.5337,-175 62.7837,-175 66.5336,-177.875 59.0337,-174.5 59.0337,-174.5"/>
<text text-anchor="middle" x="157.733" y="-166.3" font-family="FreeSans" font-size="8.00" fill="#2e3436">X</text>
</g>
<!-- N22&#45;&gt;N24 -->
<g id="edge32" class="edge"><title>N22&#45;&gt;N24</title>
<path fill="none" stroke="#2e3436" stroke-width="2" d="M249.186,-191.298C216.486,-210.178 163.367,-240.846 128.077,-261.221"/>
<polygon fill="#2e3436" stroke="#2e3436" points="121.268,-265.152 126.076,-258.479 124.266,-262.844 127.513,-260.969 127.763,-261.402 128.014,-261.835 124.766,-263.71 129.451,-264.325 121.268,-265.152 121.268,-265.152"/>
<text text-anchor="middle" x="185.632" y="-218.059" font-family="FreeSans" font-size="8.00" fill="#2e3436">X</text>
</g>
<!-- N22&#45;&gt;N25 -->
<g id="edge34" class="edge"><title>N22&#45;&gt;N25</title>
<path fill="none" stroke="#2e3436" stroke-width="2" d="M267.752,-192.737C257.542,-210.422 241.972,-237.389 230.617,-257.057"/>
<polygon fill="#2e3436" stroke="#2e3436" points="226.792,-263.682 227.62,-255.499 228.234,-260.185 230.109,-256.937 230.542,-257.187 230.975,-257.437 229.1,-260.685 233.465,-258.875 226.792,-263.682 226.792,-263.682"/>
<text text-anchor="middle" x="254.185" y="-225.697" font-family="FreeSans" font-size="8.00" fill="#2e3436">X</text>
</g>
<!-- N23&#45;&gt;N24 -->
<g id="edge26" class="edge"><title>N23&#45;&gt;N24</title>
<path fill="none" stroke="#2e3436" stroke-width="2" d="M40.5294,-192.737C50.7396,-210.422 66.3093,-237.389 77.6644,-257.057"/>
<polygon fill="#2e3436" stroke="#2e3436" points="81.4894,-263.682 74.8165,-258.875 79.1813,-260.685 77.3063,-257.437 77.7393,-257.187 78.1723,-256.937 80.0474,-260.185 80.6622,-255.499 81.4894,-263.682 81.4894,-263.682"/>
<text text-anchor="middle" x="54.0969" y="-225.697" font-family="FreeSans" font-size="8.00" fill="#2e3436">X</text>
</g>
<!-- N23&#45;&gt;N25 -->
<g id="edge28" class="edge"><title>N23&#45;&gt;N25</title>
<path fill="none" stroke="#2e3436" stroke-width="2" d="M59.0955,-191.298C91.796,-210.178 144.914,-240.846 180.204,-261.221"/>
<polygon fill="#2e3436" stroke="#2e3436" points="187.013,-265.152 178.831,-264.325 183.516,-263.71 180.268,-261.835 180.518,-261.402 180.768,-260.969 184.016,-262.844 182.206,-258.479 187.013,-265.152 187.013,-265.152"/>
<text text-anchor="middle" x="122.65" y="-218.059" font-family="FreeSans" font-size="8.00" fill="#2e3436">X</text>
</g>
<!-- N24&#45;&gt;N25 -->
<g id="edge36" class="edge"><title>N24&#45;&gt;N25</title>
<path fill="none" stroke="#2e3436" stroke-width="2" d="M121.176,-282.009C138.483,-282.009 160.607,-282.009 179.153,-282.009"/>
<polygon fill="#2e3436" stroke="#2e3436" points="186.858,-282.009 179.358,-285.384 183.108,-282.509 179.358,-282.509 179.358,-282.009 179.358,-281.509 183.108,-281.509 179.358,-278.634 186.858,-282.009 186.858,-282.009"/>
<text text-anchor="middle" x="150.165" y="-273.809" font-family="FreeSans" font-size="8.00" fill="#2e3436">X</text>
</g>
<!-- N20 -->
<g id="node19" class="node"><title>N20</title>
<polygon fill="#ffffff" stroke="#ffffff" stroke-width="1.5" points="75.0704,-48.9909 109.07,-48.9909 121.07,-60.9909 121.07,-72.9909 109.07,-84.9909 75.0704,-84.9909 63.0704,-72.9909 63.0704,-60.9909 75.0704,-48.9909"/>
<path fill="#ffffff" stroke="#ffffff" stroke-width="1.5" d="M109.07,-48.9909C115.07,-48.9909 121.07,-54.9909 121.07,-60.9909"/>
<path fill="#ffffff" stroke="#ffffff" stroke-width="1.5" d="M121.07,-72.9909C121.07,-78.9909 115.07,-84.9909 109.07,-84.9909"/>
<path fill="#ffffff" stroke="#ffffff" stroke-width="1.5" d="M75.0704,-84.9909C69.0704,-84.9909 63.0704,-78.9909 63.0704,-72.9909"/>
<path fill="#ffffff" stroke="#ffffff" stroke-width="1.5" d="M63.0704,-60.9909C63.0704,-54.9909 69.0704,-48.9909 75.0704,-48.9909"/>
<polyline fill="none" stroke="#2e3436" stroke-width="1.5" points="75.0704,-48.9909 109.07,-48.9909 "/>
<path fill="none" stroke="#2e3436" stroke-width="1.5" d="M109.07,-48.9909C115.07,-48.9909 121.07,-54.9909 121.07,-60.9909"/>
<polyline fill="none" stroke="#2e3436" stroke-width="1.5" points="121.07,-60.9909 121.07,-72.9909 "/>
<path fill="none" stroke="#2e3436" stroke-width="1.5" d="M121.07,-72.9909C121.07,-78.9909 115.07,-84.9909 109.07,-84.9909"/>
<polyline fill="none" stroke="#2e3436" stroke-width="1.5" points="109.07,-84.9909 75.0704,-84.9909 "/>
<path fill="none" stroke="#2e3436" stroke-width="1.5" d="M75.0704,-84.9909C69.0704,-84.9909 63.0704,-78.9909 63.0704,-72.9909"/>
<polyline fill="none" stroke="#2e3436" stroke-width="1.5" points="63.0704,-72.9909 63.0704,-60.9909 "/>
<path fill="none" stroke="#2e3436" stroke-width="1.5" d="M63.0704,-60.9909C63.0704,-54.9909 69.0704,-48.9909 75.0704,-48.9909"/>
<text text-anchor="start" x="71.0704" y="-64.7909" font-family="FreeSans" font-size="8.00" fill="#1c2021">count = 1</text>
</g>
<!-- N20&#45;&gt;N21 -->
<g id="edge16" class="edge"><title>N20&#45;&gt;N21</title>
<path fill="none" stroke="#2e3436" stroke-width="2" d="M121.176,-66.9909C138.483,-66.9909 160.607,-66.9909 179.153,-66.9909"/>
<polygon fill="#2e3436" stroke="#2e3436" points="186.858,-66.9909 179.358,-70.366 183.108,-67.4909 179.358,-67.491 179.358,-66.991 179.358,-66.491 183.108,-66.4909 179.358,-63.616 186.858,-66.9909 186.858,-66.9909"/>
<text text-anchor="middle" x="150.165" y="-70.7909" font-family="FreeSans" font-size="8.00" fill="#2e3436">X</text>
</g>
<!-- N20&#45;&gt;N22 -->
<g id="edge18" class="edge"><title>N20&#45;&gt;N22</title>
<path fill="none" stroke="#2e3436" stroke-width="2" d="M121.166,-83.7892C153.866,-102.669 206.985,-133.337 242.275,-153.711"/>
<polygon fill="#2e3436" stroke="#2e3436" points="249.084,-157.643 240.901,-156.815 245.586,-156.201 242.339,-154.326 242.589,-153.893 242.839,-153.46 246.086,-155.335 244.276,-150.97 249.084,-157.643 249.084,-157.643"/>
<text text-anchor="middle" x="178.72" y="-122.55" font-family="FreeSans" font-size="8.00" fill="#2e3436">X</text>
</g>
<!-- N20&#45;&gt;N23 -->
<g id="edge20" class="edge"><title>N20&#45;&gt;N23</title>
<path fill="none" stroke="#2e3436" stroke-width="2" d="M81.541,-85.2283C71.3309,-102.913 55.7612,-129.88 44.406,-149.548"/>
<polygon fill="#2e3436" stroke="#2e3436" points="40.5811,-156.173 41.4083,-147.99 42.0231,-152.675 43.8981,-149.428 44.3311,-149.678 44.7641,-149.928 42.8891,-153.175 47.2539,-151.365 40.5811,-156.173 40.5811,-156.173"/>
<text text-anchor="middle" x="57.9735" y="-112.188" font-family="FreeSans" font-size="8.00" fill="#2e3436">X</text>
</g>
<!-- N20&#45;&gt;N24 -->
<g id="edge22" class="edge"><title>N20&#45;&gt;N24</title>
<path fill="none" stroke="#2e3436" stroke-width="2" d="M92.0704,-85.3232C92.0704,-123.566 92.0704,-211.947 92.0704,-256.03"/>
<polygon fill="#2e3436" stroke="#2e3436" points="92.0704,-263.723 88.6955,-256.223 91.5705,-259.973 91.5705,-256.223 92.0705,-256.223 92.5705,-256.223 92.5705,-259.973 95.4455,-256.223 92.0704,-263.723 92.0704,-263.723"/>
<text text-anchor="middle" x="96.0704" y="-168.476" font-family="FreeSans" font-size="8.00" fill="#2e3436">X</text>
</g>
<!-- N20&#45;&gt;N25 -->
<g id="edge24" class="edge"><title>N20&#45;&gt;N25</title>
<path fill="none" stroke="#2e3436" stroke-width="2" d="M102.655,-85.3232C124.917,-123.883 176.61,-213.418 201.84,-257.118"/>
<polygon fill="#2e3436" stroke="#2e3436" points="205.654,-263.723 198.981,-258.916 203.346,-260.726 201.471,-257.478 201.904,-257.228 202.337,-256.978 204.212,-260.226 204.827,-255.54 205.654,-263.723 205.654,-263.723"/>
<text text-anchor="middle" x="147.247" y="-172.021" font-family="FreeSans" font-size="8.00" fill="#2e3436">X</text>
</g>
<!-- N27 -->
<g id="node31" class="node"><title>N27</title>
<polygon fill="#ffffff" stroke="#ffffff" stroke-width="1.5" points="77.1409,-337.5 111.141,-337.5 123.141,-349.5 123.141,-361.5 111.141,-373.5 77.1409,-373.5 65.1409,-361.5 65.1409,-349.5 77.1409,-337.5"/>
<path fill="#ffffff" stroke="#ffffff" stroke-width="1.5" d="M111.141,-337.5C117.141,-337.5 123.141,-343.5 123.141,-349.5"/>
<path fill="#ffffff" stroke="#ffffff" stroke-width="1.5" d="M123.141,-361.5C123.141,-367.5 117.141,-373.5 111.141,-373.5"/>
<path fill="#ffffff" stroke="#ffffff" stroke-width="1.5" d="M77.1409,-373.5C71.1409,-373.5 65.1409,-367.5 65.1409,-361.5"/>
<path fill="#ffffff" stroke="#ffffff" stroke-width="1.5" d="M65.1409,-349.5C65.1409,-343.5 71.1409,-337.5 77.1409,-337.5"/>
<polyline fill="none" stroke="#2e3436" stroke-width="1.5" points="77.1409,-337.5 111.141,-337.5 "/>
<path fill="none" stroke="#2e3436" stroke-width="1.5" d="M111.141,-337.5C117.141,-337.5 123.141,-343.5 123.141,-349.5"/>
<polyline fill="none" stroke="#2e3436" stroke-width="1.5" points="123.141,-349.5 123.141,-361.5 "/>
<path fill="none" stroke="#2e3436" stroke-width="1.5" d="M123.141,-361.5C123.141,-367.5 117.141,-373.5 111.141,-373.5"/>
<polyline fill="none" stroke="#2e3436" stroke-width="1.5" points="111.141,-373.5 77.1409,-373.5 "/>
<path fill="none" stroke="#2e3436" stroke-width="1.5" d="M77.1409,-373.5C71.1409,-373.5 65.1409,-367.5 65.1409,-361.5"/>
<polyline fill="none" stroke="#2e3436" stroke-width="1.5" points="65.1409,-361.5 65.1409,-349.5 "/>
<path fill="none" stroke="#2e3436" stroke-width="1.5" d="M65.1409,-349.5C65.1409,-343.5 71.1409,-337.5 77.1409,-337.5"/>
<text text-anchor="start" x="73.1409" y="-353.3" font-family="FreeSans" font-size="8.00" fill="#1c2021">count = 1</text>
</g>
<!-- N26 -->
<g id="node32" class="node"><title>N26</title>
<polygon fill="#ffffff" stroke="#ffffff" stroke-width="1.5" points="207.141,-337.5 237.141,-337.5 249.141,-349.5 249.141,-361.5 237.141,-373.5 207.141,-373.5 195.141,-361.5 195.141,-349.5 207.141,-337.5"/>
<path fill="#ffffff" stroke="#ffffff" stroke-width="1.5" d="M237.141,-337.5C243.141,-337.5 249.141,-343.5 249.141,-349.5"/>
<path fill="#ffffff" stroke="#ffffff" stroke-width="1.5" d="M249.141,-361.5C249.141,-367.5 243.141,-373.5 237.141,-373.5"/>
<path fill="#ffffff" stroke="#ffffff" stroke-width="1.5" d="M207.141,-373.5C201.141,-373.5 195.141,-367.5 195.141,-361.5"/>
<path fill="#ffffff" stroke="#ffffff" stroke-width="1.5" d="M195.141,-349.5C195.141,-343.5 201.141,-337.5 207.141,-337.5"/>
<polyline fill="none" stroke="#2e3436" stroke-width="1.5" points="207.141,-337.5 237.141,-337.5 "/>
<path fill="none" stroke="#2e3436" stroke-width="1.5" d="M237.141,-337.5C243.141,-337.5 249.141,-343.5 249.141,-349.5"/>
<polyline fill="none" stroke="#2e3436" stroke-width="1.5" points="249.141,-349.5 249.141,-361.5 "/>
<path fill="none" stroke="#2e3436" stroke-width="1.5" d="M249.141,-361.5C249.141,-367.5 243.141,-373.5 237.141,-373.5"/>
<polyline fill="none" stroke="#2e3436" stroke-width="1.5" points="237.141,-373.5 207.141,-373.5 "/>
<path fill="none" stroke="#2e3436" stroke-width="1.5" d="M207.141,-373.5C201.141,-373.5 195.141,-367.5 195.141,-361.5"/>
<polyline fill="none" stroke="#2e3436" stroke-width="1.5" points="195.141,-361.5 195.141,-349.5 "/>
<path fill="none" stroke="#2e3436" stroke-width="1.5" d="M195.141,-349.5C195.141,-343.5 201.141,-337.5 207.141,-337.5"/>
<text text-anchor="middle" x="222.141" y="-353.3" font-family="FreeSans" font-size="8.00" fill="#1c2021"> </text>
</g>
<!-- N26&#45;&gt;N27 -->
<g id="edge38" class="edge"><title>N26&#45;&gt;N27</title>
<path fill="none" stroke="#2e3436" stroke-width="2" d="M194.995,-355.5C176.385,-355.5 151.467,-355.5 131.056,-355.5"/>
<polygon fill="#2e3436" stroke="#2e3436" points="123.477,-355.5 130.977,-352.125 127.227,-355 130.977,-355 130.977,-355.5 130.977,-356 127.227,-356 130.976,-358.875 123.477,-355.5 123.477,-355.5"/>
<text text-anchor="middle" x="163.026" y="-347.3" font-family="FreeSans" font-size="8.00" fill="#2e3436">X</text>
</g>
<!-- N29 -->
<g id="node34" class="node"><title>N29</title>
<polygon fill="#ffffff" stroke="#ffffff" stroke-width="1.5" points="285.141,-1.5 319.141,-1.5 331.141,-13.5 331.141,-25.5 319.141,-37.5 285.141,-37.5 273.141,-25.5 273.141,-13.5 285.141,-1.5"/>
<path fill="#ffffff" stroke="#ffffff" stroke-width="1.5" d="M319.141,-1.5C325.141,-1.5 331.141,-7.5 331.141,-13.5"/>
<path fill="#ffffff" stroke="#ffffff" stroke-width="1.5" d="M331.141,-25.5C331.141,-31.5 325.141,-37.5 319.141,-37.5"/>
<path fill="#ffffff" stroke="#ffffff" stroke-width="1.5" d="M285.141,-37.5C279.141,-37.5 273.141,-31.5 273.141,-25.5"/>
<path fill="#ffffff" stroke="#ffffff" stroke-width="1.5" d="M273.141,-13.5C273.141,-7.5 279.141,-1.5 285.141,-1.5"/>
<polyline fill="none" stroke="#2e3436" stroke-width="1.5" points="285.141,-1.5 319.141,-1.5 "/>
<path fill="none" stroke="#2e3436" stroke-width="1.5" d="M319.141,-1.5C325.141,-1.5 331.141,-7.5 331.141,-13.5"/>
<polyline fill="none" stroke="#2e3436" stroke-width="1.5" points="331.141,-13.5 331.141,-25.5 "/>
<path fill="none" stroke="#2e3436" stroke-width="1.5" d="M331.141,-25.5C331.141,-31.5 325.141,-37.5 319.141,-37.5"/>
<polyline fill="none" stroke="#2e3436" stroke-width="1.5" points="319.141,-37.5 285.141,-37.5 "/>
<path fill="none" stroke="#2e3436" stroke-width="1.5" d="M285.141,-37.5C279.141,-37.5 273.141,-31.5 273.141,-25.5"/>
<polyline fill="none" stroke="#2e3436" stroke-width="1.5" points="273.141,-25.5 273.141,-13.5 "/>
<path fill="none" stroke="#2e3436" stroke-width="1.5" d="M273.141,-13.5C273.141,-7.5 279.141,-1.5 285.141,-1.5"/>
<text text-anchor="start" x="281.141" y="-17.3" font-family="FreeSans" font-size="8.00" fill="#1c2021">count = 2</text>
</g>
<!-- N28 -->
<g id="node35" class="node"><title>N28</title>
<polygon fill="#ffffff" stroke="#ffffff" stroke-width="1.5" points="415.141,-1.5 445.141,-1.5 457.141,-13.5 457.141,-25.5 445.141,-37.5 415.141,-37.5 403.141,-25.5 403.141,-13.5 415.141,-1.5"/>
<path fill="#ffffff" stroke="#ffffff" stroke-width="1.5" d="M445.141,-1.5C451.141,-1.5 457.141,-7.5 457.141,-13.5"/>
<path fill="#ffffff" stroke="#ffffff" stroke-width="1.5" d="M457.141,-25.5C457.141,-31.5 451.141,-37.5 445.141,-37.5"/>
<path fill="#ffffff" stroke="#ffffff" stroke-width="1.5" d="M415.141,-37.5C409.141,-37.5 403.141,-31.5 403.141,-25.5"/>
<path fill="#ffffff" stroke="#ffffff" stroke-width="1.5" d="M403.141,-13.5C403.141,-7.5 409.141,-1.5 415.141,-1.5"/>
<polyline fill="none" stroke="#2e3436" stroke-width="1.5" points="415.141,-1.5 445.141,-1.5 "/>
<path fill="none" stroke="#2e3436" stroke-width="1.5" d="M445.141,-1.5C451.141,-1.5 457.141,-7.5 457.141,-13.5"/>
<polyline fill="none" stroke="#2e3436" stroke-width="1.5" points="457.141,-13.5 457.141,-25.5 "/>
<path fill="none" stroke="#2e3436" stroke-width="1.5" d="M457.141,-25.5C457.141,-31.5 451.141,-37.5 445.141,-37.5"/>
<polyline fill="none" stroke="#2e3436" stroke-width="1.5" points="445.141,-37.5 415.141,-37.5 "/>
<path fill="none" stroke="#2e3436" stroke-width="1.5" d="M415.141,-37.5C409.141,-37.5 403.141,-31.5 403.141,-25.5"/>
<polyline fill="none" stroke="#2e3436" stroke-width="1.5" points="403.141,-25.5 403.141,-13.5 "/>
<path fill="none" stroke="#2e3436" stroke-width="1.5" d="M403.141,-13.5C403.141,-7.5 409.141,-1.5 415.141,-1.5"/>
<text text-anchor="middle" x="430.141" y="-17.3" font-family="FreeSans" font-size="8.00" fill="#1c2021"> </text>
</g>
<!-- N28&#45;&gt;N29 -->
<g id="edge40" class="edge"><title>N28&#45;&gt;N29</title>
<path fill="none" stroke="#2e3436" stroke-width="2" d="M402.995,-19.5C384.385,-19.5 359.467,-19.5 339.056,-19.5"/>
<polygon fill="#2e3436" stroke="#2e3436" points="331.477,-19.5 338.977,-16.1251 335.227,-19 338.977,-19.0001 338.977,-19.5001 338.977,-20.0001 335.227,-20 338.976,-22.8751 331.477,-19.5 331.477,-19.5"/>
<text text-anchor="middle" x="371.026" y="-11.3" font-family="FreeSans" font-size="8.00" fill="#2e3436">X</text>
</g>
<!-- N31 -->
<g id="node37" class="node"><title>N31</title>
<polygon fill="#ffffff" stroke="#ffffff" stroke-width="1.5" points="349.141,-129.5 383.141,-129.5 395.141,-141.5 395.141,-153.5 383.141,-165.5 349.141,-165.5 337.141,-153.5 337.141,-141.5 349.141,-129.5"/>
<path fill="#ffffff" stroke="#ffffff" stroke-width="1.5" d="M383.141,-129.5C389.141,-129.5 395.141,-135.5 395.141,-141.5"/>
<path fill="#ffffff" stroke="#ffffff" stroke-width="1.5" d="M395.141,-153.5C395.141,-159.5 389.141,-165.5 383.141,-165.5"/>
<path fill="#ffffff" stroke="#ffffff" stroke-width="1.5" d="M349.141,-165.5C343.141,-165.5 337.141,-159.5 337.141,-153.5"/>
<path fill="#ffffff" stroke="#ffffff" stroke-width="1.5" d="M337.141,-141.5C337.141,-135.5 343.141,-129.5 349.141,-129.5"/>
<polyline fill="none" stroke="#2e3436" stroke-width="1.5" points="349.141,-129.5 383.141,-129.5 "/>
<path fill="none" stroke="#2e3436" stroke-width="1.5" d="M383.141,-129.5C389.141,-129.5 395.141,-135.5 395.141,-141.5"/>
<polyline fill="none" stroke="#2e3436" stroke-width="1.5" points="395.141,-141.5 395.141,-153.5 "/>
<path fill="none" stroke="#2e3436" stroke-width="1.5" d="M395.141,-153.5C395.141,-159.5 389.141,-165.5 383.141,-165.5"/>
<polyline fill="none" stroke="#2e3436" stroke-width="1.5" points="383.141,-165.5 349.141,-165.5 "/>
<path fill="none" stroke="#2e3436" stroke-width="1.5" d="M349.141,-165.5C343.141,-165.5 337.141,-159.5 337.141,-153.5"/>
<polyline fill="none" stroke="#2e3436" stroke-width="1.5" points="337.141,-153.5 337.141,-141.5 "/>
<path fill="none" stroke="#2e3436" stroke-width="1.5" d="M337.141,-141.5C337.141,-135.5 343.141,-129.5 349.141,-129.5"/>
<text text-anchor="start" x="345.141" y="-145.3" font-family="FreeSans" font-size="8.00" fill="#1c2021">count = 3</text>
</g>
<!-- N30 -->
<g id="node38" class="node"><title>N30</title>
<polygon fill="#ffffff" stroke="#ffffff" stroke-width="1.5" points="479.141,-129.5 509.141,-129.5 521.141,-141.5 521.141,-153.5 509.141,-165.5 479.141,-165.5 467.141,-153.5 467.141,-141.5 479.141,-129.5"/>
<path fill="#ffffff" stroke="#ffffff" stroke-width="1.5" d="M509.141,-129.5C515.141,-129.5 521.141,-135.5 521.141,-141.5"/>
<path fill="#ffffff" stroke="#ffffff" stroke-width="1.5" d="M521.141,-153.5C521.141,-159.5 515.141,-165.5 509.141,-165.5"/>
<path fill="#ffffff" stroke="#ffffff" stroke-width="1.5" d="M479.141,-165.5C473.141,-165.5 467.141,-159.5 467.141,-153.5"/>
<path fill="#ffffff" stroke="#ffffff" stroke-width="1.5" d="M467.141,-141.5C467.141,-135.5 473.141,-129.5 479.141,-129.5"/>
<polyline fill="none" stroke="#2e3436" stroke-width="1.5" points="479.141,-129.5 509.141,-129.5 "/>
<path fill="none" stroke="#2e3436" stroke-width="1.5" d="M509.141,-129.5C515.141,-129.5 521.141,-135.5 521.141,-141.5"/>
<polyline fill="none" stroke="#2e3436" stroke-width="1.5" points="521.141,-141.5 521.141,-153.5 "/>
<path fill="none" stroke="#2e3436" stroke-width="1.5" d="M521.141,-153.5C521.141,-159.5 515.141,-165.5 509.141,-165.5"/>
<polyline fill="none" stroke="#2e3436" stroke-width="1.5" points="509.141,-165.5 479.141,-165.5 "/>
<path fill="none" stroke="#2e3436" stroke-width="1.5" d="M479.141,-165.5C473.141,-165.5 467.141,-159.5 467.141,-153.5"/>
<polyline fill="none" stroke="#2e3436" stroke-width="1.5" points="467.141,-153.5 467.141,-141.5 "/>
<path fill="none" stroke="#2e3436" stroke-width="1.5" d="M467.141,-141.5C467.141,-135.5 473.141,-129.5 479.141,-129.5"/>
<text text-anchor="middle" x="494.141" y="-145.3" font-family="FreeSans" font-size="8.00" fill="#1c2021"> </text>
</g>
<!-- N30&#45;&gt;N31 -->
<g id="edge42" class="edge"><title>N30&#45;&gt;N31</title>
<path fill="none" stroke="#2e3436" stroke-width="2" d="M466.995,-147.5C448.385,-147.5 423.467,-147.5 403.056,-147.5"/>
<polygon fill="#2e3436" stroke="#2e3436" points="395.477,-147.5 402.977,-144.125 399.227,-147 402.977,-147 402.977,-147.5 402.977,-148 399.227,-148 402.976,-150.875 395.477,-147.5 395.477,-147.5"/>
<text text-anchor="middle" x="435.026" y="-139.3" font-family="FreeSans" font-size="8.00" fill="#2e3436">X</text>
</g>
</g>
</svg>
