<?xml version="1.0" encoding="UTF-8" standalone="no"?>
<!DOCTYPE svg PUBLIC "-//W3C//DTD SVG 1.1//EN"
 "http://www.w3.org/Graphics/SVG/1.1/DTD/svg11.dtd">
<!-- Generated by graphviz version 2.26.3 (20100126.1600)
 -->
<!-- Title: g Pages: 1 -->
<svg width="357pt" height="364pt"
 viewBox="0.00 0.00 357.21 364.41" xmlns="http://www.w3.org/2000/svg" xmlns:xlink="http://www.w3.org/1999/xlink">
<g id="graph1" class="graph" transform="scale(1 1) rotate(0) translate(4 360.408)">
<title>g</title>
<polygon fill="white" stroke="white" points="-4,5 -4,-360.408 354.206,-360.408 354.206,5 -4,5"/>
<!-- N17 -->
<g id="node1" class="node"><title>N17</title>
<polygon fill="#ffffff" stroke="#ffffff" stroke-width="1.5" points="95.4485,-18.5 125.448,-18.5 137.448,-30.5 137.448,-42.5 125.448,-54.5 95.4485,-54.5 83.4485,-42.5 83.4485,-30.5 95.4485,-18.5"/>
<path fill="#ffffff" stroke="#ffffff" stroke-width="1.5" d="M125.448,-18.5C131.448,-18.5 137.448,-24.5 137.448,-30.5"/>
<path fill="#ffffff" stroke="#ffffff" stroke-width="1.5" d="M137.448,-42.5C137.448,-48.5 131.448,-54.5 125.448,-54.5"/>
<path fill="#ffffff" stroke="#ffffff" stroke-width="1.5" d="M95.4485,-54.5C89.4485,-54.5 83.4485,-48.5 83.4485,-42.5"/>
<path fill="#ffffff" stroke="#ffffff" stroke-width="1.5" d="M83.4485,-30.5C83.4485,-24.5 89.4485,-18.5 95.4485,-18.5"/>
<polyline fill="none" stroke="#2e3436" stroke-width="1.5" points="95.4485,-18.5 125.448,-18.5 "/>
<path fill="none" stroke="#2e3436" stroke-width="1.5" d="M125.448,-18.5C131.448,-18.5 137.448,-24.5 137.448,-30.5"/>
<polyline fill="none" stroke="#2e3436" stroke-width="1.5" points="137.448,-30.5 137.448,-42.5 "/>
<path fill="none" stroke="#2e3436" stroke-width="1.5" d="M137.448,-42.5C137.448,-48.5 131.448,-54.5 125.448,-54.5"/>
<polyline fill="none" stroke="#2e3436" stroke-width="1.5" points="125.448,-54.5 95.4485,-54.5 "/>
<path fill="none" stroke="#2e3436" stroke-width="1.5" d="M95.4485,-54.5C89.4485,-54.5 83.4485,-48.5 83.4485,-42.5"/>
<polyline fill="none" stroke="#2e3436" stroke-width="1.5" points="83.4485,-42.5 83.4485,-30.5 "/>
<path fill="none" stroke="#2e3436" stroke-width="1.5" d="M83.4485,-30.5C83.4485,-24.5 89.4485,-18.5 95.4485,-18.5"/>
<text text-anchor="middle" x="110.448" y="-34.3" font-family="FreeSans" font-size="8.00" fill="#1c2021"> </text>
</g>
<!-- N18 -->
<g id="node3" class="node"><title>N18</title>
<polygon fill="#ffffff" stroke="#ffffff" stroke-width="1.5" points="150.367,-46.4996 180.367,-46.4996 192.367,-58.4996 192.367,-70.4996 180.367,-82.4996 150.367,-82.4996 138.367,-70.4996 138.367,-58.4996 150.367,-46.4996"/>
<path fill="#ffffff" stroke="#ffffff" stroke-width="1.5" d="M180.367,-46.4996C186.367,-46.4996 192.367,-52.4996 192.367,-58.4996"/>
<path fill="#ffffff" stroke="#ffffff" stroke-width="1.5" d="M192.367,-70.4996C192.367,-76.4996 186.367,-82.4996 180.367,-82.4996"/>
<path fill="#ffffff" stroke="#ffffff" stroke-width="1.5" d="M150.367,-82.4996C144.367,-82.4996 138.367,-76.4996 138.367,-70.4996"/>
<path fill="#ffffff" stroke="#ffffff" stroke-width="1.5" d="M138.367,-58.4996C138.367,-52.4996 144.367,-46.4996 150.367,-46.4996"/>
<polyline fill="none" stroke="#2e3436" stroke-width="1.5" points="150.367,-46.4996 180.367,-46.4996 "/>
<path fill="none" stroke="#2e3436" stroke-width="1.5" d="M180.367,-46.4996C186.367,-46.4996 192.367,-52.4996 192.367,-58.4996"/>
<polyline fill="none" stroke="#2e3436" stroke-width="1.5" points="192.367,-58.4996 192.367,-70.4996 "/>
<path fill="none" stroke="#2e3436" stroke-width="1.5" d="M192.367,-70.4996C192.367,-76.4996 186.367,-82.4996 180.367,-82.4996"/>
<polyline fill="none" stroke="#2e3436" stroke-width="1.5" points="180.367,-82.4996 150.367,-82.4996 "/>
<path fill="none" stroke="#2e3436" stroke-width="1.5" d="M150.367,-82.4996C144.367,-82.4996 138.367,-76.4996 138.367,-70.4996"/>
<polyline fill="none" stroke="#2e3436" stroke-width="1.5" points="138.367,-70.4996 138.367,-58.4996 "/>
<path fill="none" stroke="#2e3436" stroke-width="1.5" d="M138.367,-58.4996C138.367,-52.4996 144.367,-46.4996 150.367,-46.4996"/>
<text text-anchor="middle" x="165.367" y="-62.2996" font-family="FreeSans" font-size="8.00" fill="#1c2021"> </text>
</g>
<!-- N17&#45;&gt;N18 -->
<g id="edge2" class="edge"><title>N17&#45;&gt;N18</title>
<path fill="none" stroke="#2e3436" stroke-width="2" d="M137.586,-50.3358C137.694,-50.3909 137.802,-50.446 137.91,-50.5011"/>
<polygon fill="#2e3436" stroke="#2e3436" points="138.234,-50.6664 130.019,-50.2656 134.666,-49.408 131.325,-47.7042 131.552,-47.2587 131.78,-46.8132 135.121,-48.5171 133.086,-44.2518 138.234,-50.6664 138.234,-50.6664"/>
<text text-anchor="middle" x="137.748" y="-42.2184" font-family="FreeSans" font-size="8.00" fill="#2e3436">X</text>
</g>
<!-- N16 -->
<g id="node4" class="node"><title>N16</title>
<polygon fill="#ffffff" stroke="#ffffff" stroke-width="1.5" points="88.9129,-98.9245 118.913,-98.9245 130.913,-110.924 130.913,-122.924 118.913,-134.924 88.9129,-134.924 76.9129,-122.924 76.9129,-110.924 88.9129,-98.9245"/>
<path fill="#ffffff" stroke="#ffffff" stroke-width="1.5" d="M118.913,-98.9245C124.913,-98.9245 130.913,-104.924 130.913,-110.924"/>
<path fill="#ffffff" stroke="#ffffff" stroke-width="1.5" d="M130.913,-122.924C130.913,-128.924 124.913,-134.924 118.913,-134.924"/>
<path fill="#ffffff" stroke="#ffffff" stroke-width="1.5" d="M88.9129,-134.924C82.9129,-134.924 76.9129,-128.924 76.9129,-122.924"/>
<path fill="#ffffff" stroke="#ffffff" stroke-width="1.5" d="M76.9129,-110.924C76.9129,-104.924 82.9129,-98.9245 88.9129,-98.9245"/>
<polyline fill="none" stroke="#2e3436" stroke-width="1.5" points="88.9129,-98.9245 118.913,-98.9245 "/>
<path fill="none" stroke="#2e3436" stroke-width="1.5" d="M118.913,-98.9245C124.913,-98.9245 130.913,-104.924 130.913,-110.924"/>
<polyline fill="none" stroke="#2e3436" stroke-width="1.5" points="130.913,-110.924 130.913,-122.924 "/>
<path fill="none" stroke="#2e3436" stroke-width="1.5" d="M130.913,-122.924C130.913,-128.924 124.913,-134.924 118.913,-134.924"/>
<polyline fill="none" stroke="#2e3436" stroke-width="1.5" points="118.913,-134.924 88.9129,-134.924 "/>
<path fill="none" stroke="#2e3436" stroke-width="1.5" d="M88.9129,-134.924C82.9129,-134.924 76.9129,-128.924 76.9129,-122.924"/>
<polyline fill="none" stroke="#2e3436" stroke-width="1.5" points="76.9129,-122.924 76.9129,-110.924 "/>
<path fill="none" stroke="#2e3436" stroke-width="1.5" d="M76.9129,-110.924C76.9129,-104.924 82.9129,-98.9245 88.9129,-98.9245"/>
<text text-anchor="middle" x="103.913" y="-114.724" font-family="FreeSans" font-size="8.00" fill="#1c2021"> </text>
</g>
<!-- N16&#45;&gt;N17 -->
<g id="edge4" class="edge"><title>N16&#45;&gt;N17</title>
<path fill="none" stroke="#2e3436" stroke-width="2" d="M105.396,-98.6749C106.265,-87.9808 107.377,-74.2973 108.336,-62.4911"/>
<polygon fill="#2e3436" stroke="#2e3436" points="108.971,-54.6773 111.728,-62.4261 109.166,-58.4555 108.862,-62.1932 108.364,-62.1527 107.865,-62.1122 108.169,-58.3745 105,-61.8793 108.971,-54.6773 108.971,-54.6773"/>
<text text-anchor="middle" x="110.866" y="-78.383" font-family="FreeSans" font-size="8.00" fill="#2e3436">X</text>
</g>
<!-- N16&#45;&gt;N18 -->
<g id="edge6" class="edge"><title>N16&#45;&gt;N18</title>
<path fill="none" stroke="#2e3436" stroke-width="2" d="M125.062,-98.8828C129.263,-95.299 133.729,-91.4887 138.101,-87.7593"/>
<polygon fill="#2e3436" stroke="#2e3436" points="143.97,-82.7525 140.455,-90.1877 141.442,-85.5667 138.589,-88.0005 138.264,-87.6201 137.94,-87.2397 140.793,-84.8059 136.074,-85.0524 143.97,-82.7525 143.97,-82.7525"/>
<text text-anchor="middle" x="127.581" y="-86.121" font-family="FreeSans" font-size="8.00" fill="#2e3436">X</text>
</g>
<!-- N19 -->
<g id="node8" class="node"><title>N19</title>
<polygon fill="#ffffff" stroke="#ffffff" stroke-width="1.5" points="102.899,-178.352 132.899,-178.352 144.899,-190.352 144.899,-202.352 132.899,-214.352 102.899,-214.352 90.8988,-202.352 90.8988,-190.352 102.899,-178.352"/>
<path fill="#ffffff" stroke="#ffffff" stroke-width="1.5" d="M132.899,-178.352C138.899,-178.352 144.899,-184.352 144.899,-190.352"/>
<path fill="#ffffff" stroke="#ffffff" stroke-width="1.5" d="M144.899,-202.352C144.899,-208.352 138.899,-214.352 132.899,-214.352"/>
<path fill="#ffffff" stroke="#ffffff" stroke-width="1.5" d="M102.899,-214.352C96.8988,-214.352 90.8988,-208.352 90.8988,-202.352"/>
<path fill="#ffffff" stroke="#ffffff" stroke-width="1.5" d="M90.8988,-190.352C90.8988,-184.352 96.8988,-178.352 102.899,-178.352"/>
<polyline fill="none" stroke="#2e3436" stroke-width="1.5" points="102.899,-178.352 132.899,-178.352 "/>
<path fill="none" stroke="#2e3436" stroke-width="1.5" d="M132.899,-178.352C138.899,-178.352 144.899,-184.352 144.899,-190.352"/>
<polyline fill="none" stroke="#2e3436" stroke-width="1.5" points="144.899,-190.352 144.899,-202.352 "/>
<path fill="none" stroke="#2e3436" stroke-width="1.5" d="M144.899,-202.352C144.899,-208.352 138.899,-214.352 132.899,-214.352"/>
<polyline fill="none" stroke="#2e3436" stroke-width="1.5" points="132.899,-214.352 102.899,-214.352 "/>
<path fill="none" stroke="#2e3436" stroke-width="1.5" d="M102.899,-214.352C96.8988,-214.352 90.8988,-208.352 90.8988,-202.352"/>
<polyline fill="none" stroke="#2e3436" stroke-width="1.5" points="90.8988,-202.352 90.8988,-190.352 "/>
<path fill="none" stroke="#2e3436" stroke-width="1.5" d="M90.8988,-190.352C90.8988,-184.352 96.8988,-178.352 102.899,-178.352"/>
<text text-anchor="middle" x="117.899" y="-194.152" font-family="FreeSans" font-size="8.00" fill="#1c2021"> </text>
</g>
<!-- N16&#45;&gt;N19 -->
<g id="edge8" class="edge"><title>N16&#45;&gt;N19</title>
<path fill="none" stroke="#2e3436" stroke-width="2" d="M107.087,-134.948C108.933,-145.435 111.292,-158.833 113.335,-170.437"/>
<polygon fill="#2e3436" stroke="#2e3436" points="114.689,-178.125 110.065,-171.324 113.547,-174.519 112.896,-170.826 113.389,-170.739 113.881,-170.652 114.531,-174.345 116.712,-170.153 114.689,-178.125 114.689,-178.125"/>
<text text-anchor="middle" x="114.211" y="-150.492" font-family="FreeSans" font-size="8.00" fill="#2e3436">X</text>
</g>
<!-- N20 -->
<g id="node10" class="node"><title>N20</title>
<polygon fill="#ffffff" stroke="#ffffff" stroke-width="1.5" points="154.969,-145.251 184.969,-145.251 196.969,-157.251 196.969,-169.251 184.969,-181.251 154.969,-181.251 142.969,-169.251 142.969,-157.251 154.969,-145.251"/>
<path fill="#ffffff" stroke="#ffffff" stroke-width="1.5" d="M184.969,-145.251C190.969,-145.251 196.969,-151.251 196.969,-157.251"/>
<path fill="#ffffff" stroke="#ffffff" stroke-width="1.5" d="M196.969,-169.251C196.969,-175.251 190.969,-181.251 184.969,-181.251"/>
<path fill="#ffffff" stroke="#ffffff" stroke-width="1.5" d="M154.969,-181.251C148.969,-181.251 142.969,-175.251 142.969,-169.251"/>
<path fill="#ffffff" stroke="#ffffff" stroke-width="1.5" d="M142.969,-157.251C142.969,-151.251 148.969,-145.251 154.969,-145.251"/>
<polyline fill="none" stroke="#2e3436" stroke-width="1.5" points="154.969,-145.251 184.969,-145.251 "/>
<path fill="none" stroke="#2e3436" stroke-width="1.5" d="M184.969,-145.251C190.969,-145.251 196.969,-151.251 196.969,-157.251"/>
<polyline fill="none" stroke="#2e3436" stroke-width="1.5" points="196.969,-157.251 196.969,-169.251 "/>
<path fill="none" stroke="#2e3436" stroke-width="1.5" d="M196.969,-169.251C196.969,-175.251 190.969,-181.251 184.969,-181.251"/>
<polyline fill="none" stroke="#2e3436" stroke-width="1.5" points="184.969,-181.251 154.969,-181.251 "/>
<path fill="none" stroke="#2e3436" stroke-width="1.5" d="M154.969,-181.251C148.969,-181.251 142.969,-175.251 142.969,-169.251"/>
<polyline fill="none" stroke="#2e3436" stroke-width="1.5" points="142.969,-169.251 142.969,-157.251 "/>
<path fill="none" stroke="#2e3436" stroke-width="1.5" d="M142.969,-157.251C142.969,-151.251 148.969,-145.251 154.969,-145.251"/>
<text text-anchor="middle" x="169.969" y="-161.051" font-family="FreeSans" font-size="8.00" fill="#1c2021"> </text>
</g>
<!-- N16&#45;&gt;N20 -->
<g id="edge10" class="edge"><title>N16&#45;&gt;N20</title>
<path fill="none" stroke="#2e3436" stroke-width="2" d="M129.641,-134.968C132.331,-136.855 135.089,-138.789 137.838,-140.717"/>
<polygon fill="#2e3436" stroke="#2e3436" points="144.203,-145.181 136.124,-143.637 140.845,-143.437 137.775,-141.283 138.062,-140.874 138.349,-140.465 141.42,-142.618 140,-138.111 144.203,-145.181 144.203,-145.181"/>
<text text-anchor="middle" x="130.74" y="-141.643" font-family="FreeSans" font-size="8.00" fill="#2e3436">X</text>
</g>
<!-- N21 -->
<g id="node12" class="node"><title>N21</title>
<polygon fill="#ffffff" stroke="#ffffff" stroke-width="1.5" points="15.5946,-132.89 45.5946,-132.89 57.5946,-144.89 57.5946,-156.89 45.5946,-168.89 15.5946,-168.89 3.59455,-156.89 3.59455,-144.89 15.5946,-132.89"/>
<path fill="#ffffff" stroke="#ffffff" stroke-width="1.5" d="M45.5946,-132.89C51.5946,-132.89 57.5946,-138.89 57.5946,-144.89"/>
<path fill="#ffffff" stroke="#ffffff" stroke-width="1.5" d="M57.5946,-156.89C57.5946,-162.89 51.5946,-168.89 45.5946,-168.89"/>
<path fill="#ffffff" stroke="#ffffff" stroke-width="1.5" d="M15.5946,-168.89C9.59455,-168.89 3.59455,-162.89 3.59455,-156.89"/>
<path fill="#ffffff" stroke="#ffffff" stroke-width="1.5" d="M3.59455,-144.89C3.59455,-138.89 9.59455,-132.89 15.5946,-132.89"/>
<polyline fill="none" stroke="#2e3436" stroke-width="1.5" points="15.5946,-132.89 45.5946,-132.89 "/>
<path fill="none" stroke="#2e3436" stroke-width="1.5" d="M45.5946,-132.89C51.5946,-132.89 57.5946,-138.89 57.5946,-144.89"/>
<polyline fill="none" stroke="#2e3436" stroke-width="1.5" points="57.5946,-144.89 57.5946,-156.89 "/>
<path fill="none" stroke="#2e3436" stroke-width="1.5" d="M57.5946,-156.89C57.5946,-162.89 51.5946,-168.89 45.5946,-168.89"/>
<polyline fill="none" stroke="#2e3436" stroke-width="1.5" points="45.5946,-168.89 15.5946,-168.89 "/>
<path fill="none" stroke="#2e3436" stroke-width="1.5" d="M15.5946,-168.89C9.59455,-168.89 3.59455,-162.89 3.59455,-156.89"/>
<polyline fill="none" stroke="#2e3436" stroke-width="1.5" points="3.59455,-156.89 3.59455,-144.89 "/>
<path fill="none" stroke="#2e3436" stroke-width="1.5" d="M3.59455,-144.89C3.59455,-138.89 9.59455,-132.89 15.5946,-132.89"/>
<text text-anchor="middle" x="30.5946" y="-148.69" font-family="FreeSans" font-size="8.00" fill="#1c2021"> </text>
</g>
<!-- N16&#45;&gt;N21 -->
<g id="edge12" class="edge"><title>N16&#45;&gt;N21</title>
<path fill="none" stroke="#2e3436" stroke-width="2" d="M76.6119,-129.572C72.7441,-131.364 68.7273,-133.225 64.75,-135.067"/>
<polygon fill="#2e3436" stroke="#2e3436" points="57.6743,-138.345 63.0608,-132.13 60.8667,-136.315 64.2693,-134.739 64.4795,-135.193 64.6897,-135.646 61.2871,-137.223 65.8982,-138.255 57.6743,-138.345 57.6743,-138.345"/>
<text text-anchor="middle" x="72.681" y="-136.12" font-family="FreeSans" font-size="8.00" fill="#2e3436">X</text>
</g>
<!-- N22 -->
<g id="node14" class="node"><title>N22</title>
<polygon fill="#ffffff" stroke="#ffffff" stroke-width="1.5" points="13,-71.3426 43,-71.3426 55,-83.3426 55,-95.3426 43,-107.343 13,-107.343 1,-95.3426 1,-83.3426 13,-71.3426"/>
<path fill="#ffffff" stroke="#ffffff" stroke-width="1.5" d="M43,-71.3426C49,-71.3426 55,-77.3426 55,-83.3426"/>
<path fill="#ffffff" stroke="#ffffff" stroke-width="1.5" d="M55,-95.3426C55,-101.343 49,-107.343 43,-107.343"/>
<path fill="#ffffff" stroke="#ffffff" stroke-width="1.5" d="M13,-107.343C7,-107.343 1,-101.343 1,-95.3426"/>
<path fill="#ffffff" stroke="#ffffff" stroke-width="1.5" d="M1,-83.3426C1,-77.3426 7,-71.3426 13,-71.3426"/>
<polyline fill="none" stroke="#2e3436" stroke-width="1.5" points="13,-71.3426 43,-71.3426 "/>
<path fill="none" stroke="#2e3436" stroke-width="1.5" d="M43,-71.3426C49,-71.3426 55,-77.3426 55,-83.3426"/>
<polyline fill="none" stroke="#2e3436" stroke-width="1.5" points="55,-83.3426 55,-95.3426 "/>
<path fill="none" stroke="#2e3436" stroke-width="1.5" d="M55,-95.3426C55,-101.343 49,-107.343 43,-107.343"/>
<polyline fill="none" stroke="#2e3436" stroke-width="1.5" points="43,-107.343 13,-107.343 "/>
<path fill="none" stroke="#2e3436" stroke-width="1.5" d="M13,-107.343C7,-107.343 1,-101.343 1,-95.3426"/>
<polyline fill="none" stroke="#2e3436" stroke-width="1.5" points="1,-95.3426 1,-83.3426 "/>
<path fill="none" stroke="#2e3436" stroke-width="1.5" d="M1,-83.3426C1,-77.3426 7,-71.3426 13,-71.3426"/>
<text text-anchor="middle" x="28" y="-87.1426" font-family="FreeSans" font-size="8.00" fill="#1c2021"> </text>
</g>
<!-- N16&#45;&gt;N22 -->
<g id="edge14" class="edge"><title>N16&#45;&gt;N22</title>
<path fill="none" stroke="#2e3436" stroke-width="2" d="M76.5066,-106.967C71.9359,-105.306 67.1434,-103.565 62.4243,-101.85"/>
<polygon fill="#2e3436" stroke="#2e3436" points="55.1116,-99.1932 63.3133,-98.5823 58.8069,-100.004 62.3315,-101.284 62.1607,-101.754 61.99,-102.224 58.4654,-100.944 61.0081,-104.927 55.1116,-99.1932 55.1116,-99.1932"/>
<text text-anchor="middle" x="71.4655" y="-96.2085" font-family="FreeSans" font-size="8.00" fill="#2e3436">X</text>
</g>
<!-- N19&#45;&gt;N20 -->
<g id="edge16" class="edge"><title>N19&#45;&gt;N20</title>
<path fill="none" stroke="#2e3436" stroke-width="2" d="M145.154,-179.026C145.203,-178.995 145.253,-178.964 145.302,-178.932"/>
<polygon fill="#2e3436" stroke="#2e3436" points="145.449,-178.839 140.931,-185.713 142.553,-181.273 139.388,-183.286 139.119,-182.864 138.851,-182.442 142.016,-180.429 137.308,-180.016 145.449,-178.839 145.449,-178.839"/>
<text text-anchor="middle" x="145.228" y="-170.779" font-family="FreeSans" font-size="8.00" fill="#2e3436">X</text>
</g>
<!-- N21&#45;&gt;N22 -->
<g id="edge18" class="edge"><title>N21&#45;&gt;N22</title>
<path fill="none" stroke="#2e3436" stroke-width="2" d="M29.8301,-132.757C29.5999,-127.296 29.3426,-121.193 29.0954,-115.327"/>
<polygon fill="#2e3436" stroke="#2e3436" points="28.7679,-107.559 32.4559,-114.91 29.4255,-111.285 29.5835,-115.031 29.0839,-115.052 28.5843,-115.074 28.4264,-111.327 25.7119,-115.195 28.7679,-107.559 28.7679,-107.559"/>
<text text-anchor="middle" x="33.4628" y="-121.842" font-family="FreeSans" font-size="8.00" fill="#2e3436">X</text>
</g>
<!-- N23 -->
<g id="node17" class="node"><title>N23</title>
<polygon fill="#ffffff" stroke="#ffffff" stroke-width="1.5" points="217,-216.434 247,-216.434 259,-228.434 259,-240.434 247,-252.434 217,-252.434 205,-240.434 205,-228.434 217,-216.434"/>
<path fill="#ffffff" stroke="#ffffff" stroke-width="1.5" d="M247,-216.434C253,-216.434 259,-222.434 259,-228.434"/>
<path fill="#ffffff" stroke="#ffffff" stroke-width="1.5" d="M259,-240.434C259,-246.434 253,-252.434 247,-252.434"/>
<path fill="#ffffff" stroke="#ffffff" stroke-width="1.5" d="M217,-252.434C211,-252.434 205,-246.434 205,-240.434"/>
<path fill="#ffffff" stroke="#ffffff" stroke-width="1.5" d="M205,-228.434C205,-222.434 211,-216.434 217,-216.434"/>
<polyline fill="none" stroke="#2e3436" stroke-width="1.5" points="217,-216.434 247,-216.434 "/>
<path fill="none" stroke="#2e3436" stroke-width="1.5" d="M247,-216.434C253,-216.434 259,-222.434 259,-228.434"/>
<polyline fill="none" stroke="#2e3436" stroke-width="1.5" points="259,-228.434 259,-240.434 "/>
<path fill="none" stroke="#2e3436" stroke-width="1.5" d="M259,-240.434C259,-246.434 253,-252.434 247,-252.434"/>
<polyline fill="none" stroke="#2e3436" stroke-width="1.5" points="247,-252.434 217,-252.434 "/>
<path fill="none" stroke="#2e3436" stroke-width="1.5" d="M217,-252.434C211,-252.434 205,-246.434 205,-240.434"/>
<polyline fill="none" stroke="#2e3436" stroke-width="1.5" points="205,-240.434 205,-228.434 "/>
<path fill="none" stroke="#2e3436" stroke-width="1.5" d="M205,-228.434C205,-222.434 211,-216.434 217,-216.434"/>
<text text-anchor="middle" x="232" y="-232.234" font-family="FreeSans" font-size="8.00" fill="#1c2021"> </text>
</g>
<!-- N25 -->
<g id="node19" class="node"><title>N25</title>
<polygon fill="#ffffff" stroke="#ffffff" stroke-width="1.5" points="289.206,-216.908 319.206,-216.908 331.206,-228.908 331.206,-240.908 319.206,-252.908 289.206,-252.908 277.206,-240.908 277.206,-228.908 289.206,-216.908"/>
<path fill="#ffffff" stroke="#ffffff" stroke-width="1.5" d="M319.206,-216.908C325.206,-216.908 331.206,-222.908 331.206,-228.908"/>
<path fill="#ffffff" stroke="#ffffff" stroke-width="1.5" d="M331.206,-240.908C331.206,-246.908 325.206,-252.908 319.206,-252.908"/>
<path fill="#ffffff" stroke="#ffffff" stroke-width="1.5" d="M289.206,-252.908C283.206,-252.908 277.206,-246.908 277.206,-240.908"/>
<path fill="#ffffff" stroke="#ffffff" stroke-width="1.5" d="M277.206,-228.908C277.206,-222.908 283.206,-216.908 289.206,-216.908"/>
<polyline fill="none" stroke="#2e3436" stroke-width="1.5" points="289.206,-216.908 319.206,-216.908 "/>
<path fill="none" stroke="#2e3436" stroke-width="1.5" d="M319.206,-216.908C325.206,-216.908 331.206,-222.908 331.206,-228.908"/>
<polyline fill="none" stroke="#2e3436" stroke-width="1.5" points="331.206,-228.908 331.206,-240.908 "/>
<path fill="none" stroke="#2e3436" stroke-width="1.5" d="M331.206,-240.908C331.206,-246.908 325.206,-252.908 319.206,-252.908"/>
<polyline fill="none" stroke="#2e3436" stroke-width="1.5" points="319.206,-252.908 289.206,-252.908 "/>
<path fill="none" stroke="#2e3436" stroke-width="1.5" d="M289.206,-252.908C283.206,-252.908 277.206,-246.908 277.206,-240.908"/>
<polyline fill="none" stroke="#2e3436" stroke-width="1.5" points="277.206,-240.908 277.206,-228.908 "/>
<path fill="none" stroke="#2e3436" stroke-width="1.5" d="M277.206,-228.908C277.206,-222.908 283.206,-216.908 289.206,-216.908"/>
<text text-anchor="middle" x="304.206" y="-232.708" font-family="FreeSans" font-size="8.00" fill="#1c2021"> </text>
</g>
<!-- N23&#45;&gt;N25 -->
<g id="edge20" class="edge"><title>N23&#45;&gt;N25</title>
<path fill="none" stroke="#2e3436" stroke-width="2" d="M259.298,-234.613C262.533,-234.634 265.868,-234.656 269.191,-234.678"/>
<polygon fill="#2e3436" stroke="#2e3436" points="276.87,-234.728 269.348,-238.054 273.116,-235.204 269.367,-235.179 269.37,-234.679 269.373,-234.179 273.123,-234.204 269.392,-231.304 276.87,-234.728 276.87,-234.728"/>
<text text-anchor="middle" x="264.245" y="-226.445" font-family="FreeSans" font-size="8.00" fill="#2e3436">X</text>
</g>
<!-- N24 -->
<g id="node21" class="node"><title>N24</title>
<polygon fill="#ffffff" stroke="#ffffff" stroke-width="1.5" points="253.592,-154.5 283.592,-154.5 295.592,-166.5 295.592,-178.5 283.592,-190.5 253.592,-190.5 241.592,-178.5 241.592,-166.5 253.592,-154.5"/>
<path fill="#ffffff" stroke="#ffffff" stroke-width="1.5" d="M283.592,-154.5C289.592,-154.5 295.592,-160.5 295.592,-166.5"/>
<path fill="#ffffff" stroke="#ffffff" stroke-width="1.5" d="M295.592,-178.5C295.592,-184.5 289.592,-190.5 283.592,-190.5"/>
<path fill="#ffffff" stroke="#ffffff" stroke-width="1.5" d="M253.592,-190.5C247.592,-190.5 241.592,-184.5 241.592,-178.5"/>
<path fill="#ffffff" stroke="#ffffff" stroke-width="1.5" d="M241.592,-166.5C241.592,-160.5 247.592,-154.5 253.592,-154.5"/>
<polyline fill="none" stroke="#2e3436" stroke-width="1.5" points="253.592,-154.5 283.592,-154.5 "/>
<path fill="none" stroke="#2e3436" stroke-width="1.5" d="M283.592,-154.5C289.592,-154.5 295.592,-160.5 295.592,-166.5"/>
<polyline fill="none" stroke="#2e3436" stroke-width="1.5" points="295.592,-166.5 295.592,-178.5 "/>
<path fill="none" stroke="#2e3436" stroke-width="1.5" d="M295.592,-178.5C295.592,-184.5 289.592,-190.5 283.592,-190.5"/>
<polyline fill="none" stroke="#2e3436" stroke-width="1.5" points="283.592,-190.5 253.592,-190.5 "/>
<path fill="none" stroke="#2e3436" stroke-width="1.5" d="M253.592,-190.5C247.592,-190.5 241.592,-184.5 241.592,-178.5"/>
<polyline fill="none" stroke="#2e3436" stroke-width="1.5" points="241.592,-178.5 241.592,-166.5 "/>
<path fill="none" stroke="#2e3436" stroke-width="1.5" d="M241.592,-166.5C241.592,-160.5 247.592,-154.5 253.592,-154.5"/>
<text text-anchor="middle" x="268.592" y="-170.3" font-family="FreeSans" font-size="8.00" fill="#1c2021"> </text>
</g>
<!-- N23&#45;&gt;N24 -->
<g id="edge22" class="edge"><title>N23&#45;&gt;N24</title>
<path fill="none" stroke="#2e3436" stroke-width="2" d="M242.781,-216.187C246.249,-210.317 250.153,-203.709 253.855,-197.444"/>
<polygon fill="#2e3436" stroke="#2e3436" points="257.762,-190.831 256.852,-199.005 256.285,-194.314 254.377,-197.542 253.947,-197.288 253.516,-197.034 255.424,-193.805 251.041,-195.571 257.762,-190.831 257.762,-190.831"/>
<text text-anchor="middle" x="253.318" y="-207.615" font-family="FreeSans" font-size="8.00" fill="#2e3436">X</text>
</g>
<!-- N25&#45;&gt;N24 -->
<g id="edge24" class="edge"><title>N25&#45;&gt;N24</title>
<path fill="none" stroke="#2e3436" stroke-width="2" d="M293.905,-216.857C290.466,-210.829 286.568,-204 282.881,-197.539"/>
<polygon fill="#2e3436" stroke="#2e3436" points="278.993,-190.727 285.642,-195.568 281.286,-193.736 283.145,-196.993 282.711,-197.24 282.277,-197.488 280.418,-194.231 279.78,-198.913 278.993,-190.727 278.993,-190.727"/>
<text text-anchor="middle" x="283.393" y="-207.998" font-family="FreeSans" font-size="8.00" fill="#2e3436">X</text>
</g>
<!-- N27 -->
<g id="node23" class="node"><title>N27</title>
<polygon fill="#ffffff" stroke="#ffffff" stroke-width="1.5" points="234,-63.4339 264,-63.4339 276,-75.4339 276,-87.4339 264,-99.4339 234,-99.4339 222,-87.4339 222,-75.4339 234,-63.4339"/>
<path fill="#ffffff" stroke="#ffffff" stroke-width="1.5" d="M264,-63.4339C270,-63.4339 276,-69.4339 276,-75.4339"/>
<path fill="#ffffff" stroke="#ffffff" stroke-width="1.5" d="M276,-87.4339C276,-93.4339 270,-99.4339 264,-99.4339"/>
<path fill="#ffffff" stroke="#ffffff" stroke-width="1.5" d="M234,-99.4339C228,-99.4339 222,-93.4339 222,-87.4339"/>
<path fill="#ffffff" stroke="#ffffff" stroke-width="1.5" d="M222,-75.4339C222,-69.4339 228,-63.4339 234,-63.4339"/>
<polyline fill="none" stroke="#2e3436" stroke-width="1.5" points="234,-63.4339 264,-63.4339 "/>
<path fill="none" stroke="#2e3436" stroke-width="1.5" d="M264,-63.4339C270,-63.4339 276,-69.4339 276,-75.4339"/>
<polyline fill="none" stroke="#2e3436" stroke-width="1.5" points="276,-75.4339 276,-87.4339 "/>
<path fill="none" stroke="#2e3436" stroke-width="1.5" d="M276,-87.4339C276,-93.4339 270,-99.4339 264,-99.4339"/>
<polyline fill="none" stroke="#2e3436" stroke-width="1.5" points="264,-99.4339 234,-99.4339 "/>
<path fill="none" stroke="#2e3436" stroke-width="1.5" d="M234,-99.4339C228,-99.4339 222,-93.4339 222,-87.4339"/>
<polyline fill="none" stroke="#2e3436" stroke-width="1.5" points="222,-87.4339 222,-75.4339 "/>
<path fill="none" stroke="#2e3436" stroke-width="1.5" d="M222,-75.4339C222,-69.4339 228,-63.4339 234,-63.4339"/>
<text text-anchor="middle" x="249" y="-79.2339" font-family="FreeSans" font-size="8.00" fill="#1c2021"> </text>
</g>
<!-- N26 -->
<g id="node24" class="node"><title>N26</title>
<polygon fill="#ffffff" stroke="#ffffff" stroke-width="1.5" points="306.206,-63.9077 336.206,-63.9077 348.206,-75.9077 348.206,-87.9077 336.206,-99.9077 306.206,-99.9077 294.206,-87.9077 294.206,-75.9077 306.206,-63.9077"/>
<path fill="#ffffff" stroke="#ffffff" stroke-width="1.5" d="M336.206,-63.9077C342.206,-63.9077 348.206,-69.9077 348.206,-75.9077"/>
<path fill="#ffffff" stroke="#ffffff" stroke-width="1.5" d="M348.206,-87.9077C348.206,-93.9077 342.206,-99.9077 336.206,-99.9077"/>
<path fill="#ffffff" stroke="#ffffff" stroke-width="1.5" d="M306.206,-99.9077C300.206,-99.9077 294.206,-93.9077 294.206,-87.9077"/>
<path fill="#ffffff" stroke="#ffffff" stroke-width="1.5" d="M294.206,-75.9077C294.206,-69.9077 300.206,-63.9077 306.206,-63.9077"/>
<polyline fill="none" stroke="#2e3436" stroke-width="1.5" points="306.206,-63.9077 336.206,-63.9077 "/>
<path fill="none" stroke="#2e3436" stroke-width="1.5" d="M336.206,-63.9077C342.206,-63.9077 348.206,-69.9077 348.206,-75.9077"/>
<polyline fill="none" stroke="#2e3436" stroke-width="1.5" points="348.206,-75.9077 348.206,-87.9077 "/>
<path fill="none" stroke="#2e3436" stroke-width="1.5" d="M348.206,-87.9077C348.206,-93.9077 342.206,-99.9077 336.206,-99.9077"/>
<polyline fill="none" stroke="#2e3436" stroke-width="1.5" points="336.206,-99.9077 306.206,-99.9077 "/>
<path fill="none" stroke="#2e3436" stroke-width="1.5" d="M306.206,-99.9077C300.206,-99.9077 294.206,-93.9077 294.206,-87.9077"/>
<polyline fill="none" stroke="#2e3436" stroke-width="1.5" points="294.206,-87.9077 294.206,-75.9077 "/>
<path fill="none" stroke="#2e3436" stroke-width="1.5" d="M294.206,-75.9077C294.206,-69.9077 300.206,-63.9077 306.206,-63.9077"/>
<text text-anchor="middle" x="321.206" y="-79.7077" font-family="FreeSans" font-size="8.00" fill="#1c2021"> </text>
</g>
<!-- N26&#45;&gt;N27 -->
<g id="edge28" class="edge"><title>N26&#45;&gt;N27</title>
<path fill="none" stroke="#2e3436" stroke-width="2" d="M293.908,-81.7285C290.673,-81.7073 287.338,-81.6854 284.015,-81.6636"/>
<polygon fill="#2e3436" stroke="#2e3436" points="276.337,-81.6132 283.859,-78.2876 280.09,-81.1379 283.84,-81.1626 283.837,-81.6625 283.833,-82.1625 280.083,-82.1379 283.814,-85.0375 276.337,-81.6132 276.337,-81.6132"/>
<text text-anchor="middle" x="288.962" y="-73.4961" font-family="FreeSans" font-size="8.00" fill="#2e3436">X</text>
</g>
<!-- N28 -->
<g id="node26" class="node"><title>N28</title>
<polygon fill="#ffffff" stroke="#ffffff" stroke-width="1.5" points="270.592,-1.5 300.592,-1.5 312.592,-13.5 312.592,-25.5 300.592,-37.5 270.592,-37.5 258.592,-25.5 258.592,-13.5 270.592,-1.5"/>
<path fill="#ffffff" stroke="#ffffff" stroke-width="1.5" d="M300.592,-1.5C306.592,-1.5 312.592,-7.5 312.592,-13.5"/>
<path fill="#ffffff" stroke="#ffffff" stroke-width="1.5" d="M312.592,-25.5C312.592,-31.5 306.592,-37.5 300.592,-37.5"/>
<path fill="#ffffff" stroke="#ffffff" stroke-width="1.5" d="M270.592,-37.5C264.592,-37.5 258.592,-31.5 258.592,-25.5"/>
<path fill="#ffffff" stroke="#ffffff" stroke-width="1.5" d="M258.592,-13.5C258.592,-7.5 264.592,-1.5 270.592,-1.5"/>
<polyline fill="none" stroke="#2e3436" stroke-width="1.5" points="270.592,-1.5 300.592,-1.5 "/>
<path fill="none" stroke="#2e3436" stroke-width="1.5" d="M300.592,-1.5C306.592,-1.5 312.592,-7.5 312.592,-13.5"/>
<polyline fill="none" stroke="#2e3436" stroke-width="1.5" points="312.592,-13.5 312.592,-25.5 "/>
<path fill="none" stroke="#2e3436" stroke-width="1.5" d="M312.592,-25.5C312.592,-31.5 306.592,-37.5 300.592,-37.5"/>
<polyline fill="none" stroke="#2e3436" stroke-width="1.5" points="300.592,-37.5 270.592,-37.5 "/>
<path fill="none" stroke="#2e3436" stroke-width="1.5" d="M270.592,-37.5C264.592,-37.5 258.592,-31.5 258.592,-25.5"/>
<polyline fill="none" stroke="#2e3436" stroke-width="1.5" points="258.592,-25.5 258.592,-13.5 "/>
<path fill="none" stroke="#2e3436" stroke-width="1.5" d="M258.592,-13.5C258.592,-7.5 264.592,-1.5 270.592,-1.5"/>
<text text-anchor="middle" x="285.592" y="-17.3" font-family="FreeSans" font-size="8.00" fill="#1c2021"> </text>
</g>
<!-- N26&#45;&gt;N28 -->
<g id="edge26" class="edge"><title>N26&#45;&gt;N28</title>
<path fill="none" stroke="#2e3436" stroke-width="2" d="M310.905,-63.8568C307.466,-57.8292 303.568,-51.0002 299.881,-44.5386"/>
<polygon fill="#2e3436" stroke="#2e3436" points="295.993,-37.7265 302.642,-42.5677 298.286,-40.7357 300.145,-43.9927 299.711,-44.2405 299.277,-44.4883 297.418,-41.2313 296.78,-45.9133 295.993,-37.7265 295.993,-37.7265"/>
<text text-anchor="middle" x="300.393" y="-54.9977" font-family="FreeSans" font-size="8.00" fill="#2e3436">X</text>
</g>
<!-- N28&#45;&gt;N27 -->
<g id="edge34" class="edge"><title>N28&#45;&gt;N27</title>
<path fill="none" stroke="#2e3436" stroke-width="2" d="M274.811,-37.7472C271.343,-43.6168 267.439,-50.2244 263.738,-56.4898"/>
<polygon fill="#2e3436" stroke="#2e3436" points="259.83,-63.103 260.74,-54.929 261.307,-59.6201 263.215,-56.3915 263.645,-56.6458 264.076,-56.9002 262.168,-60.1288 266.551,-58.3626 259.83,-63.103 259.83,-63.103"/>
<text text-anchor="middle" x="274.274" y="-47.9185" font-family="FreeSans" font-size="8.00" fill="#2e3436">X</text>
</g>
<!-- N29 -->
<g id="node28" class="node"><title>N29</title>
<polygon fill="#ffffff" stroke="#ffffff" stroke-width="1.5" points="98,-318.434 128,-318.434 140,-330.434 140,-342.434 128,-354.434 98,-354.434 86,-342.434 86,-330.434 98,-318.434"/>
<path fill="#ffffff" stroke="#ffffff" stroke-width="1.5" d="M128,-318.434C134,-318.434 140,-324.434 140,-330.434"/>
<path fill="#ffffff" stroke="#ffffff" stroke-width="1.5" d="M140,-342.434C140,-348.434 134,-354.434 128,-354.434"/>
<path fill="#ffffff" stroke="#ffffff" stroke-width="1.5" d="M98,-354.434C92,-354.434 86,-348.434 86,-342.434"/>
<path fill="#ffffff" stroke="#ffffff" stroke-width="1.5" d="M86,-330.434C86,-324.434 92,-318.434 98,-318.434"/>
<polyline fill="none" stroke="#2e3436" stroke-width="1.5" points="98,-318.434 128,-318.434 "/>
<path fill="none" stroke="#2e3436" stroke-width="1.5" d="M128,-318.434C134,-318.434 140,-324.434 140,-330.434"/>
<polyline fill="none" stroke="#2e3436" stroke-width="1.5" points="140,-330.434 140,-342.434 "/>
<path fill="none" stroke="#2e3436" stroke-width="1.5" d="M140,-342.434C140,-348.434 134,-354.434 128,-354.434"/>
<polyline fill="none" stroke="#2e3436" stroke-width="1.5" points="128,-354.434 98,-354.434 "/>
<path fill="none" stroke="#2e3436" stroke-width="1.5" d="M98,-354.434C92,-354.434 86,-348.434 86,-342.434"/>
<polyline fill="none" stroke="#2e3436" stroke-width="1.5" points="86,-342.434 86,-330.434 "/>
<path fill="none" stroke="#2e3436" stroke-width="1.5" d="M86,-330.434C86,-324.434 92,-318.434 98,-318.434"/>
<text text-anchor="middle" x="113" y="-334.234" font-family="FreeSans" font-size="8.00" fill="#1c2021"> </text>
</g>
<!-- N31 -->
<g id="node30" class="node"><title>N31</title>
<polygon fill="#ffffff" stroke="#ffffff" stroke-width="1.5" points="170.206,-318.908 200.206,-318.908 212.206,-330.908 212.206,-342.908 200.206,-354.908 170.206,-354.908 158.206,-342.908 158.206,-330.908 170.206,-318.908"/>
<path fill="#ffffff" stroke="#ffffff" stroke-width="1.5" d="M200.206,-318.908C206.206,-318.908 212.206,-324.908 212.206,-330.908"/>
<path fill="#ffffff" stroke="#ffffff" stroke-width="1.5" d="M212.206,-342.908C212.206,-348.908 206.206,-354.908 200.206,-354.908"/>
<path fill="#ffffff" stroke="#ffffff" stroke-width="1.5" d="M170.206,-354.908C164.206,-354.908 158.206,-348.908 158.206,-342.908"/>
<path fill="#ffffff" stroke="#ffffff" stroke-width="1.5" d="M158.206,-330.908C158.206,-324.908 164.206,-318.908 170.206,-318.908"/>
<polyline fill="none" stroke="#2e3436" stroke-width="1.5" points="170.206,-318.908 200.206,-318.908 "/>
<path fill="none" stroke="#2e3436" stroke-width="1.5" d="M200.206,-318.908C206.206,-318.908 212.206,-324.908 212.206,-330.908"/>
<polyline fill="none" stroke="#2e3436" stroke-width="1.5" points="212.206,-330.908 212.206,-342.908 "/>
<path fill="none" stroke="#2e3436" stroke-width="1.5" d="M212.206,-342.908C212.206,-348.908 206.206,-354.908 200.206,-354.908"/>
<polyline fill="none" stroke="#2e3436" stroke-width="1.5" points="200.206,-354.908 170.206,-354.908 "/>
<path fill="none" stroke="#2e3436" stroke-width="1.5" d="M170.206,-354.908C164.206,-354.908 158.206,-348.908 158.206,-342.908"/>
<polyline fill="none" stroke="#2e3436" stroke-width="1.5" points="158.206,-342.908 158.206,-330.908 "/>
<path fill="none" stroke="#2e3436" stroke-width="1.5" d="M158.206,-330.908C158.206,-324.908 164.206,-318.908 170.206,-318.908"/>
<text text-anchor="middle" x="185.206" y="-334.708" font-family="FreeSans" font-size="8.00" fill="#1c2021"> </text>
</g>
<!-- N29&#45;&gt;N31 -->
<g id="edge30" class="edge"><title>N29&#45;&gt;N31</title>
<path fill="none" stroke="#2e3436" stroke-width="2" d="M140.298,-336.613C143.533,-336.634 146.868,-336.656 150.191,-336.678"/>
<polygon fill="#2e3436" stroke="#2e3436" points="157.87,-336.728 150.348,-340.054 154.116,-337.204 150.367,-337.179 150.37,-336.679 150.373,-336.179 154.123,-336.204 150.392,-333.304 157.87,-336.728 157.87,-336.728"/>
<text text-anchor="middle" x="145.245" y="-328.445" font-family="FreeSans" font-size="8.00" fill="#2e3436">X</text>
</g>
<!-- N30 -->
<g id="node32" class="node"><title>N30</title>
<polygon fill="#ffffff" stroke="#ffffff" stroke-width="1.5" points="134.592,-256.5 164.592,-256.5 176.592,-268.5 176.592,-280.5 164.592,-292.5 134.592,-292.5 122.592,-280.5 122.592,-268.5 134.592,-256.5"/>
<path fill="#ffffff" stroke="#ffffff" stroke-width="1.5" d="M164.592,-256.5C170.592,-256.5 176.592,-262.5 176.592,-268.5"/>
<path fill="#ffffff" stroke="#ffffff" stroke-width="1.5" d="M176.592,-280.5C176.592,-286.5 170.592,-292.5 164.592,-292.5"/>
<path fill="#ffffff" stroke="#ffffff" stroke-width="1.5" d="M134.592,-292.5C128.592,-292.5 122.592,-286.5 122.592,-280.5"/>
<path fill="#ffffff" stroke="#ffffff" stroke-width="1.5" d="M122.592,-268.5C122.592,-262.5 128.592,-256.5 134.592,-256.5"/>
<polyline fill="none" stroke="#2e3436" stroke-width="1.5" points="134.592,-256.5 164.592,-256.5 "/>
<path fill="none" stroke="#2e3436" stroke-width="1.5" d="M164.592,-256.5C170.592,-256.5 176.592,-262.5 176.592,-268.5"/>
<polyline fill="none" stroke="#2e3436" stroke-width="1.5" points="176.592,-268.5 176.592,-280.5 "/>
<path fill="none" stroke="#2e3436" stroke-width="1.5" d="M176.592,-280.5C176.592,-286.5 170.592,-292.5 164.592,-292.5"/>
<polyline fill="none" stroke="#2e3436" stroke-width="1.5" points="164.592,-292.5 134.592,-292.5 "/>
<path fill="none" stroke="#2e3436" stroke-width="1.5" d="M134.592,-292.5C128.592,-292.5 122.592,-286.5 122.592,-280.5"/>
<polyline fill="none" stroke="#2e3436" stroke-width="1.5" points="122.592,-280.5 122.592,-268.5 "/>
<path fill="none" stroke="#2e3436" stroke-width="1.5" d="M122.592,-268.5C122.592,-262.5 128.592,-256.5 134.592,-256.5"/>
<text text-anchor="middle" x="149.592" y="-272.3" font-family="FreeSans" font-size="8.00" fill="#1c2021"> </text>
</g>
<!-- N29&#45;&gt;N30 -->
<g id="edge32" class="edge"><title>N29&#45;&gt;N30</title>
<path fill="none" stroke="#2e3436" stroke-width="2" d="M123.781,-318.187C127.249,-312.317 131.153,-305.709 134.855,-299.444"/>
<polygon fill="#2e3436" stroke="#2e3436" points="138.762,-292.831 137.852,-301.005 137.285,-296.314 135.377,-299.542 134.947,-299.288 134.516,-299.034 136.424,-295.805 132.041,-297.571 138.762,-292.831 138.762,-292.831"/>
<text text-anchor="middle" x="134.318" y="-309.615" font-family="FreeSans" font-size="8.00" fill="#2e3436">X</text>
</g>
<!-- N31&#45;&gt;N30 -->
<g id="edge36" class="edge"><title>N31&#45;&gt;N30</title>
<path fill="none" stroke="#2e3436" stroke-width="2" d="M174.905,-318.857C171.466,-312.829 167.568,-306 163.881,-299.539"/>
<polygon fill="#2e3436" stroke="#2e3436" points="159.993,-292.727 166.642,-297.568 162.286,-295.736 164.145,-298.993 163.711,-299.24 163.277,-299.488 161.418,-296.231 160.78,-300.913 159.993,-292.727 159.993,-292.727"/>
<text text-anchor="middle" x="164.393" y="-309.998" font-family="FreeSans" font-size="8.00" fill="#2e3436">X</text>
</g>
</g>
</svg>
