<?xml version="1.0" encoding="UTF-8" standalone="no"?>
<!DOCTYPE svg PUBLIC "-//W3C//DTD SVG 1.1//EN"
 "http://www.w3.org/Graphics/SVG/1.1/DTD/svg11.dtd">
<!-- Generated by graphviz version 2.26.3 (20100126.1600)
 -->
<!-- Title: g Pages: 1 -->
<svg width="267pt" height="150pt"
 viewBox="0.00 0.00 267.00 150.00" xmlns="http://www.w3.org/2000/svg" xmlns:xlink="http://www.w3.org/1999/xlink">
<g id="graph1" class="graph" transform="scale(1 1) rotate(0) translate(4 146)">
<title>g</title>
<polygon fill="white" stroke="white" points="-4,5 -4,-146 264,-146 264,5 -4,5"/>
<!-- N0 -->
<g id="node1" class="node"><title>N0</title>
<polygon fill="#ffffff" stroke="#ffffff" stroke-width="1.5" points="12,-1 106,-1 118,-13 118,-25 106,-37 12,-37 0,-25 0,-13 12,-1"/>
<path fill="#ffffff" stroke="#ffffff" stroke-width="1.5" d="M106,-1C112,-1 118,-7 118,-13"/>
<path fill="#ffffff" stroke="#ffffff" stroke-width="1.5" d="M118,-25C118,-31 112,-37 106,-37"/>
<path fill="#ffffff" stroke="#ffffff" stroke-width="1.5" d="M12,-37C6,-37 0,-31 0,-25"/>
<path fill="#ffffff" stroke="#ffffff" stroke-width="1.5" d="M0,-13C0,-7 6,-1 12,-1"/>
<polyline fill="none" stroke="#2e3436" stroke-width="1.5" points="12,-1 106,-1 "/>
<path fill="none" stroke="#2e3436" stroke-width="1.5" d="M106,-1C112,-1 118,-7 118,-13"/>
<polyline fill="none" stroke="#2e3436" stroke-width="1.5" points="118,-13 118,-25 "/>
<path fill="none" stroke="#2e3436" stroke-width="1.5" d="M118,-25C118,-31 112,-37 106,-37"/>
<polyline fill="none" stroke="#2e3436" stroke-width="1.5" points="106,-37 12,-37 "/>
<path fill="none" stroke="#2e3436" stroke-width="1.5" d="M12,-37C6,-37 0,-31 0,-25"/>
<polyline fill="none" stroke="#2e3436" stroke-width="1.5" points="0,-25 0,-13 "/>
<path fill="none" stroke="#2e3436" stroke-width="1.5" d="M0,-13C0,-7 6,-1 12,-1"/>
<text text-anchor="start" x="8" y="-21.8" font-family="FreeSans" font-size="8.00" fill="#1c2021">Node[0]name = &#39;Tobias&#39;</text>
<text text-anchor="start" x="8" y="-11.8" font-family="FreeSans" font-size="8.00" fill="#1c2021">age = 25</text>
</g>
<!-- N1 -->
<g id="node2" class="node"><title>N1</title>
<polygon fill="#ffffff" stroke="#ffffff" stroke-width="1.5" points="158.5,-1 247.5,-1 259.5,-13 259.5,-25 247.5,-37 158.5,-37 146.5,-25 146.5,-13 158.5,-1"/>
<path fill="#ffffff" stroke="#ffffff" stroke-width="1.5" d="M247.5,-1C253.5,-1 259.5,-7 259.5,-13"/>
<path fill="#ffffff" stroke="#ffffff" stroke-width="1.5" d="M259.5,-25C259.5,-31 253.5,-37 247.5,-37"/>
<path fill="#ffffff" stroke="#ffffff" stroke-width="1.5" d="M158.5,-37C152.5,-37 146.5,-31 146.5,-25"/>
<path fill="#ffffff" stroke="#ffffff" stroke-width="1.5" d="M146.5,-13C146.5,-7 152.5,-1 158.5,-1"/>
<polyline fill="none" stroke="#2e3436" stroke-width="1.5" points="158.5,-1 247.5,-1 "/>
<path fill="none" stroke="#2e3436" stroke-width="1.5" d="M247.5,-1C253.5,-1 259.5,-7 259.5,-13"/>
<polyline fill="none" stroke="#2e3436" stroke-width="1.5" points="259.5,-13 259.5,-25 "/>
<path fill="none" stroke="#2e3436" stroke-width="1.5" d="M259.5,-25C259.5,-31 253.5,-37 247.5,-37"/>
<polyline fill="none" stroke="#2e3436" stroke-width="1.5" points="247.5,-37 158.5,-37 "/>
<path fill="none" stroke="#2e3436" stroke-width="1.5" d="M158.5,-37C152.5,-37 146.5,-31 146.5,-25"/>
<polyline fill="none" stroke="#2e3436" stroke-width="1.5" points="146.5,-25 146.5,-13 "/>
<path fill="none" stroke="#2e3436" stroke-width="1.5" d="M146.5,-13C146.5,-7 152.5,-1 158.5,-1"/>
<text text-anchor="start" x="154.5" y="-21.8" font-family="FreeSans" font-size="8.00" fill="#1c2021">Node[1]name = &#39;Peter&#39;</text>
<text text-anchor="start" x="154.5" y="-11.8" font-family="FreeSans" font-size="8.00" fill="#1c2021">age = 34</text>
</g>
<!-- N2 -->
<g id="node3" class="node"><title>N2</title>
<polygon fill="#ffffff" stroke="#ffffff" stroke-width="1.5" points="97,-85 165,-85 177,-97 177,-129 165,-141 97,-141 85,-129 85,-97 97,-85"/>
<path fill="#ffffff" stroke="#ffffff" stroke-width="1.5" d="M165,-85C171,-85 177,-91 177,-97"/>
<path fill="#ffffff" stroke="#ffffff" stroke-width="1.5" d="M177,-129C177,-135 171,-141 165,-141"/>
<path fill="#ffffff" stroke="#ffffff" stroke-width="1.5" d="M97,-141C91,-141 85,-135 85,-129"/>
<path fill="#ffffff" stroke="#ffffff" stroke-width="1.5" d="M85,-97C85,-91 91,-85 97,-85"/>
<polyline fill="none" stroke="#2e3436" stroke-width="1.5" points="97,-85 165,-85 "/>
<path fill="none" stroke="#2e3436" stroke-width="1.5" d="M165,-85C171,-85 177,-91 177,-97"/>
<polyline fill="none" stroke="#2e3436" stroke-width="1.5" points="177,-97 177,-129 "/>
<path fill="none" stroke="#2e3436" stroke-width="1.5" d="M177,-129C177,-135 171,-141 165,-141"/>
<polyline fill="none" stroke="#2e3436" stroke-width="1.5" points="165,-141 97,-141 "/>
<path fill="none" stroke="#2e3436" stroke-width="1.5" d="M97,-141C91,-141 85,-135 85,-129"/>
<polyline fill="none" stroke="#2e3436" stroke-width="1.5" points="85,-129 85,-97 "/>
<path fill="none" stroke="#2e3436" stroke-width="1.5" d="M85,-97C85,-91 91,-85 97,-85"/>
<text text-anchor="middle" x="131" y="-129.8" font-family="FreeSans" font-size="8.00" fill="#1c2021">Node[2]: Swedish</text>
<polyline fill="none" stroke="#2e3436" stroke-width="1.5" points="85,-123 177,-123 "/>
<text text-anchor="start" x="93" y="-111.8" font-family="FreeSans" font-size="8.00" fill="#1c2021">name = &#39;Andres&#39;</text>
<text text-anchor="start" x="93" y="-101.8" font-family="FreeSans" font-size="8.00" fill="#1c2021">age = 36</text>
<text text-anchor="start" x="93" y="-91.8" font-family="FreeSans" font-size="8.00" fill="#1c2021">belt = &#39;white&#39;</text>
</g>
<!-- N2&#45;&gt;N0 -->
<g id="edge2" class="edge"><title>N2&#45;&gt;N0</title>
<path fill="none" stroke="#2e3436" stroke-width="2" d="M109.398,-84.7969C99.2169,-71.5054 87.1969,-55.8126 77.4495,-43.0868"/>
<polygon fill="#2e3436" stroke="#2e3436" points="72.865,-37.1015 80.105,-41.0034 75.5423,-39.7745 77.8226,-42.7516 77.4256,-43.0556 77.0287,-43.3597 74.7484,-40.3826 74.7463,-45.1079 72.865,-37.1015 72.865,-37.1015"/>
<text text-anchor="middle" x="110.5" y="-58.8" font-family="FreeSans" font-size="8.00" fill="#2e3436">KNOWS</text>
</g>
<!-- N2&#45;&gt;N1 -->
<g id="edge4" class="edge"><title>N2&#45;&gt;N1</title>
<path fill="none" stroke="#2e3436" stroke-width="2" d="M152.602,-84.7969C162.783,-71.5054 174.803,-55.8126 184.55,-43.0868"/>
<polygon fill="#2e3436" stroke="#2e3436" points="189.135,-37.1015 187.254,-45.1079 187.252,-40.3826 184.971,-43.3597 184.574,-43.0556 184.177,-42.7516 186.458,-39.7745 181.895,-41.0034 189.135,-37.1015 189.135,-37.1015"/>
<text text-anchor="middle" x="188.5" y="-58.8" font-family="FreeSans" font-size="8.00" fill="#2e3436">KNOWS</text>
</g>
</g>
</svg>
