<?xml version="1.0" encoding="UTF-8" standalone="no"?>
<!DOCTYPE svg PUBLIC "-//W3C//DTD SVG 1.1//EN"
 "http://www.w3.org/Graphics/SVG/1.1/DTD/svg11.dtd">
<!-- Generated by graphviz version 2.26.3 (20100126.1600)
 -->
<!-- Title: g Pages: 1 -->
<svg width="410pt" height="318pt"
 viewBox="0.00 0.00 410.21 317.64" xmlns="http://www.w3.org/2000/svg" xmlns:xlink="http://www.w3.org/1999/xlink">
<g id="graph1" class="graph" transform="scale(1 1) rotate(0) translate(4 313.639)">
<title>g</title>
<polygon fill="white" stroke="white" points="-4,5 -4,-313.639 407.21,-313.639 407.21,5 -4,5"/>
<!-- N34 -->
<g id="node1" class="node"><title>N34</title>
<polygon fill="#ffffff" stroke="#ffffff" stroke-width="1.5" points="221,-142.139 251,-142.139 263,-154.139 263,-166.139 251,-178.139 221,-178.139 209,-166.139 209,-154.139 221,-142.139"/>
<path fill="#ffffff" stroke="#ffffff" stroke-width="1.5" d="M251,-142.139C257,-142.139 263,-148.139 263,-154.139"/>
<path fill="#ffffff" stroke="#ffffff" stroke-width="1.5" d="M263,-166.139C263,-172.139 257,-178.139 251,-178.139"/>
<path fill="#ffffff" stroke="#ffffff" stroke-width="1.5" d="M221,-178.139C215,-178.139 209,-172.139 209,-166.139"/>
<path fill="#ffffff" stroke="#ffffff" stroke-width="1.5" d="M209,-154.139C209,-148.139 215,-142.139 221,-142.139"/>
<polyline fill="none" stroke="#2e3436" stroke-width="1.5" points="221,-142.139 251,-142.139 "/>
<path fill="none" stroke="#2e3436" stroke-width="1.5" d="M251,-142.139C257,-142.139 263,-148.139 263,-154.139"/>
<polyline fill="none" stroke="#2e3436" stroke-width="1.5" points="263,-154.139 263,-166.139 "/>
<path fill="none" stroke="#2e3436" stroke-width="1.5" d="M263,-166.139C263,-172.139 257,-178.139 251,-178.139"/>
<polyline fill="none" stroke="#2e3436" stroke-width="1.5" points="251,-178.139 221,-178.139 "/>
<path fill="none" stroke="#2e3436" stroke-width="1.5" d="M221,-178.139C215,-178.139 209,-172.139 209,-166.139"/>
<polyline fill="none" stroke="#2e3436" stroke-width="1.5" points="209,-166.139 209,-154.139 "/>
<path fill="none" stroke="#2e3436" stroke-width="1.5" d="M209,-154.139C209,-148.139 215,-142.139 221,-142.139"/>
<text text-anchor="middle" x="236" y="-157.939" font-family="FreeSans" font-size="8.00" fill="#1c2021"> </text>
</g>
<!-- N35 -->
<g id="node3" class="node"><title>N35</title>
<polygon fill="#ffffff" stroke="#ffffff" stroke-width="1.5" points="290.21,-131.5 324.21,-131.5 336.21,-143.5 336.21,-155.5 324.21,-167.5 290.21,-167.5 278.21,-155.5 278.21,-143.5 290.21,-131.5"/>
<path fill="#ffffff" stroke="#ffffff" stroke-width="1.5" d="M324.21,-131.5C330.21,-131.5 336.21,-137.5 336.21,-143.5"/>
<path fill="#ffffff" stroke="#ffffff" stroke-width="1.5" d="M336.21,-155.5C336.21,-161.5 330.21,-167.5 324.21,-167.5"/>
<path fill="#ffffff" stroke="#ffffff" stroke-width="1.5" d="M290.21,-167.5C284.21,-167.5 278.21,-161.5 278.21,-155.5"/>
<path fill="#ffffff" stroke="#ffffff" stroke-width="1.5" d="M278.21,-143.5C278.21,-137.5 284.21,-131.5 290.21,-131.5"/>
<polyline fill="none" stroke="#2e3436" stroke-width="1.5" points="290.21,-131.5 324.21,-131.5 "/>
<path fill="none" stroke="#2e3436" stroke-width="1.5" d="M324.21,-131.5C330.21,-131.5 336.21,-137.5 336.21,-143.5"/>
<polyline fill="none" stroke="#2e3436" stroke-width="1.5" points="336.21,-143.5 336.21,-155.5 "/>
<path fill="none" stroke="#2e3436" stroke-width="1.5" d="M336.21,-155.5C336.21,-161.5 330.21,-167.5 324.21,-167.5"/>
<polyline fill="none" stroke="#2e3436" stroke-width="1.5" points="324.21,-167.5 290.21,-167.5 "/>
<path fill="none" stroke="#2e3436" stroke-width="1.5" d="M290.21,-167.5C284.21,-167.5 278.21,-161.5 278.21,-155.5"/>
<polyline fill="none" stroke="#2e3436" stroke-width="1.5" points="278.21,-155.5 278.21,-143.5 "/>
<path fill="none" stroke="#2e3436" stroke-width="1.5" d="M278.21,-143.5C278.21,-137.5 284.21,-131.5 290.21,-131.5"/>
<text text-anchor="start" x="286.21" y="-147.3" font-family="FreeSans" font-size="8.00" fill="#1c2021">count = 5</text>
</g>
<!-- N34&#45;&gt;N35 -->
<g id="edge2" class="edge"><title>N34&#45;&gt;N35</title>
<path fill="none" stroke="#2e3436" stroke-width="2" d="M263.328,-156.056C265.76,-155.693 268.246,-155.321 270.738,-154.949"/>
<polygon fill="#2e3436" stroke="#2e3436" points="278.182,-153.837 271.263,-158.283 274.547,-154.886 270.838,-155.44 270.764,-154.945 270.69,-154.451 274.399,-153.897 270.265,-151.607 278.182,-153.837 278.182,-153.837"/>
<text text-anchor="middle" x="267.033" y="-147.303" font-family="FreeSans" font-size="8.00" fill="#2e3436">X</text>
</g>
<!-- N32 -->
<g id="node4" class="node"><title>N32</title>
<polygon fill="#ffffff" stroke="#ffffff" stroke-width="1.5" points="208,-12.1391 238,-12.1391 250,-24.1391 250,-36.1391 238,-48.1391 208,-48.1391 196,-36.1391 196,-24.1391 208,-12.1391"/>
<path fill="#ffffff" stroke="#ffffff" stroke-width="1.5" d="M238,-12.1391C244,-12.1391 250,-18.1391 250,-24.1391"/>
<path fill="#ffffff" stroke="#ffffff" stroke-width="1.5" d="M250,-36.1391C250,-42.1391 244,-48.1391 238,-48.1391"/>
<path fill="#ffffff" stroke="#ffffff" stroke-width="1.5" d="M208,-48.1391C202,-48.1391 196,-42.1391 196,-36.1391"/>
<path fill="#ffffff" stroke="#ffffff" stroke-width="1.5" d="M196,-24.1391C196,-18.1391 202,-12.1391 208,-12.1391"/>
<polyline fill="none" stroke="#2e3436" stroke-width="1.5" points="208,-12.1391 238,-12.1391 "/>
<path fill="none" stroke="#2e3436" stroke-width="1.5" d="M238,-12.1391C244,-12.1391 250,-18.1391 250,-24.1391"/>
<polyline fill="none" stroke="#2e3436" stroke-width="1.5" points="250,-24.1391 250,-36.1391 "/>
<path fill="none" stroke="#2e3436" stroke-width="1.5" d="M250,-36.1391C250,-42.1391 244,-48.1391 238,-48.1391"/>
<polyline fill="none" stroke="#2e3436" stroke-width="1.5" points="238,-48.1391 208,-48.1391 "/>
<path fill="none" stroke="#2e3436" stroke-width="1.5" d="M208,-48.1391C202,-48.1391 196,-42.1391 196,-36.1391"/>
<polyline fill="none" stroke="#2e3436" stroke-width="1.5" points="196,-36.1391 196,-24.1391 "/>
<path fill="none" stroke="#2e3436" stroke-width="1.5" d="M196,-24.1391C196,-18.1391 202,-12.1391 208,-12.1391"/>
<text text-anchor="middle" x="223" y="-27.9391" font-family="FreeSans" font-size="8.00" fill="#1c2021"> </text>
</g>
<!-- N33 -->
<g id="node6" class="node"><title>N33</title>
<polygon fill="#ffffff" stroke="#ffffff" stroke-width="1.5" points="277.21,-1.5 311.21,-1.5 323.21,-13.5 323.21,-25.5 311.21,-37.5 277.21,-37.5 265.21,-25.5 265.21,-13.5 277.21,-1.5"/>
<path fill="#ffffff" stroke="#ffffff" stroke-width="1.5" d="M311.21,-1.5C317.21,-1.5 323.21,-7.5 323.21,-13.5"/>
<path fill="#ffffff" stroke="#ffffff" stroke-width="1.5" d="M323.21,-25.5C323.21,-31.5 317.21,-37.5 311.21,-37.5"/>
<path fill="#ffffff" stroke="#ffffff" stroke-width="1.5" d="M277.21,-37.5C271.21,-37.5 265.21,-31.5 265.21,-25.5"/>
<path fill="#ffffff" stroke="#ffffff" stroke-width="1.5" d="M265.21,-13.5C265.21,-7.5 271.21,-1.5 277.21,-1.5"/>
<polyline fill="none" stroke="#2e3436" stroke-width="1.5" points="277.21,-1.5 311.21,-1.5 "/>
<path fill="none" stroke="#2e3436" stroke-width="1.5" d="M311.21,-1.5C317.21,-1.5 323.21,-7.5 323.21,-13.5"/>
<polyline fill="none" stroke="#2e3436" stroke-width="1.5" points="323.21,-13.5 323.21,-25.5 "/>
<path fill="none" stroke="#2e3436" stroke-width="1.5" d="M323.21,-25.5C323.21,-31.5 317.21,-37.5 311.21,-37.5"/>
<polyline fill="none" stroke="#2e3436" stroke-width="1.5" points="311.21,-37.5 277.21,-37.5 "/>
<path fill="none" stroke="#2e3436" stroke-width="1.5" d="M277.21,-37.5C271.21,-37.5 265.21,-31.5 265.21,-25.5"/>
<polyline fill="none" stroke="#2e3436" stroke-width="1.5" points="265.21,-25.5 265.21,-13.5 "/>
<path fill="none" stroke="#2e3436" stroke-width="1.5" d="M265.21,-13.5C265.21,-7.5 271.21,-1.5 277.21,-1.5"/>
<text text-anchor="start" x="273.21" y="-17.3" font-family="FreeSans" font-size="8.00" fill="#1c2021">count = 4</text>
</g>
<!-- N32&#45;&gt;N33 -->
<g id="edge4" class="edge"><title>N32&#45;&gt;N33</title>
<path fill="none" stroke="#2e3436" stroke-width="2" d="M250.328,-26.0562C252.76,-25.6929 255.246,-25.3214 257.738,-24.9491"/>
<polygon fill="#2e3436" stroke="#2e3436" points="265.182,-23.8369 258.263,-28.2832 261.547,-24.8856 257.838,-25.4398 257.764,-24.9452 257.69,-24.4507 261.399,-23.8966 257.265,-21.6073 265.182,-23.8369 265.182,-23.8369"/>
<text text-anchor="middle" x="254.033" y="-17.3026" font-family="FreeSans" font-size="8.00" fill="#2e3436">X</text>
</g>
<!-- N36 -->
<g id="node7" class="node"><title>N36</title>
<polygon fill="#ffffff" stroke="#ffffff" stroke-width="1.5" points="234,-207.139 264,-207.139 276,-219.139 276,-231.139 264,-243.139 234,-243.139 222,-231.139 222,-219.139 234,-207.139"/>
<path fill="#ffffff" stroke="#ffffff" stroke-width="1.5" d="M264,-207.139C270,-207.139 276,-213.139 276,-219.139"/>
<path fill="#ffffff" stroke="#ffffff" stroke-width="1.5" d="M276,-231.139C276,-237.139 270,-243.139 264,-243.139"/>
<path fill="#ffffff" stroke="#ffffff" stroke-width="1.5" d="M234,-243.139C228,-243.139 222,-237.139 222,-231.139"/>
<path fill="#ffffff" stroke="#ffffff" stroke-width="1.5" d="M222,-219.139C222,-213.139 228,-207.139 234,-207.139"/>
<polyline fill="none" stroke="#2e3436" stroke-width="1.5" points="234,-207.139 264,-207.139 "/>
<path fill="none" stroke="#2e3436" stroke-width="1.5" d="M264,-207.139C270,-207.139 276,-213.139 276,-219.139"/>
<polyline fill="none" stroke="#2e3436" stroke-width="1.5" points="276,-219.139 276,-231.139 "/>
<path fill="none" stroke="#2e3436" stroke-width="1.5" d="M276,-231.139C276,-237.139 270,-243.139 264,-243.139"/>
<polyline fill="none" stroke="#2e3436" stroke-width="1.5" points="264,-243.139 234,-243.139 "/>
<path fill="none" stroke="#2e3436" stroke-width="1.5" d="M234,-243.139C228,-243.139 222,-237.139 222,-231.139"/>
<polyline fill="none" stroke="#2e3436" stroke-width="1.5" points="222,-231.139 222,-219.139 "/>
<path fill="none" stroke="#2e3436" stroke-width="1.5" d="M222,-219.139C222,-213.139 228,-207.139 234,-207.139"/>
<text text-anchor="middle" x="249" y="-222.939" font-family="FreeSans" font-size="8.00" fill="#1c2021"> </text>
</g>
<!-- N37 -->
<g id="node9" class="node"><title>N37</title>
<polygon fill="#ffffff" stroke="#ffffff" stroke-width="1.5" points="303.21,-196.5 337.21,-196.5 349.21,-208.5 349.21,-220.5 337.21,-232.5 303.21,-232.5 291.21,-220.5 291.21,-208.5 303.21,-196.5"/>
<path fill="#ffffff" stroke="#ffffff" stroke-width="1.5" d="M337.21,-196.5C343.21,-196.5 349.21,-202.5 349.21,-208.5"/>
<path fill="#ffffff" stroke="#ffffff" stroke-width="1.5" d="M349.21,-220.5C349.21,-226.5 343.21,-232.5 337.21,-232.5"/>
<path fill="#ffffff" stroke="#ffffff" stroke-width="1.5" d="M303.21,-232.5C297.21,-232.5 291.21,-226.5 291.21,-220.5"/>
<path fill="#ffffff" stroke="#ffffff" stroke-width="1.5" d="M291.21,-208.5C291.21,-202.5 297.21,-196.5 303.21,-196.5"/>
<polyline fill="none" stroke="#2e3436" stroke-width="1.5" points="303.21,-196.5 337.21,-196.5 "/>
<path fill="none" stroke="#2e3436" stroke-width="1.5" d="M337.21,-196.5C343.21,-196.5 349.21,-202.5 349.21,-208.5"/>
<polyline fill="none" stroke="#2e3436" stroke-width="1.5" points="349.21,-208.5 349.21,-220.5 "/>
<path fill="none" stroke="#2e3436" stroke-width="1.5" d="M349.21,-220.5C349.21,-226.5 343.21,-232.5 337.21,-232.5"/>
<polyline fill="none" stroke="#2e3436" stroke-width="1.5" points="337.21,-232.5 303.21,-232.5 "/>
<path fill="none" stroke="#2e3436" stroke-width="1.5" d="M303.21,-232.5C297.21,-232.5 291.21,-226.5 291.21,-220.5"/>
<polyline fill="none" stroke="#2e3436" stroke-width="1.5" points="291.21,-220.5 291.21,-208.5 "/>
<path fill="none" stroke="#2e3436" stroke-width="1.5" d="M291.21,-208.5C291.21,-202.5 297.21,-196.5 303.21,-196.5"/>
<text text-anchor="start" x="299.21" y="-212.3" font-family="FreeSans" font-size="8.00" fill="#1c2021">count = 6</text>
</g>
<!-- N36&#45;&gt;N37 -->
<g id="edge6" class="edge"><title>N36&#45;&gt;N37</title>
<path fill="none" stroke="#2e3436" stroke-width="2" d="M276.328,-221.056C278.76,-220.693 281.246,-220.321 283.738,-219.949"/>
<polygon fill="#2e3436" stroke="#2e3436" points="291.182,-218.837 284.263,-223.283 287.547,-219.886 283.838,-220.44 283.764,-219.945 283.69,-219.451 287.399,-218.897 283.265,-216.607 291.182,-218.837 291.182,-218.837"/>
<text text-anchor="middle" x="280.033" y="-212.303" font-family="FreeSans" font-size="8.00" fill="#2e3436">X</text>
</g>
<!-- N19 -->
<g id="node10" class="node"><title>N19</title>
<polygon fill="#ffffff" stroke="#ffffff" stroke-width="1.5" points="88.8421,-83.6316 118.842,-83.6316 130.842,-95.6316 130.842,-107.632 118.842,-119.632 88.8421,-119.632 76.8421,-107.632 76.8421,-95.6316 88.8421,-83.6316"/>
<path fill="#ffffff" stroke="#ffffff" stroke-width="1.5" d="M118.842,-83.6316C124.842,-83.6316 130.842,-89.6316 130.842,-95.6316"/>
<path fill="#ffffff" stroke="#ffffff" stroke-width="1.5" d="M130.842,-107.632C130.842,-113.632 124.842,-119.632 118.842,-119.632"/>
<path fill="#ffffff" stroke="#ffffff" stroke-width="1.5" d="M88.8421,-119.632C82.8421,-119.632 76.8421,-113.632 76.8421,-107.632"/>
<path fill="#ffffff" stroke="#ffffff" stroke-width="1.5" d="M76.8421,-95.6316C76.8421,-89.6316 82.8421,-83.6316 88.8421,-83.6316"/>
<polyline fill="none" stroke="#2e3436" stroke-width="1.5" points="88.8421,-83.6316 118.842,-83.6316 "/>
<path fill="none" stroke="#2e3436" stroke-width="1.5" d="M118.842,-83.6316C124.842,-83.6316 130.842,-89.6316 130.842,-95.6316"/>
<polyline fill="none" stroke="#2e3436" stroke-width="1.5" points="130.842,-95.6316 130.842,-107.632 "/>
<path fill="none" stroke="#2e3436" stroke-width="1.5" d="M130.842,-107.632C130.842,-113.632 124.842,-119.632 118.842,-119.632"/>
<polyline fill="none" stroke="#2e3436" stroke-width="1.5" points="118.842,-119.632 88.8421,-119.632 "/>
<path fill="none" stroke="#2e3436" stroke-width="1.5" d="M88.8421,-119.632C82.8421,-119.632 76.8421,-113.632 76.8421,-107.632"/>
<polyline fill="none" stroke="#2e3436" stroke-width="1.5" points="76.8421,-107.632 76.8421,-95.6316 "/>
<path fill="none" stroke="#2e3436" stroke-width="1.5" d="M76.8421,-95.6316C76.8421,-89.6316 82.8421,-83.6316 88.8421,-83.6316"/>
<text text-anchor="middle" x="103.842" y="-99.4316" font-family="FreeSans" font-size="8.00" fill="#1c2021"> </text>
</g>
<!-- N20 -->
<g id="node12" class="node"><title>N20</title>
<polygon fill="#ffffff" stroke="#ffffff" stroke-width="1.5" points="114.745,-14.5 148.745,-14.5 160.745,-26.5 160.745,-38.5 148.745,-50.5 114.745,-50.5 102.745,-38.5 102.745,-26.5 114.745,-14.5"/>
<path fill="#ffffff" stroke="#ffffff" stroke-width="1.5" d="M148.745,-14.5C154.745,-14.5 160.745,-20.5 160.745,-26.5"/>
<path fill="#ffffff" stroke="#ffffff" stroke-width="1.5" d="M160.745,-38.5C160.745,-44.5 154.745,-50.5 148.745,-50.5"/>
<path fill="#ffffff" stroke="#ffffff" stroke-width="1.5" d="M114.745,-50.5C108.745,-50.5 102.745,-44.5 102.745,-38.5"/>
<path fill="#ffffff" stroke="#ffffff" stroke-width="1.5" d="M102.745,-26.5C102.745,-20.5 108.745,-14.5 114.745,-14.5"/>
<polyline fill="none" stroke="#2e3436" stroke-width="1.5" points="114.745,-14.5 148.745,-14.5 "/>
<path fill="none" stroke="#2e3436" stroke-width="1.5" d="M148.745,-14.5C154.745,-14.5 160.745,-20.5 160.745,-26.5"/>
<polyline fill="none" stroke="#2e3436" stroke-width="1.5" points="160.745,-26.5 160.745,-38.5 "/>
<path fill="none" stroke="#2e3436" stroke-width="1.5" d="M160.745,-38.5C160.745,-44.5 154.745,-50.5 148.745,-50.5"/>
<polyline fill="none" stroke="#2e3436" stroke-width="1.5" points="148.745,-50.5 114.745,-50.5 "/>
<path fill="none" stroke="#2e3436" stroke-width="1.5" d="M114.745,-50.5C108.745,-50.5 102.745,-44.5 102.745,-38.5"/>
<polyline fill="none" stroke="#2e3436" stroke-width="1.5" points="102.745,-38.5 102.745,-26.5 "/>
<path fill="none" stroke="#2e3436" stroke-width="1.5" d="M102.745,-26.5C102.745,-20.5 108.745,-14.5 114.745,-14.5"/>
<text text-anchor="start" x="110.745" y="-30.3" font-family="FreeSans" font-size="8.00" fill="#1c2021">count = 1</text>
</g>
<!-- N19&#45;&gt;N20 -->
<g id="edge8" class="edge"><title>N19&#45;&gt;N20</title>
<path fill="none" stroke="#2e3436" stroke-width="2" d="M111.173,-83.4681C114.32,-75.6709 118.053,-66.4241 121.469,-57.9613"/>
<polygon fill="#2e3436" stroke="#2e3436" points="124.366,-50.7822 124.689,-59.0003 123.426,-54.4468 122.023,-57.9242 121.559,-57.7371 121.095,-57.5499 122.499,-54.0725 118.429,-56.4738 124.366,-50.7822 124.366,-50.7822"/>
<text text-anchor="middle" x="121.321" y="-70.5147" font-family="FreeSans" font-size="8.00" fill="#2e3436">X</text>
</g>
<!-- N21 -->
<g id="node14" class="node"><title>N21</title>
<polygon fill="#ffffff" stroke="#ffffff" stroke-width="1.5" points="160.682,-73.2966 194.682,-73.2966 206.682,-85.2966 206.682,-97.2966 194.682,-109.297 160.682,-109.297 148.682,-97.2966 148.682,-85.2966 160.682,-73.2966"/>
<path fill="#ffffff" stroke="#ffffff" stroke-width="1.5" d="M194.682,-73.2966C200.682,-73.2966 206.682,-79.2966 206.682,-85.2966"/>
<path fill="#ffffff" stroke="#ffffff" stroke-width="1.5" d="M206.682,-97.2966C206.682,-103.297 200.682,-109.297 194.682,-109.297"/>
<path fill="#ffffff" stroke="#ffffff" stroke-width="1.5" d="M160.682,-109.297C154.682,-109.297 148.682,-103.297 148.682,-97.2966"/>
<path fill="#ffffff" stroke="#ffffff" stroke-width="1.5" d="M148.682,-85.2966C148.682,-79.2966 154.682,-73.2966 160.682,-73.2966"/>
<polyline fill="none" stroke="#2e3436" stroke-width="1.5" points="160.682,-73.2966 194.682,-73.2966 "/>
<path fill="none" stroke="#2e3436" stroke-width="1.5" d="M194.682,-73.2966C200.682,-73.2966 206.682,-79.2966 206.682,-85.2966"/>
<polyline fill="none" stroke="#2e3436" stroke-width="1.5" points="206.682,-85.2966 206.682,-97.2966 "/>
<path fill="none" stroke="#2e3436" stroke-width="1.5" d="M206.682,-97.2966C206.682,-103.297 200.682,-109.297 194.682,-109.297"/>
<polyline fill="none" stroke="#2e3436" stroke-width="1.5" points="194.682,-109.297 160.682,-109.297 "/>
<path fill="none" stroke="#2e3436" stroke-width="1.5" d="M160.682,-109.297C154.682,-109.297 148.682,-103.297 148.682,-97.2966"/>
<polyline fill="none" stroke="#2e3436" stroke-width="1.5" points="148.682,-97.2966 148.682,-85.2966 "/>
<path fill="none" stroke="#2e3436" stroke-width="1.5" d="M148.682,-85.2966C148.682,-79.2966 154.682,-73.2966 160.682,-73.2966"/>
<text text-anchor="start" x="156.682" y="-89.0966" font-family="FreeSans" font-size="8.00" fill="#1c2021">count = 2</text>
</g>
<!-- N19&#45;&gt;N21 -->
<g id="edge10" class="edge"><title>N19&#45;&gt;N21</title>
<path fill="none" stroke="#2e3436" stroke-width="2" d="M130.918,-97.8419C134.249,-97.3756 137.696,-96.8932 141.139,-96.4114"/>
<polygon fill="#2e3436" stroke="#2e3436" points="148.621,-95.3641 141.661,-99.7462 144.977,-96.3791 141.263,-96.899 141.193,-96.4038 141.124,-95.9086 144.838,-95.3888 140.726,-93.0614 148.621,-95.3641 148.621,-95.3641"/>
<text text-anchor="middle" x="136.028" y="-100.927" font-family="FreeSans" font-size="8.00" fill="#2e3436">X</text>
</g>
<!-- N22 -->
<g id="node16" class="node"><title>N22</title>
<polygon fill="#ffffff" stroke="#ffffff" stroke-width="1.5" points="132.743,-142.424 166.743,-142.424 178.743,-154.424 178.743,-166.424 166.743,-178.424 132.743,-178.424 120.743,-166.424 120.743,-154.424 132.743,-142.424"/>
<path fill="#ffffff" stroke="#ffffff" stroke-width="1.5" d="M166.743,-142.424C172.743,-142.424 178.743,-148.424 178.743,-154.424"/>
<path fill="#ffffff" stroke="#ffffff" stroke-width="1.5" d="M178.743,-166.424C178.743,-172.424 172.743,-178.424 166.743,-178.424"/>
<path fill="#ffffff" stroke="#ffffff" stroke-width="1.5" d="M132.743,-178.424C126.743,-178.424 120.743,-172.424 120.743,-166.424"/>
<path fill="#ffffff" stroke="#ffffff" stroke-width="1.5" d="M120.743,-154.424C120.743,-148.424 126.743,-142.424 132.743,-142.424"/>
<polyline fill="none" stroke="#2e3436" stroke-width="1.5" points="132.743,-142.424 166.743,-142.424 "/>
<path fill="none" stroke="#2e3436" stroke-width="1.5" d="M166.743,-142.424C172.743,-142.424 178.743,-148.424 178.743,-154.424"/>
<polyline fill="none" stroke="#2e3436" stroke-width="1.5" points="178.743,-154.424 178.743,-166.424 "/>
<path fill="none" stroke="#2e3436" stroke-width="1.5" d="M178.743,-166.424C178.743,-172.424 172.743,-178.424 166.743,-178.424"/>
<polyline fill="none" stroke="#2e3436" stroke-width="1.5" points="166.743,-178.424 132.743,-178.424 "/>
<path fill="none" stroke="#2e3436" stroke-width="1.5" d="M132.743,-178.424C126.743,-178.424 120.743,-172.424 120.743,-166.424"/>
<polyline fill="none" stroke="#2e3436" stroke-width="1.5" points="120.743,-166.424 120.743,-154.424 "/>
<path fill="none" stroke="#2e3436" stroke-width="1.5" d="M120.743,-154.424C120.743,-148.424 126.743,-142.424 132.743,-142.424"/>
<text text-anchor="start" x="128.743" y="-158.224" font-family="FreeSans" font-size="8.00" fill="#1c2021">count = 3</text>
</g>
<!-- N19&#45;&gt;N22 -->
<g id="edge12" class="edge"><title>N19&#45;&gt;N22</title>
<path fill="none" stroke="#2e3436" stroke-width="2" d="M118.114,-119.911C122.124,-125.048 126.549,-130.715 130.786,-136.142"/>
<polygon fill="#2e3436" stroke="#2e3436" points="135.638,-142.357 128.362,-138.522 132.936,-139.709 130.628,-136.753 131.022,-136.445 131.416,-136.138 133.724,-139.093 133.683,-134.368 135.638,-142.357 135.638,-142.357"/>
<text text-anchor="middle" x="119.45" y="-129.827" font-family="FreeSans" font-size="8.00" fill="#2e3436">X</text>
</g>
<!-- N23 -->
<g id="node18" class="node"><title>N23</title>
<polygon fill="#ffffff" stroke="#ffffff" stroke-width="1.5" points="58.9626,-152.803 92.9626,-152.803 104.963,-164.803 104.963,-176.803 92.9626,-188.803 58.9626,-188.803 46.9626,-176.803 46.9626,-164.803 58.9626,-152.803"/>
<path fill="#ffffff" stroke="#ffffff" stroke-width="1.5" d="M92.9626,-152.803C98.9626,-152.803 104.963,-158.803 104.963,-164.803"/>
<path fill="#ffffff" stroke="#ffffff" stroke-width="1.5" d="M104.963,-176.803C104.963,-182.803 98.9626,-188.803 92.9626,-188.803"/>
<path fill="#ffffff" stroke="#ffffff" stroke-width="1.5" d="M58.9626,-188.803C52.9626,-188.803 46.9626,-182.803 46.9626,-176.803"/>
<path fill="#ffffff" stroke="#ffffff" stroke-width="1.5" d="M46.9626,-164.803C46.9626,-158.803 52.9626,-152.803 58.9626,-152.803"/>
<polyline fill="none" stroke="#2e3436" stroke-width="1.5" points="58.9626,-152.803 92.9626,-152.803 "/>
<path fill="none" stroke="#2e3436" stroke-width="1.5" d="M92.9626,-152.803C98.9626,-152.803 104.963,-158.803 104.963,-164.803"/>
<polyline fill="none" stroke="#2e3436" stroke-width="1.5" points="104.963,-164.803 104.963,-176.803 "/>
<path fill="none" stroke="#2e3436" stroke-width="1.5" d="M104.963,-176.803C104.963,-182.803 98.9626,-188.803 92.9626,-188.803"/>
<polyline fill="none" stroke="#2e3436" stroke-width="1.5" points="92.9626,-188.803 58.9626,-188.803 "/>
<path fill="none" stroke="#2e3436" stroke-width="1.5" d="M58.9626,-188.803C52.9626,-188.803 46.9626,-182.803 46.9626,-176.803"/>
<polyline fill="none" stroke="#2e3436" stroke-width="1.5" points="46.9626,-176.803 46.9626,-164.803 "/>
<path fill="none" stroke="#2e3436" stroke-width="1.5" d="M46.9626,-164.803C46.9626,-158.803 52.9626,-152.803 58.9626,-152.803"/>
<text text-anchor="start" x="54.9626" y="-168.603" font-family="FreeSans" font-size="8.00" fill="#1c2021">count = 4</text>
</g>
<!-- N19&#45;&gt;N23 -->
<g id="edge14" class="edge"><title>N19&#45;&gt;N23</title>
<path fill="none" stroke="#2e3436" stroke-width="2" d="M96.5171,-119.806C93.3727,-127.607 89.6436,-136.86 86.2307,-145.327"/>
<polygon fill="#2e3436" stroke="#2e3436" points="83.3355,-152.511 83.009,-144.293 84.2736,-148.845 85.6755,-145.367 86.1393,-145.554 86.603,-145.741 85.2011,-149.219 89.2696,-146.816 83.3355,-152.511 83.3355,-152.511"/>
<text text-anchor="middle" x="86.3739" y="-128.366" font-family="FreeSans" font-size="8.00" fill="#2e3436">X</text>
</g>
<!-- N24 -->
<g id="node20" class="node"><title>N24</title>
<polygon fill="#ffffff" stroke="#ffffff" stroke-width="1.5" points="13,-94.1311 47,-94.1311 59,-106.131 59,-118.131 47,-130.131 13,-130.131 1,-118.131 1,-106.131 13,-94.1311"/>
<path fill="#ffffff" stroke="#ffffff" stroke-width="1.5" d="M47,-94.1311C53,-94.1311 59,-100.131 59,-106.131"/>
<path fill="#ffffff" stroke="#ffffff" stroke-width="1.5" d="M59,-118.131C59,-124.131 53,-130.131 47,-130.131"/>
<path fill="#ffffff" stroke="#ffffff" stroke-width="1.5" d="M13,-130.131C7,-130.131 1,-124.131 1,-118.131"/>
<path fill="#ffffff" stroke="#ffffff" stroke-width="1.5" d="M1,-106.131C1,-100.131 7,-94.1311 13,-94.1311"/>
<polyline fill="none" stroke="#2e3436" stroke-width="1.5" points="13,-94.1311 47,-94.1311 "/>
<path fill="none" stroke="#2e3436" stroke-width="1.5" d="M47,-94.1311C53,-94.1311 59,-100.131 59,-106.131"/>
<polyline fill="none" stroke="#2e3436" stroke-width="1.5" points="59,-106.131 59,-118.131 "/>
<path fill="none" stroke="#2e3436" stroke-width="1.5" d="M59,-118.131C59,-124.131 53,-130.131 47,-130.131"/>
<polyline fill="none" stroke="#2e3436" stroke-width="1.5" points="47,-130.131 13,-130.131 "/>
<path fill="none" stroke="#2e3436" stroke-width="1.5" d="M13,-130.131C7,-130.131 1,-124.131 1,-118.131"/>
<polyline fill="none" stroke="#2e3436" stroke-width="1.5" points="1,-118.131 1,-106.131 "/>
<path fill="none" stroke="#2e3436" stroke-width="1.5" d="M1,-106.131C1,-100.131 7,-94.1311 13,-94.1311"/>
<text text-anchor="start" x="9" y="-109.931" font-family="FreeSans" font-size="8.00" fill="#1c2021">count = 5</text>
</g>
<!-- N19&#45;&gt;N24 -->
<g id="edge16" class="edge"><title>N19&#45;&gt;N24</title>
<path fill="none" stroke="#2e3436" stroke-width="2" d="M76.7654,-105.482C73.4339,-105.955 69.987,-106.445 66.5446,-106.935"/>
<polygon fill="#2e3436" stroke="#2e3436" points="59.0618,-107.999 66.012,-103.602 62.7041,-106.976 66.4167,-106.448 66.4871,-106.943 66.5575,-107.438 62.8449,-107.966 66.9623,-110.284 59.0618,-107.999 59.0618,-107.999"/>
<text text-anchor="middle" x="71.655" y="-110.008" font-family="FreeSans" font-size="8.00" fill="#2e3436">X</text>
</g>
<!-- N25 -->
<g id="node22" class="node"><title>N25</title>
<polygon fill="#ffffff" stroke="#ffffff" stroke-width="1.5" points="40.8445,-24.9482 74.8445,-24.9482 86.8445,-36.9482 86.8445,-48.9482 74.8445,-60.9482 40.8445,-60.9482 28.8445,-48.9482 28.8445,-36.9482 40.8445,-24.9482"/>
<path fill="#ffffff" stroke="#ffffff" stroke-width="1.5" d="M74.8445,-24.9482C80.8445,-24.9482 86.8445,-30.9482 86.8445,-36.9482"/>
<path fill="#ffffff" stroke="#ffffff" stroke-width="1.5" d="M86.8445,-48.9482C86.8445,-54.9482 80.8445,-60.9482 74.8445,-60.9482"/>
<path fill="#ffffff" stroke="#ffffff" stroke-width="1.5" d="M40.8445,-60.9482C34.8445,-60.9482 28.8445,-54.9482 28.8445,-48.9482"/>
<path fill="#ffffff" stroke="#ffffff" stroke-width="1.5" d="M28.8445,-36.9482C28.8445,-30.9482 34.8445,-24.9482 40.8445,-24.9482"/>
<polyline fill="none" stroke="#2e3436" stroke-width="1.5" points="40.8445,-24.9482 74.8445,-24.9482 "/>
<path fill="none" stroke="#2e3436" stroke-width="1.5" d="M74.8445,-24.9482C80.8445,-24.9482 86.8445,-30.9482 86.8445,-36.9482"/>
<polyline fill="none" stroke="#2e3436" stroke-width="1.5" points="86.8445,-36.9482 86.8445,-48.9482 "/>
<path fill="none" stroke="#2e3436" stroke-width="1.5" d="M86.8445,-48.9482C86.8445,-54.9482 80.8445,-60.9482 74.8445,-60.9482"/>
<polyline fill="none" stroke="#2e3436" stroke-width="1.5" points="74.8445,-60.9482 40.8445,-60.9482 "/>
<path fill="none" stroke="#2e3436" stroke-width="1.5" d="M40.8445,-60.9482C34.8445,-60.9482 28.8445,-54.9482 28.8445,-48.9482"/>
<polyline fill="none" stroke="#2e3436" stroke-width="1.5" points="28.8445,-48.9482 28.8445,-36.9482 "/>
<path fill="none" stroke="#2e3436" stroke-width="1.5" d="M28.8445,-36.9482C28.8445,-30.9482 34.8445,-24.9482 40.8445,-24.9482"/>
<text text-anchor="start" x="36.8445" y="-40.7482" font-family="FreeSans" font-size="8.00" fill="#1c2021">count = 6</text>
</g>
<!-- N19&#45;&gt;N25 -->
<g id="edge18" class="edge"><title>N19&#45;&gt;N25</title>
<path fill="none" stroke="#2e3436" stroke-width="2" d="M89.5404,-83.3855C85.5218,-78.2587 81.0879,-72.6019 76.8417,-67.1847"/>
<polygon fill="#2e3436" stroke="#2e3436" points="71.9795,-60.9815 79.2626,-64.8022 74.6864,-63.6244 76.9998,-66.5759 76.6063,-66.8843 76.2128,-67.1928 73.8994,-64.2414 73.95,-68.9664 71.9795,-60.9815 71.9795,-60.9815"/>
<text text-anchor="middle" x="78.191" y="-77.0851" font-family="FreeSans" font-size="8.00" fill="#2e3436">X</text>
</g>
<!-- N20&#45;&gt;N21 -->
<g id="edge22" class="edge"><title>N20&#45;&gt;N21</title>
<path fill="none" stroke="#2e3436" stroke-width="2" d="M146.028,-50.7813C150.041,-55.918 154.469,-61.5857 158.71,-67.0134"/>
<polygon fill="#2e3436" stroke="#2e3436" points="163.566,-73.2286 156.289,-69.3963 160.863,-70.5813 158.554,-67.6263 158.948,-67.3185 159.342,-67.0106 161.651,-69.9657 161.608,-65.2406 163.566,-73.2286 163.566,-73.2286"/>
<text text-anchor="middle" x="157.369" y="-52.6973" font-family="FreeSans" font-size="8.00" fill="#2e3436">X</text>
</g>
<!-- N21&#45;&gt;N22 -->
<g id="edge20" class="edge"><title>N21&#45;&gt;N22</title>
<path fill="none" stroke="#2e3436" stroke-width="2" d="M170.341,-109.459C167.19,-117.256 163.453,-126.502 160.033,-134.964"/>
<polygon fill="#2e3436" stroke="#2e3436" points="157.132,-142.143 156.813,-133.924 158.073,-138.478 159.479,-135.002 159.942,-135.189 160.406,-135.376 159,-138.853 163.071,-136.454 157.132,-142.143 157.132,-142.143"/>
<text text-anchor="middle" x="170.187" y="-122.011" font-family="FreeSans" font-size="8.00" fill="#2e3436">X</text>
</g>
<!-- N22&#45;&gt;N23 -->
<g id="edge26" class="edge"><title>N22&#45;&gt;N23</title>
<path fill="none" stroke="#2e3436" stroke-width="2" d="M120.583,-164.526C118.086,-164.877 115.539,-165.236 112.991,-165.594"/>
<polygon fill="#2e3436" stroke="#2e3436" points="105.394,-166.663 112.351,-162.276 109.038,-165.645 112.751,-165.123 112.821,-165.618 112.891,-166.113 109.177,-166.635 113.291,-168.96 105.394,-166.663 105.394,-166.663"/>
<text text-anchor="middle" x="116.787" y="-168.86" font-family="FreeSans" font-size="8.00" fill="#2e3436">X</text>
</g>
<!-- N23&#45;&gt;N24 -->
<g id="edge24" class="edge"><title>N23&#45;&gt;N24</title>
<path fill="none" stroke="#2e3436" stroke-width="2" d="M61.6717,-152.561C57.6563,-147.435 53.2257,-141.779 48.9827,-136.363"/>
<polygon fill="#2e3436" stroke="#2e3436" points="44.1242,-130.161 51.4062,-133.984 46.8304,-132.805 49.143,-135.757 48.7494,-136.065 48.3558,-136.373 46.0432,-133.421 46.0925,-138.146 44.1242,-130.161 44.1242,-130.161"/>
<text text-anchor="middle" x="50.3272" y="-146.262" font-family="FreeSans" font-size="8.00" fill="#2e3436">X</text>
</g>
<!-- N24&#45;&gt;N25 -->
<g id="edge30" class="edge"><title>N24&#45;&gt;N25</title>
<path fill="none" stroke="#2e3436" stroke-width="2" d="M37.3158,-93.9541C40.4563,-86.1511 44.1807,-76.8975 47.5893,-68.4284"/>
<polygon fill="#2e3436" stroke="#2e3436" points="50.4809,-61.244 50.8115,-69.4618 49.5446,-64.9095 48.1444,-68.3883 47.6806,-68.2016 47.2167,-68.015 48.6169,-64.5361 44.5496,-66.9415 50.4809,-61.244 50.4809,-61.244"/>
<text text-anchor="middle" x="37.4526" y="-76.9912" font-family="FreeSans" font-size="8.00" fill="#2e3436">X</text>
</g>
<!-- N25&#45;&gt;N20 -->
<g id="edge28" class="edge"><title>N25&#45;&gt;N20</title>
<path fill="none" stroke="#2e3436" stroke-width="2" d="M87.0521,-38.8188C89.5534,-38.4652 92.1044,-38.1045 94.6562,-37.7437"/>
<polygon fill="#2e3436" stroke="#2e3436" points="102.266,-36.6679 95.312,-41.0597 98.6226,-37.688 94.9095,-38.213 94.8395,-37.7179 94.7695,-37.2228 98.4826,-36.6978 94.367,-34.3761 102.266,-36.6679 102.266,-36.6679"/>
<text text-anchor="middle" x="90.8541" y="-30.0813" font-family="FreeSans" font-size="8.00" fill="#2e3436">X</text>
</g>
<!-- N27 -->
<g id="node29" class="node"><title>N27</title>
<polygon fill="#ffffff" stroke="#ffffff" stroke-width="1.5" points="78,-220.139 112,-220.139 124,-232.139 124,-244.139 112,-256.139 78,-256.139 66,-244.139 66,-232.139 78,-220.139"/>
<path fill="#ffffff" stroke="#ffffff" stroke-width="1.5" d="M112,-220.139C118,-220.139 124,-226.139 124,-232.139"/>
<path fill="#ffffff" stroke="#ffffff" stroke-width="1.5" d="M124,-244.139C124,-250.139 118,-256.139 112,-256.139"/>
<path fill="#ffffff" stroke="#ffffff" stroke-width="1.5" d="M78,-256.139C72,-256.139 66,-250.139 66,-244.139"/>
<path fill="#ffffff" stroke="#ffffff" stroke-width="1.5" d="M66,-232.139C66,-226.139 72,-220.139 78,-220.139"/>
<polyline fill="none" stroke="#2e3436" stroke-width="1.5" points="78,-220.139 112,-220.139 "/>
<path fill="none" stroke="#2e3436" stroke-width="1.5" d="M112,-220.139C118,-220.139 124,-226.139 124,-232.139"/>
<polyline fill="none" stroke="#2e3436" stroke-width="1.5" points="124,-232.139 124,-244.139 "/>
<path fill="none" stroke="#2e3436" stroke-width="1.5" d="M124,-244.139C124,-250.139 118,-256.139 112,-256.139"/>
<polyline fill="none" stroke="#2e3436" stroke-width="1.5" points="112,-256.139 78,-256.139 "/>
<path fill="none" stroke="#2e3436" stroke-width="1.5" d="M78,-256.139C72,-256.139 66,-250.139 66,-244.139"/>
<polyline fill="none" stroke="#2e3436" stroke-width="1.5" points="66,-244.139 66,-232.139 "/>
<path fill="none" stroke="#2e3436" stroke-width="1.5" d="M66,-232.139C66,-226.139 72,-220.139 78,-220.139"/>
<text text-anchor="start" x="74" y="-235.939" font-family="FreeSans" font-size="8.00" fill="#1c2021">count = 1</text>
</g>
<!-- N26 -->
<g id="node30" class="node"><title>N26</title>
<polygon fill="#ffffff" stroke="#ffffff" stroke-width="1.5" points="151.21,-209.5 181.21,-209.5 193.21,-221.5 193.21,-233.5 181.21,-245.5 151.21,-245.5 139.21,-233.5 139.21,-221.5 151.21,-209.5"/>
<path fill="#ffffff" stroke="#ffffff" stroke-width="1.5" d="M181.21,-209.5C187.21,-209.5 193.21,-215.5 193.21,-221.5"/>
<path fill="#ffffff" stroke="#ffffff" stroke-width="1.5" d="M193.21,-233.5C193.21,-239.5 187.21,-245.5 181.21,-245.5"/>
<path fill="#ffffff" stroke="#ffffff" stroke-width="1.5" d="M151.21,-245.5C145.21,-245.5 139.21,-239.5 139.21,-233.5"/>
<path fill="#ffffff" stroke="#ffffff" stroke-width="1.5" d="M139.21,-221.5C139.21,-215.5 145.21,-209.5 151.21,-209.5"/>
<polyline fill="none" stroke="#2e3436" stroke-width="1.5" points="151.21,-209.5 181.21,-209.5 "/>
<path fill="none" stroke="#2e3436" stroke-width="1.5" d="M181.21,-209.5C187.21,-209.5 193.21,-215.5 193.21,-221.5"/>
<polyline fill="none" stroke="#2e3436" stroke-width="1.5" points="193.21,-221.5 193.21,-233.5 "/>
<path fill="none" stroke="#2e3436" stroke-width="1.5" d="M193.21,-233.5C193.21,-239.5 187.21,-245.5 181.21,-245.5"/>
<polyline fill="none" stroke="#2e3436" stroke-width="1.5" points="181.21,-245.5 151.21,-245.5 "/>
<path fill="none" stroke="#2e3436" stroke-width="1.5" d="M151.21,-245.5C145.21,-245.5 139.21,-239.5 139.21,-233.5"/>
<polyline fill="none" stroke="#2e3436" stroke-width="1.5" points="139.21,-233.5 139.21,-221.5 "/>
<path fill="none" stroke="#2e3436" stroke-width="1.5" d="M139.21,-221.5C139.21,-215.5 145.21,-209.5 151.21,-209.5"/>
<text text-anchor="middle" x="166.21" y="-225.3" font-family="FreeSans" font-size="8.00" fill="#1c2021"> </text>
</g>
<!-- N26&#45;&gt;N27 -->
<g id="edge32" class="edge"><title>N26&#45;&gt;N27</title>
<path fill="none" stroke="#2e3436" stroke-width="2" d="M138.882,-231.583C136.45,-231.946 133.964,-232.318 131.472,-232.69"/>
<polygon fill="#2e3436" stroke="#2e3436" points="124.028,-233.802 130.947,-229.356 127.663,-232.754 131.372,-232.199 131.446,-232.694 131.519,-233.188 127.811,-233.743 131.944,-236.032 124.028,-233.802 124.028,-233.802"/>
<text text-anchor="middle" x="135.177" y="-235.936" font-family="FreeSans" font-size="8.00" fill="#2e3436">X</text>
</g>
<!-- N29 -->
<g id="node32" class="node"><title>N29</title>
<polygon fill="#ffffff" stroke="#ffffff" stroke-width="1.5" points="286,-64.1391 320,-64.1391 332,-76.1391 332,-88.1391 320,-100.139 286,-100.139 274,-88.1391 274,-76.1391 286,-64.1391"/>
<path fill="#ffffff" stroke="#ffffff" stroke-width="1.5" d="M320,-64.1391C326,-64.1391 332,-70.1391 332,-76.1391"/>
<path fill="#ffffff" stroke="#ffffff" stroke-width="1.5" d="M332,-88.1391C332,-94.1391 326,-100.139 320,-100.139"/>
<path fill="#ffffff" stroke="#ffffff" stroke-width="1.5" d="M286,-100.139C280,-100.139 274,-94.1391 274,-88.1391"/>
<path fill="#ffffff" stroke="#ffffff" stroke-width="1.5" d="M274,-76.1391C274,-70.1391 280,-64.1391 286,-64.1391"/>
<polyline fill="none" stroke="#2e3436" stroke-width="1.5" points="286,-64.1391 320,-64.1391 "/>
<path fill="none" stroke="#2e3436" stroke-width="1.5" d="M320,-64.1391C326,-64.1391 332,-70.1391 332,-76.1391"/>
<polyline fill="none" stroke="#2e3436" stroke-width="1.5" points="332,-76.1391 332,-88.1391 "/>
<path fill="none" stroke="#2e3436" stroke-width="1.5" d="M332,-88.1391C332,-94.1391 326,-100.139 320,-100.139"/>
<polyline fill="none" stroke="#2e3436" stroke-width="1.5" points="320,-100.139 286,-100.139 "/>
<path fill="none" stroke="#2e3436" stroke-width="1.5" d="M286,-100.139C280,-100.139 274,-94.1391 274,-88.1391"/>
<polyline fill="none" stroke="#2e3436" stroke-width="1.5" points="274,-88.1391 274,-76.1391 "/>
<path fill="none" stroke="#2e3436" stroke-width="1.5" d="M274,-76.1391C274,-70.1391 280,-64.1391 286,-64.1391"/>
<text text-anchor="start" x="282" y="-79.9391" font-family="FreeSans" font-size="8.00" fill="#1c2021">count = 2</text>
</g>
<!-- N28 -->
<g id="node33" class="node"><title>N28</title>
<polygon fill="#ffffff" stroke="#ffffff" stroke-width="1.5" points="359.21,-53.5 389.21,-53.5 401.21,-65.5 401.21,-77.5 389.21,-89.5 359.21,-89.5 347.21,-77.5 347.21,-65.5 359.21,-53.5"/>
<path fill="#ffffff" stroke="#ffffff" stroke-width="1.5" d="M389.21,-53.5C395.21,-53.5 401.21,-59.5 401.21,-65.5"/>
<path fill="#ffffff" stroke="#ffffff" stroke-width="1.5" d="M401.21,-77.5C401.21,-83.5 395.21,-89.5 389.21,-89.5"/>
<path fill="#ffffff" stroke="#ffffff" stroke-width="1.5" d="M359.21,-89.5C353.21,-89.5 347.21,-83.5 347.21,-77.5"/>
<path fill="#ffffff" stroke="#ffffff" stroke-width="1.5" d="M347.21,-65.5C347.21,-59.5 353.21,-53.5 359.21,-53.5"/>
<polyline fill="none" stroke="#2e3436" stroke-width="1.5" points="359.21,-53.5 389.21,-53.5 "/>
<path fill="none" stroke="#2e3436" stroke-width="1.5" d="M389.21,-53.5C395.21,-53.5 401.21,-59.5 401.21,-65.5"/>
<polyline fill="none" stroke="#2e3436" stroke-width="1.5" points="401.21,-65.5 401.21,-77.5 "/>
<path fill="none" stroke="#2e3436" stroke-width="1.5" d="M401.21,-77.5C401.21,-83.5 395.21,-89.5 389.21,-89.5"/>
<polyline fill="none" stroke="#2e3436" stroke-width="1.5" points="389.21,-89.5 359.21,-89.5 "/>
<path fill="none" stroke="#2e3436" stroke-width="1.5" d="M359.21,-89.5C353.21,-89.5 347.21,-83.5 347.21,-77.5"/>
<polyline fill="none" stroke="#2e3436" stroke-width="1.5" points="347.21,-77.5 347.21,-65.5 "/>
<path fill="none" stroke="#2e3436" stroke-width="1.5" d="M347.21,-65.5C347.21,-59.5 353.21,-53.5 359.21,-53.5"/>
<text text-anchor="middle" x="374.21" y="-69.3" font-family="FreeSans" font-size="8.00" fill="#1c2021"> </text>
</g>
<!-- N28&#45;&gt;N29 -->
<g id="edge34" class="edge"><title>N28&#45;&gt;N29</title>
<path fill="none" stroke="#2e3436" stroke-width="2" d="M346.882,-75.5829C344.45,-75.9462 341.964,-76.3177 339.472,-76.69"/>
<polygon fill="#2e3436" stroke="#2e3436" points="332.028,-77.8022 338.947,-73.3559 335.663,-76.7535 339.372,-76.1993 339.446,-76.6939 339.519,-77.1884 335.811,-77.7425 339.944,-80.0318 332.028,-77.8022 332.028,-77.8022"/>
<text text-anchor="middle" x="343.177" y="-79.9365" font-family="FreeSans" font-size="8.00" fill="#2e3436">X</text>
</g>
<!-- N31 -->
<g id="node35" class="node"><title>N31</title>
<polygon fill="#ffffff" stroke="#ffffff" stroke-width="1.5" points="286,-272.139 320,-272.139 332,-284.139 332,-296.139 320,-308.139 286,-308.139 274,-296.139 274,-284.139 286,-272.139"/>
<path fill="#ffffff" stroke="#ffffff" stroke-width="1.5" d="M320,-272.139C326,-272.139 332,-278.139 332,-284.139"/>
<path fill="#ffffff" stroke="#ffffff" stroke-width="1.5" d="M332,-296.139C332,-302.139 326,-308.139 320,-308.139"/>
<path fill="#ffffff" stroke="#ffffff" stroke-width="1.5" d="M286,-308.139C280,-308.139 274,-302.139 274,-296.139"/>
<path fill="#ffffff" stroke="#ffffff" stroke-width="1.5" d="M274,-284.139C274,-278.139 280,-272.139 286,-272.139"/>
<polyline fill="none" stroke="#2e3436" stroke-width="1.5" points="286,-272.139 320,-272.139 "/>
<path fill="none" stroke="#2e3436" stroke-width="1.5" d="M320,-272.139C326,-272.139 332,-278.139 332,-284.139"/>
<polyline fill="none" stroke="#2e3436" stroke-width="1.5" points="332,-284.139 332,-296.139 "/>
<path fill="none" stroke="#2e3436" stroke-width="1.5" d="M332,-296.139C332,-302.139 326,-308.139 320,-308.139"/>
<polyline fill="none" stroke="#2e3436" stroke-width="1.5" points="320,-308.139 286,-308.139 "/>
<path fill="none" stroke="#2e3436" stroke-width="1.5" d="M286,-308.139C280,-308.139 274,-302.139 274,-296.139"/>
<polyline fill="none" stroke="#2e3436" stroke-width="1.5" points="274,-296.139 274,-284.139 "/>
<path fill="none" stroke="#2e3436" stroke-width="1.5" d="M274,-284.139C274,-278.139 280,-272.139 286,-272.139"/>
<text text-anchor="start" x="282" y="-287.939" font-family="FreeSans" font-size="8.00" fill="#1c2021">count = 3</text>
</g>
<!-- N30 -->
<g id="node36" class="node"><title>N30</title>
<polygon fill="#ffffff" stroke="#ffffff" stroke-width="1.5" points="359.21,-261.5 389.21,-261.5 401.21,-273.5 401.21,-285.5 389.21,-297.5 359.21,-297.5 347.21,-285.5 347.21,-273.5 359.21,-261.5"/>
<path fill="#ffffff" stroke="#ffffff" stroke-width="1.5" d="M389.21,-261.5C395.21,-261.5 401.21,-267.5 401.21,-273.5"/>
<path fill="#ffffff" stroke="#ffffff" stroke-width="1.5" d="M401.21,-285.5C401.21,-291.5 395.21,-297.5 389.21,-297.5"/>
<path fill="#ffffff" stroke="#ffffff" stroke-width="1.5" d="M359.21,-297.5C353.21,-297.5 347.21,-291.5 347.21,-285.5"/>
<path fill="#ffffff" stroke="#ffffff" stroke-width="1.5" d="M347.21,-273.5C347.21,-267.5 353.21,-261.5 359.21,-261.5"/>
<polyline fill="none" stroke="#2e3436" stroke-width="1.5" points="359.21,-261.5 389.21,-261.5 "/>
<path fill="none" stroke="#2e3436" stroke-width="1.5" d="M389.21,-261.5C395.21,-261.5 401.21,-267.5 401.21,-273.5"/>
<polyline fill="none" stroke="#2e3436" stroke-width="1.5" points="401.21,-273.5 401.21,-285.5 "/>
<path fill="none" stroke="#2e3436" stroke-width="1.5" d="M401.21,-285.5C401.21,-291.5 395.21,-297.5 389.21,-297.5"/>
<polyline fill="none" stroke="#2e3436" stroke-width="1.5" points="389.21,-297.5 359.21,-297.5 "/>
<path fill="none" stroke="#2e3436" stroke-width="1.5" d="M359.21,-297.5C353.21,-297.5 347.21,-291.5 347.21,-285.5"/>
<polyline fill="none" stroke="#2e3436" stroke-width="1.5" points="347.21,-285.5 347.21,-273.5 "/>
<path fill="none" stroke="#2e3436" stroke-width="1.5" d="M347.21,-273.5C347.21,-267.5 353.21,-261.5 359.21,-261.5"/>
<text text-anchor="middle" x="374.21" y="-277.3" font-family="FreeSans" font-size="8.00" fill="#1c2021"> </text>
</g>
<!-- N30&#45;&gt;N31 -->
<g id="edge36" class="edge"><title>N30&#45;&gt;N31</title>
<path fill="none" stroke="#2e3436" stroke-width="2" d="M346.882,-283.583C344.45,-283.946 341.964,-284.318 339.472,-284.69"/>
<polygon fill="#2e3436" stroke="#2e3436" points="332.028,-285.802 338.947,-281.356 335.663,-284.754 339.372,-284.199 339.446,-284.694 339.519,-285.188 335.811,-285.743 339.944,-288.032 332.028,-285.802 332.028,-285.802"/>
<text text-anchor="middle" x="343.177" y="-287.936" font-family="FreeSans" font-size="8.00" fill="#2e3436">X</text>
</g>
</g>
</svg>
