<?xml version="1.0" encoding="UTF-8" standalone="no"?>
<!DOCTYPE svg PUBLIC "-//W3C//DTD SVG 1.1//EN"
 "http://www.w3.org/Graphics/SVG/1.1/DTD/svg11.dtd">
<!-- Generated by graphviz version 2.26.3 (20100126.1600)
 -->
<!-- Title: g Pages: 1 -->
<svg width="447pt" height="370pt"
 viewBox="0.00 0.00 447.21 369.64" xmlns="http://www.w3.org/2000/svg" xmlns:xlink="http://www.w3.org/1999/xlink">
<g id="graph1" class="graph" transform="scale(1 1) rotate(0) translate(4 365.639)">
<title>g</title>
<polygon fill="white" stroke="white" points="-4,5 -4,-365.639 444.21,-365.639 444.21,5 -4,5"/>
<!-- N34 -->
<g id="node1" class="node"><title>N34</title>
<polygon fill="#ffffff" stroke="#ffffff" stroke-width="1.5" points="260,-259.139 290,-259.139 302,-271.139 302,-283.139 290,-295.139 260,-295.139 248,-283.139 248,-271.139 260,-259.139"/>
<path fill="#ffffff" stroke="#ffffff" stroke-width="1.5" d="M290,-259.139C296,-259.139 302,-265.139 302,-271.139"/>
<path fill="#ffffff" stroke="#ffffff" stroke-width="1.5" d="M302,-283.139C302,-289.139 296,-295.139 290,-295.139"/>
<path fill="#ffffff" stroke="#ffffff" stroke-width="1.5" d="M260,-295.139C254,-295.139 248,-289.139 248,-283.139"/>
<path fill="#ffffff" stroke="#ffffff" stroke-width="1.5" d="M248,-271.139C248,-265.139 254,-259.139 260,-259.139"/>
<polyline fill="none" stroke="#2e3436" stroke-width="1.5" points="260,-259.139 290,-259.139 "/>
<path fill="none" stroke="#2e3436" stroke-width="1.5" d="M290,-259.139C296,-259.139 302,-265.139 302,-271.139"/>
<polyline fill="none" stroke="#2e3436" stroke-width="1.5" points="302,-271.139 302,-283.139 "/>
<path fill="none" stroke="#2e3436" stroke-width="1.5" d="M302,-283.139C302,-289.139 296,-295.139 290,-295.139"/>
<polyline fill="none" stroke="#2e3436" stroke-width="1.5" points="290,-295.139 260,-295.139 "/>
<path fill="none" stroke="#2e3436" stroke-width="1.5" d="M260,-295.139C254,-295.139 248,-289.139 248,-283.139"/>
<polyline fill="none" stroke="#2e3436" stroke-width="1.5" points="248,-283.139 248,-271.139 "/>
<path fill="none" stroke="#2e3436" stroke-width="1.5" d="M248,-271.139C248,-265.139 254,-259.139 260,-259.139"/>
<text text-anchor="middle" x="275" y="-274.939" font-family="FreeSans" font-size="8.00" fill="#1c2021"> </text>
</g>
<!-- N35 -->
<g id="node3" class="node"><title>N35</title>
<polygon fill="#ffffff" stroke="#ffffff" stroke-width="1.5" points="331.21,-248.5 361.21,-248.5 373.21,-260.5 373.21,-272.5 361.21,-284.5 331.21,-284.5 319.21,-272.5 319.21,-260.5 331.21,-248.5"/>
<path fill="#ffffff" stroke="#ffffff" stroke-width="1.5" d="M361.21,-248.5C367.21,-248.5 373.21,-254.5 373.21,-260.5"/>
<path fill="#ffffff" stroke="#ffffff" stroke-width="1.5" d="M373.21,-272.5C373.21,-278.5 367.21,-284.5 361.21,-284.5"/>
<path fill="#ffffff" stroke="#ffffff" stroke-width="1.5" d="M331.21,-284.5C325.21,-284.5 319.21,-278.5 319.21,-272.5"/>
<path fill="#ffffff" stroke="#ffffff" stroke-width="1.5" d="M319.21,-260.5C319.21,-254.5 325.21,-248.5 331.21,-248.5"/>
<polyline fill="none" stroke="#2e3436" stroke-width="1.5" points="331.21,-248.5 361.21,-248.5 "/>
<path fill="none" stroke="#2e3436" stroke-width="1.5" d="M361.21,-248.5C367.21,-248.5 373.21,-254.5 373.21,-260.5"/>
<polyline fill="none" stroke="#2e3436" stroke-width="1.5" points="373.21,-260.5 373.21,-272.5 "/>
<path fill="none" stroke="#2e3436" stroke-width="1.5" d="M373.21,-272.5C373.21,-278.5 367.21,-284.5 361.21,-284.5"/>
<polyline fill="none" stroke="#2e3436" stroke-width="1.5" points="361.21,-284.5 331.21,-284.5 "/>
<path fill="none" stroke="#2e3436" stroke-width="1.5" d="M331.21,-284.5C325.21,-284.5 319.21,-278.5 319.21,-272.5"/>
<polyline fill="none" stroke="#2e3436" stroke-width="1.5" points="319.21,-272.5 319.21,-260.5 "/>
<path fill="none" stroke="#2e3436" stroke-width="1.5" d="M319.21,-260.5C319.21,-254.5 325.21,-248.5 331.21,-248.5"/>
<text text-anchor="middle" x="346.21" y="-264.3" font-family="FreeSans" font-size="8.00" fill="#1c2021"> </text>
</g>
<!-- N34&#45;&gt;N35 -->
<g id="edge2" class="edge"><title>N34&#45;&gt;N35</title>
<path fill="none" stroke="#2e3436" stroke-width="2" d="M302.328,-273.056C305.331,-272.608 308.417,-272.146 311.494,-271.687"/>
<polygon fill="#2e3436" stroke="#2e3436" points="319.072,-270.554 312.154,-275.001 315.438,-271.603 311.729,-272.157 311.655,-271.663 311.581,-271.168 315.29,-270.614 311.156,-268.325 319.072,-270.554 319.072,-270.554"/>
<text text-anchor="middle" x="306.911" y="-276.171" font-family="FreeSans" font-size="8.00" fill="#2e3436">X</text>
</g>
<!-- N32 -->
<g id="node4" class="node"><title>N32</title>
<polygon fill="#ffffff" stroke="#ffffff" stroke-width="1.5" points="299,-64.1391 329,-64.1391 341,-76.1391 341,-88.1391 329,-100.139 299,-100.139 287,-88.1391 287,-76.1391 299,-64.1391"/>
<path fill="#ffffff" stroke="#ffffff" stroke-width="1.5" d="M329,-64.1391C335,-64.1391 341,-70.1391 341,-76.1391"/>
<path fill="#ffffff" stroke="#ffffff" stroke-width="1.5" d="M341,-88.1391C341,-94.1391 335,-100.139 329,-100.139"/>
<path fill="#ffffff" stroke="#ffffff" stroke-width="1.5" d="M299,-100.139C293,-100.139 287,-94.1391 287,-88.1391"/>
<path fill="#ffffff" stroke="#ffffff" stroke-width="1.5" d="M287,-76.1391C287,-70.1391 293,-64.1391 299,-64.1391"/>
<polyline fill="none" stroke="#2e3436" stroke-width="1.5" points="299,-64.1391 329,-64.1391 "/>
<path fill="none" stroke="#2e3436" stroke-width="1.5" d="M329,-64.1391C335,-64.1391 341,-70.1391 341,-76.1391"/>
<polyline fill="none" stroke="#2e3436" stroke-width="1.5" points="341,-76.1391 341,-88.1391 "/>
<path fill="none" stroke="#2e3436" stroke-width="1.5" d="M341,-88.1391C341,-94.1391 335,-100.139 329,-100.139"/>
<polyline fill="none" stroke="#2e3436" stroke-width="1.5" points="329,-100.139 299,-100.139 "/>
<path fill="none" stroke="#2e3436" stroke-width="1.5" d="M299,-100.139C293,-100.139 287,-94.1391 287,-88.1391"/>
<polyline fill="none" stroke="#2e3436" stroke-width="1.5" points="287,-88.1391 287,-76.1391 "/>
<path fill="none" stroke="#2e3436" stroke-width="1.5" d="M287,-76.1391C287,-70.1391 293,-64.1391 299,-64.1391"/>
<text text-anchor="middle" x="314" y="-79.9391" font-family="FreeSans" font-size="8.00" fill="#1c2021"> </text>
</g>
<!-- N33 -->
<g id="node6" class="node"><title>N33</title>
<polygon fill="#ffffff" stroke="#ffffff" stroke-width="1.5" points="370.21,-53.5 400.21,-53.5 412.21,-65.5 412.21,-77.5 400.21,-89.5 370.21,-89.5 358.21,-77.5 358.21,-65.5 370.21,-53.5"/>
<path fill="#ffffff" stroke="#ffffff" stroke-width="1.5" d="M400.21,-53.5C406.21,-53.5 412.21,-59.5 412.21,-65.5"/>
<path fill="#ffffff" stroke="#ffffff" stroke-width="1.5" d="M412.21,-77.5C412.21,-83.5 406.21,-89.5 400.21,-89.5"/>
<path fill="#ffffff" stroke="#ffffff" stroke-width="1.5" d="M370.21,-89.5C364.21,-89.5 358.21,-83.5 358.21,-77.5"/>
<path fill="#ffffff" stroke="#ffffff" stroke-width="1.5" d="M358.21,-65.5C358.21,-59.5 364.21,-53.5 370.21,-53.5"/>
<polyline fill="none" stroke="#2e3436" stroke-width="1.5" points="370.21,-53.5 400.21,-53.5 "/>
<path fill="none" stroke="#2e3436" stroke-width="1.5" d="M400.21,-53.5C406.21,-53.5 412.21,-59.5 412.21,-65.5"/>
<polyline fill="none" stroke="#2e3436" stroke-width="1.5" points="412.21,-65.5 412.21,-77.5 "/>
<path fill="none" stroke="#2e3436" stroke-width="1.5" d="M412.21,-77.5C412.21,-83.5 406.21,-89.5 400.21,-89.5"/>
<polyline fill="none" stroke="#2e3436" stroke-width="1.5" points="400.21,-89.5 370.21,-89.5 "/>
<path fill="none" stroke="#2e3436" stroke-width="1.5" d="M370.21,-89.5C364.21,-89.5 358.21,-83.5 358.21,-77.5"/>
<polyline fill="none" stroke="#2e3436" stroke-width="1.5" points="358.21,-77.5 358.21,-65.5 "/>
<path fill="none" stroke="#2e3436" stroke-width="1.5" d="M358.21,-65.5C358.21,-59.5 364.21,-53.5 370.21,-53.5"/>
<text text-anchor="middle" x="385.21" y="-69.3" font-family="FreeSans" font-size="8.00" fill="#1c2021"> </text>
</g>
<!-- N32&#45;&gt;N33 -->
<g id="edge4" class="edge"><title>N32&#45;&gt;N33</title>
<path fill="none" stroke="#2e3436" stroke-width="2" d="M341.328,-78.0562C344.331,-77.6075 347.417,-77.1464 350.494,-76.6867"/>
<polygon fill="#2e3436" stroke="#2e3436" points="358.072,-75.5544 351.154,-80.0007 354.438,-76.6031 350.729,-77.1573 350.655,-76.6628 350.581,-76.1682 354.29,-75.6141 350.156,-73.3248 358.072,-75.5544 358.072,-75.5544"/>
<text text-anchor="middle" x="345.911" y="-81.1714" font-family="FreeSans" font-size="8.00" fill="#2e3436">X</text>
</g>
<!-- N36 -->
<g id="node7" class="node"><title>N36</title>
<polygon fill="#ffffff" stroke="#ffffff" stroke-width="1.5" points="299,-142.139 329,-142.139 341,-154.139 341,-166.139 329,-178.139 299,-178.139 287,-166.139 287,-154.139 299,-142.139"/>
<path fill="#ffffff" stroke="#ffffff" stroke-width="1.5" d="M329,-142.139C335,-142.139 341,-148.139 341,-154.139"/>
<path fill="#ffffff" stroke="#ffffff" stroke-width="1.5" d="M341,-166.139C341,-172.139 335,-178.139 329,-178.139"/>
<path fill="#ffffff" stroke="#ffffff" stroke-width="1.5" d="M299,-178.139C293,-178.139 287,-172.139 287,-166.139"/>
<path fill="#ffffff" stroke="#ffffff" stroke-width="1.5" d="M287,-154.139C287,-148.139 293,-142.139 299,-142.139"/>
<polyline fill="none" stroke="#2e3436" stroke-width="1.5" points="299,-142.139 329,-142.139 "/>
<path fill="none" stroke="#2e3436" stroke-width="1.5" d="M329,-142.139C335,-142.139 341,-148.139 341,-154.139"/>
<polyline fill="none" stroke="#2e3436" stroke-width="1.5" points="341,-154.139 341,-166.139 "/>
<path fill="none" stroke="#2e3436" stroke-width="1.5" d="M341,-166.139C341,-172.139 335,-178.139 329,-178.139"/>
<polyline fill="none" stroke="#2e3436" stroke-width="1.5" points="329,-178.139 299,-178.139 "/>
<path fill="none" stroke="#2e3436" stroke-width="1.5" d="M299,-178.139C293,-178.139 287,-172.139 287,-166.139"/>
<polyline fill="none" stroke="#2e3436" stroke-width="1.5" points="287,-166.139 287,-154.139 "/>
<path fill="none" stroke="#2e3436" stroke-width="1.5" d="M287,-154.139C287,-148.139 293,-142.139 299,-142.139"/>
<text text-anchor="middle" x="314" y="-157.939" font-family="FreeSans" font-size="8.00" fill="#1c2021"> </text>
</g>
<!-- N37 -->
<g id="node9" class="node"><title>N37</title>
<polygon fill="#ffffff" stroke="#ffffff" stroke-width="1.5" points="370.21,-131.5 400.21,-131.5 412.21,-143.5 412.21,-155.5 400.21,-167.5 370.21,-167.5 358.21,-155.5 358.21,-143.5 370.21,-131.5"/>
<path fill="#ffffff" stroke="#ffffff" stroke-width="1.5" d="M400.21,-131.5C406.21,-131.5 412.21,-137.5 412.21,-143.5"/>
<path fill="#ffffff" stroke="#ffffff" stroke-width="1.5" d="M412.21,-155.5C412.21,-161.5 406.21,-167.5 400.21,-167.5"/>
<path fill="#ffffff" stroke="#ffffff" stroke-width="1.5" d="M370.21,-167.5C364.21,-167.5 358.21,-161.5 358.21,-155.5"/>
<path fill="#ffffff" stroke="#ffffff" stroke-width="1.5" d="M358.21,-143.5C358.21,-137.5 364.21,-131.5 370.21,-131.5"/>
<polyline fill="none" stroke="#2e3436" stroke-width="1.5" points="370.21,-131.5 400.21,-131.5 "/>
<path fill="none" stroke="#2e3436" stroke-width="1.5" d="M400.21,-131.5C406.21,-131.5 412.21,-137.5 412.21,-143.5"/>
<polyline fill="none" stroke="#2e3436" stroke-width="1.5" points="412.21,-143.5 412.21,-155.5 "/>
<path fill="none" stroke="#2e3436" stroke-width="1.5" d="M412.21,-155.5C412.21,-161.5 406.21,-167.5 400.21,-167.5"/>
<polyline fill="none" stroke="#2e3436" stroke-width="1.5" points="400.21,-167.5 370.21,-167.5 "/>
<path fill="none" stroke="#2e3436" stroke-width="1.5" d="M370.21,-167.5C364.21,-167.5 358.21,-161.5 358.21,-155.5"/>
<polyline fill="none" stroke="#2e3436" stroke-width="1.5" points="358.21,-155.5 358.21,-143.5 "/>
<path fill="none" stroke="#2e3436" stroke-width="1.5" d="M358.21,-143.5C358.21,-137.5 364.21,-131.5 370.21,-131.5"/>
<text text-anchor="middle" x="385.21" y="-147.3" font-family="FreeSans" font-size="8.00" fill="#1c2021"> </text>
</g>
<!-- N36&#45;&gt;N37 -->
<g id="edge6" class="edge"><title>N36&#45;&gt;N37</title>
<path fill="none" stroke="#2e3436" stroke-width="2" d="M341.328,-156.056C344.331,-155.608 347.417,-155.146 350.494,-154.687"/>
<polygon fill="#2e3436" stroke="#2e3436" points="358.072,-153.554 351.154,-158.001 354.438,-154.603 350.729,-155.157 350.655,-154.663 350.581,-154.168 354.29,-153.614 350.156,-151.325 358.072,-153.554 358.072,-153.554"/>
<text text-anchor="middle" x="345.911" y="-159.171" font-family="FreeSans" font-size="8.00" fill="#2e3436">X</text>
</g>
<!-- N19 -->
<g id="node10" class="node"><title>N19</title>
<polygon fill="#ffffff" stroke="#ffffff" stroke-width="1.5" points="149.783,-149.014 179.783,-149.014 191.783,-161.014 191.783,-173.014 179.783,-185.014 149.783,-185.014 137.783,-173.014 137.783,-161.014 149.783,-149.014"/>
<path fill="#ffffff" stroke="#ffffff" stroke-width="1.5" d="M179.783,-149.014C185.783,-149.014 191.783,-155.014 191.783,-161.014"/>
<path fill="#ffffff" stroke="#ffffff" stroke-width="1.5" d="M191.783,-173.014C191.783,-179.014 185.783,-185.014 179.783,-185.014"/>
<path fill="#ffffff" stroke="#ffffff" stroke-width="1.5" d="M149.783,-185.014C143.783,-185.014 137.783,-179.014 137.783,-173.014"/>
<path fill="#ffffff" stroke="#ffffff" stroke-width="1.5" d="M137.783,-161.014C137.783,-155.014 143.783,-149.014 149.783,-149.014"/>
<polyline fill="none" stroke="#2e3436" stroke-width="1.5" points="149.783,-149.014 179.783,-149.014 "/>
<path fill="none" stroke="#2e3436" stroke-width="1.5" d="M179.783,-149.014C185.783,-149.014 191.783,-155.014 191.783,-161.014"/>
<polyline fill="none" stroke="#2e3436" stroke-width="1.5" points="191.783,-161.014 191.783,-173.014 "/>
<path fill="none" stroke="#2e3436" stroke-width="1.5" d="M191.783,-173.014C191.783,-179.014 185.783,-185.014 179.783,-185.014"/>
<polyline fill="none" stroke="#2e3436" stroke-width="1.5" points="179.783,-185.014 149.783,-185.014 "/>
<path fill="none" stroke="#2e3436" stroke-width="1.5" d="M149.783,-185.014C143.783,-185.014 137.783,-179.014 137.783,-173.014"/>
<polyline fill="none" stroke="#2e3436" stroke-width="1.5" points="137.783,-173.014 137.783,-161.014 "/>
<path fill="none" stroke="#2e3436" stroke-width="1.5" d="M137.783,-161.014C137.783,-155.014 143.783,-149.014 149.783,-149.014"/>
<text text-anchor="middle" x="164.783" y="-164.814" font-family="FreeSans" font-size="8.00" fill="#1c2021"> </text>
</g>
<!-- N20 -->
<g id="node12" class="node"><title>N20</title>
<polygon fill="#ffffff" stroke="#ffffff" stroke-width="1.5" points="221.176,-107.508 251.176,-107.508 263.176,-119.508 263.176,-131.508 251.176,-143.508 221.176,-143.508 209.176,-131.508 209.176,-119.508 221.176,-107.508"/>
<path fill="#ffffff" stroke="#ffffff" stroke-width="1.5" d="M251.176,-107.508C257.176,-107.508 263.176,-113.508 263.176,-119.508"/>
<path fill="#ffffff" stroke="#ffffff" stroke-width="1.5" d="M263.176,-131.508C263.176,-137.508 257.176,-143.508 251.176,-143.508"/>
<path fill="#ffffff" stroke="#ffffff" stroke-width="1.5" d="M221.176,-143.508C215.176,-143.508 209.176,-137.508 209.176,-131.508"/>
<path fill="#ffffff" stroke="#ffffff" stroke-width="1.5" d="M209.176,-119.508C209.176,-113.508 215.176,-107.508 221.176,-107.508"/>
<polyline fill="none" stroke="#2e3436" stroke-width="1.5" points="221.176,-107.508 251.176,-107.508 "/>
<path fill="none" stroke="#2e3436" stroke-width="1.5" d="M251.176,-107.508C257.176,-107.508 263.176,-113.508 263.176,-119.508"/>
<polyline fill="none" stroke="#2e3436" stroke-width="1.5" points="263.176,-119.508 263.176,-131.508 "/>
<path fill="none" stroke="#2e3436" stroke-width="1.5" d="M263.176,-131.508C263.176,-137.508 257.176,-143.508 251.176,-143.508"/>
<polyline fill="none" stroke="#2e3436" stroke-width="1.5" points="251.176,-143.508 221.176,-143.508 "/>
<path fill="none" stroke="#2e3436" stroke-width="1.5" d="M221.176,-143.508C215.176,-143.508 209.176,-137.508 209.176,-131.508"/>
<polyline fill="none" stroke="#2e3436" stroke-width="1.5" points="209.176,-131.508 209.176,-119.508 "/>
<path fill="none" stroke="#2e3436" stroke-width="1.5" d="M209.176,-119.508C209.176,-113.508 215.176,-107.508 221.176,-107.508"/>
<text text-anchor="middle" x="236.176" y="-123.308" font-family="FreeSans" font-size="8.00" fill="#1c2021"> </text>
</g>
<!-- N19&#45;&gt;N20 -->
<g id="edge8" class="edge"><title>N19&#45;&gt;N20</title>
<path fill="none" stroke="#2e3436" stroke-width="2" d="M192.181,-151.085C195.536,-149.135 198.994,-147.124 202.428,-145.128"/>
<polygon fill="#2e3436" stroke="#2e3436" points="208.969,-141.325 204.181,-148.013 205.978,-143.642 202.737,-145.527 202.485,-145.095 202.234,-144.663 205.476,-142.778 200.789,-142.177 208.969,-141.325 208.969,-141.325"/>
<text text-anchor="middle" x="194.305" y="-139.907" font-family="FreeSans" font-size="8.00" fill="#2e3436">X</text>
</g>
<!-- N21 -->
<g id="node14" class="node"><title>N21</title>
<polygon fill="#ffffff" stroke="#ffffff" stroke-width="1.5" points="149.617,-66.5 179.617,-66.5 191.617,-78.5 191.617,-90.5 179.617,-102.5 149.617,-102.5 137.617,-90.5 137.617,-78.5 149.617,-66.5"/>
<path fill="#ffffff" stroke="#ffffff" stroke-width="1.5" d="M179.617,-66.5C185.617,-66.5 191.617,-72.5 191.617,-78.5"/>
<path fill="#ffffff" stroke="#ffffff" stroke-width="1.5" d="M191.617,-90.5C191.617,-96.5 185.617,-102.5 179.617,-102.5"/>
<path fill="#ffffff" stroke="#ffffff" stroke-width="1.5" d="M149.617,-102.5C143.617,-102.5 137.617,-96.5 137.617,-90.5"/>
<path fill="#ffffff" stroke="#ffffff" stroke-width="1.5" d="M137.617,-78.5C137.617,-72.5 143.617,-66.5 149.617,-66.5"/>
<polyline fill="none" stroke="#2e3436" stroke-width="1.5" points="149.617,-66.5 179.617,-66.5 "/>
<path fill="none" stroke="#2e3436" stroke-width="1.5" d="M179.617,-66.5C185.617,-66.5 191.617,-72.5 191.617,-78.5"/>
<polyline fill="none" stroke="#2e3436" stroke-width="1.5" points="191.617,-78.5 191.617,-90.5 "/>
<path fill="none" stroke="#2e3436" stroke-width="1.5" d="M191.617,-90.5C191.617,-96.5 185.617,-102.5 179.617,-102.5"/>
<polyline fill="none" stroke="#2e3436" stroke-width="1.5" points="179.617,-102.5 149.617,-102.5 "/>
<path fill="none" stroke="#2e3436" stroke-width="1.5" d="M149.617,-102.5C143.617,-102.5 137.617,-96.5 137.617,-90.5"/>
<polyline fill="none" stroke="#2e3436" stroke-width="1.5" points="137.617,-90.5 137.617,-78.5 "/>
<path fill="none" stroke="#2e3436" stroke-width="1.5" d="M137.617,-78.5C137.617,-72.5 143.617,-66.5 149.617,-66.5"/>
<text text-anchor="middle" x="164.617" y="-82.3" font-family="FreeSans" font-size="8.00" fill="#1c2021"> </text>
</g>
<!-- N19&#45;&gt;N21 -->
<g id="edge10" class="edge"><title>N19&#45;&gt;N21</title>
<path fill="none" stroke="#2e3436" stroke-width="2" d="M164.746,-148.701C164.724,-137.484 164.694,-122.95 164.67,-110.547"/>
<polygon fill="#2e3436" stroke="#2e3436" points="164.654,-102.761 168.044,-110.254 165.161,-106.51 165.169,-110.26 164.669,-110.261 164.169,-110.262 164.161,-106.512 161.294,-110.268 164.654,-102.761 164.654,-102.761"/>
<text text-anchor="middle" x="160.708" y="-127.424" font-family="FreeSans" font-size="8.00" fill="#2e3436">X</text>
</g>
<!-- N22 -->
<g id="node16" class="node"><title>N22</title>
<polygon fill="#ffffff" stroke="#ffffff" stroke-width="1.5" points="79.0364,-191.462 109.036,-191.462 121.036,-203.462 121.036,-215.462 109.036,-227.462 79.0364,-227.462 67.0364,-215.462 67.0364,-203.462 79.0364,-191.462"/>
<path fill="#ffffff" stroke="#ffffff" stroke-width="1.5" d="M109.036,-191.462C115.036,-191.462 121.036,-197.462 121.036,-203.462"/>
<path fill="#ffffff" stroke="#ffffff" stroke-width="1.5" d="M121.036,-215.462C121.036,-221.462 115.036,-227.462 109.036,-227.462"/>
<path fill="#ffffff" stroke="#ffffff" stroke-width="1.5" d="M79.0364,-227.462C73.0364,-227.462 67.0364,-221.462 67.0364,-215.462"/>
<path fill="#ffffff" stroke="#ffffff" stroke-width="1.5" d="M67.0364,-203.462C67.0364,-197.462 73.0364,-191.462 79.0364,-191.462"/>
<polyline fill="none" stroke="#2e3436" stroke-width="1.5" points="79.0364,-191.462 109.036,-191.462 "/>
<path fill="none" stroke="#2e3436" stroke-width="1.5" d="M109.036,-191.462C115.036,-191.462 121.036,-197.462 121.036,-203.462"/>
<polyline fill="none" stroke="#2e3436" stroke-width="1.5" points="121.036,-203.462 121.036,-215.462 "/>
<path fill="none" stroke="#2e3436" stroke-width="1.5" d="M121.036,-215.462C121.036,-221.462 115.036,-227.462 109.036,-227.462"/>
<polyline fill="none" stroke="#2e3436" stroke-width="1.5" points="109.036,-227.462 79.0364,-227.462 "/>
<path fill="none" stroke="#2e3436" stroke-width="1.5" d="M79.0364,-227.462C73.0364,-227.462 67.0364,-221.462 67.0364,-215.462"/>
<polyline fill="none" stroke="#2e3436" stroke-width="1.5" points="67.0364,-215.462 67.0364,-203.462 "/>
<path fill="none" stroke="#2e3436" stroke-width="1.5" d="M67.0364,-203.462C67.0364,-197.462 73.0364,-191.462 79.0364,-191.462"/>
<text text-anchor="middle" x="94.0364" y="-207.262" font-family="FreeSans" font-size="8.00" fill="#1c2021"> </text>
</g>
<!-- N19&#45;&gt;N22 -->
<g id="edge12" class="edge"><title>N19&#45;&gt;N22</title>
<path fill="none" stroke="#2e3436" stroke-width="2" d="M137.633,-183.304C134.486,-185.192 131.248,-187.135 128.025,-189.069"/>
<polygon fill="#2e3436" stroke="#2e3436" points="121.465,-193.004 126.159,-186.252 124.423,-190.646 127.639,-188.717 127.896,-189.146 128.153,-189.574 124.938,-191.504 129.632,-192.04 121.465,-193.004 121.465,-193.004"/>
<text text-anchor="middle" x="129.829" y="-177.986" font-family="FreeSans" font-size="8.00" fill="#2e3436">X</text>
</g>
<!-- N23 -->
<g id="node18" class="node"><title>N23</title>
<polygon fill="#ffffff" stroke="#ffffff" stroke-width="1.5" points="221.76,-189.55 251.76,-189.55 263.76,-201.55 263.76,-213.55 251.76,-225.55 221.76,-225.55 209.76,-213.55 209.76,-201.55 221.76,-189.55"/>
<path fill="#ffffff" stroke="#ffffff" stroke-width="1.5" d="M251.76,-189.55C257.76,-189.55 263.76,-195.55 263.76,-201.55"/>
<path fill="#ffffff" stroke="#ffffff" stroke-width="1.5" d="M263.76,-213.55C263.76,-219.55 257.76,-225.55 251.76,-225.55"/>
<path fill="#ffffff" stroke="#ffffff" stroke-width="1.5" d="M221.76,-225.55C215.76,-225.55 209.76,-219.55 209.76,-213.55"/>
<path fill="#ffffff" stroke="#ffffff" stroke-width="1.5" d="M209.76,-201.55C209.76,-195.55 215.76,-189.55 221.76,-189.55"/>
<polyline fill="none" stroke="#2e3436" stroke-width="1.5" points="221.76,-189.55 251.76,-189.55 "/>
<path fill="none" stroke="#2e3436" stroke-width="1.5" d="M251.76,-189.55C257.76,-189.55 263.76,-195.55 263.76,-201.55"/>
<polyline fill="none" stroke="#2e3436" stroke-width="1.5" points="263.76,-201.55 263.76,-213.55 "/>
<path fill="none" stroke="#2e3436" stroke-width="1.5" d="M263.76,-213.55C263.76,-219.55 257.76,-225.55 251.76,-225.55"/>
<polyline fill="none" stroke="#2e3436" stroke-width="1.5" points="251.76,-225.55 221.76,-225.55 "/>
<path fill="none" stroke="#2e3436" stroke-width="1.5" d="M221.76,-225.55C215.76,-225.55 209.76,-219.55 209.76,-213.55"/>
<polyline fill="none" stroke="#2e3436" stroke-width="1.5" points="209.76,-213.55 209.76,-201.55 "/>
<path fill="none" stroke="#2e3436" stroke-width="1.5" d="M209.76,-201.55C209.76,-195.55 215.76,-189.55 221.76,-189.55"/>
<text text-anchor="middle" x="236.76" y="-205.35" font-family="FreeSans" font-size="8.00" fill="#1c2021"> </text>
</g>
<!-- N19&#45;&gt;N23 -->
<g id="edge14" class="edge"><title>N19&#45;&gt;N23</title>
<path fill="none" stroke="#2e3436" stroke-width="2" d="M191.994,-182.339C195.577,-184.356 199.284,-186.444 202.96,-188.514"/>
<polygon fill="#2e3436" stroke="#2e3436" points="209.51,-192.203 201.319,-191.464 205.997,-190.799 202.73,-188.958 202.975,-188.523 203.221,-188.087 206.488,-189.927 204.632,-185.582 209.51,-192.203 209.51,-192.203"/>
<text text-anchor="middle" x="194.477" y="-189.226" font-family="FreeSans" font-size="8.00" fill="#2e3436">X</text>
</g>
<!-- N24 -->
<g id="node20" class="node"><title>N24</title>
<polygon fill="#ffffff" stroke="#ffffff" stroke-width="1.5" points="151.22,-231.568 181.22,-231.568 193.22,-243.568 193.22,-255.568 181.22,-267.568 151.22,-267.568 139.22,-255.568 139.22,-243.568 151.22,-231.568"/>
<path fill="#ffffff" stroke="#ffffff" stroke-width="1.5" d="M181.22,-231.568C187.22,-231.568 193.22,-237.568 193.22,-243.568"/>
<path fill="#ffffff" stroke="#ffffff" stroke-width="1.5" d="M193.22,-255.568C193.22,-261.568 187.22,-267.568 181.22,-267.568"/>
<path fill="#ffffff" stroke="#ffffff" stroke-width="1.5" d="M151.22,-267.568C145.22,-267.568 139.22,-261.568 139.22,-255.568"/>
<path fill="#ffffff" stroke="#ffffff" stroke-width="1.5" d="M139.22,-243.568C139.22,-237.568 145.22,-231.568 151.22,-231.568"/>
<polyline fill="none" stroke="#2e3436" stroke-width="1.5" points="151.22,-231.568 181.22,-231.568 "/>
<path fill="none" stroke="#2e3436" stroke-width="1.5" d="M181.22,-231.568C187.22,-231.568 193.22,-237.568 193.22,-243.568"/>
<polyline fill="none" stroke="#2e3436" stroke-width="1.5" points="193.22,-243.568 193.22,-255.568 "/>
<path fill="none" stroke="#2e3436" stroke-width="1.5" d="M193.22,-255.568C193.22,-261.568 187.22,-267.568 181.22,-267.568"/>
<polyline fill="none" stroke="#2e3436" stroke-width="1.5" points="181.22,-267.568 151.22,-267.568 "/>
<path fill="none" stroke="#2e3436" stroke-width="1.5" d="M151.22,-267.568C145.22,-267.568 139.22,-261.568 139.22,-255.568"/>
<polyline fill="none" stroke="#2e3436" stroke-width="1.5" points="139.22,-255.568 139.22,-243.568 "/>
<path fill="none" stroke="#2e3436" stroke-width="1.5" d="M139.22,-243.568C139.22,-237.568 145.22,-231.568 151.22,-231.568"/>
<text text-anchor="middle" x="166.22" y="-247.368" font-family="FreeSans" font-size="8.00" fill="#1c2021"> </text>
</g>
<!-- N19&#45;&gt;N24 -->
<g id="edge16" class="edge"><title>N19&#45;&gt;N24</title>
<path fill="none" stroke="#2e3436" stroke-width="2" d="M165.102,-185.335C165.297,-196.557 165.55,-211.099 165.766,-223.508"/>
<polygon fill="#2e3436" stroke="#2e3436" points="165.902,-231.297 162.397,-223.857 165.336,-227.557 165.271,-223.807 165.771,-223.799 166.271,-223.79 166.336,-227.539 169.146,-223.74 165.902,-231.297 165.902,-231.297"/>
<text text-anchor="middle" x="169.434" y="-202.221" font-family="FreeSans" font-size="8.00" fill="#2e3436">X</text>
</g>
<!-- N25 -->
<g id="node22" class="node"><title>N25</title>
<polygon fill="#ffffff" stroke="#ffffff" stroke-width="1.5" points="78,-108.396 108,-108.396 120,-120.396 120,-132.396 108,-144.396 78,-144.396 66,-132.396 66,-120.396 78,-108.396"/>
<path fill="#ffffff" stroke="#ffffff" stroke-width="1.5" d="M108,-108.396C114,-108.396 120,-114.396 120,-120.396"/>
<path fill="#ffffff" stroke="#ffffff" stroke-width="1.5" d="M120,-132.396C120,-138.396 114,-144.396 108,-144.396"/>
<path fill="#ffffff" stroke="#ffffff" stroke-width="1.5" d="M78,-144.396C72,-144.396 66,-138.396 66,-132.396"/>
<path fill="#ffffff" stroke="#ffffff" stroke-width="1.5" d="M66,-120.396C66,-114.396 72,-108.396 78,-108.396"/>
<polyline fill="none" stroke="#2e3436" stroke-width="1.5" points="78,-108.396 108,-108.396 "/>
<path fill="none" stroke="#2e3436" stroke-width="1.5" d="M108,-108.396C114,-108.396 120,-114.396 120,-120.396"/>
<polyline fill="none" stroke="#2e3436" stroke-width="1.5" points="120,-120.396 120,-132.396 "/>
<path fill="none" stroke="#2e3436" stroke-width="1.5" d="M120,-132.396C120,-138.396 114,-144.396 108,-144.396"/>
<polyline fill="none" stroke="#2e3436" stroke-width="1.5" points="108,-144.396 78,-144.396 "/>
<path fill="none" stroke="#2e3436" stroke-width="1.5" d="M78,-144.396C72,-144.396 66,-138.396 66,-132.396"/>
<polyline fill="none" stroke="#2e3436" stroke-width="1.5" points="66,-132.396 66,-120.396 "/>
<path fill="none" stroke="#2e3436" stroke-width="1.5" d="M66,-120.396C66,-114.396 72,-108.396 78,-108.396"/>
<text text-anchor="middle" x="93" y="-124.196" font-family="FreeSans" font-size="8.00" fill="#1c2021"> </text>
</g>
<!-- N19&#45;&gt;N25 -->
<g id="edge18" class="edge"><title>N19&#45;&gt;N25</title>
<path fill="none" stroke="#2e3436" stroke-width="2" d="M137.645,-151.658C134.072,-149.636 130.375,-147.544 126.709,-145.47"/>
<polygon fill="#2e3436" stroke="#2e3436" points="120.176,-141.773 128.366,-142.53 123.686,-143.185 126.95,-145.032 126.704,-145.467 126.458,-145.902 123.194,-144.055 125.042,-148.404 120.176,-141.773 120.176,-141.773"/>
<text text-anchor="middle" x="129.177" y="-152.364" font-family="FreeSans" font-size="8.00" fill="#2e3436">X</text>
</g>
<!-- N27 -->
<g id="node23" class="node"><title>N27</title>
<polygon fill="#ffffff" stroke="#ffffff" stroke-width="1.5" points="104,-311.139 134,-311.139 146,-323.139 146,-335.139 134,-347.139 104,-347.139 92,-335.139 92,-323.139 104,-311.139"/>
<path fill="#ffffff" stroke="#ffffff" stroke-width="1.5" d="M134,-311.139C140,-311.139 146,-317.139 146,-323.139"/>
<path fill="#ffffff" stroke="#ffffff" stroke-width="1.5" d="M146,-335.139C146,-341.139 140,-347.139 134,-347.139"/>
<path fill="#ffffff" stroke="#ffffff" stroke-width="1.5" d="M104,-347.139C98,-347.139 92,-341.139 92,-335.139"/>
<path fill="#ffffff" stroke="#ffffff" stroke-width="1.5" d="M92,-323.139C92,-317.139 98,-311.139 104,-311.139"/>
<polyline fill="none" stroke="#2e3436" stroke-width="1.5" points="104,-311.139 134,-311.139 "/>
<path fill="none" stroke="#2e3436" stroke-width="1.5" d="M134,-311.139C140,-311.139 146,-317.139 146,-323.139"/>
<polyline fill="none" stroke="#2e3436" stroke-width="1.5" points="146,-323.139 146,-335.139 "/>
<path fill="none" stroke="#2e3436" stroke-width="1.5" d="M146,-335.139C146,-341.139 140,-347.139 134,-347.139"/>
<polyline fill="none" stroke="#2e3436" stroke-width="1.5" points="134,-347.139 104,-347.139 "/>
<path fill="none" stroke="#2e3436" stroke-width="1.5" d="M104,-347.139C98,-347.139 92,-341.139 92,-335.139"/>
<polyline fill="none" stroke="#2e3436" stroke-width="1.5" points="92,-335.139 92,-323.139 "/>
<path fill="none" stroke="#2e3436" stroke-width="1.5" d="M92,-323.139C92,-317.139 98,-311.139 104,-311.139"/>
<text text-anchor="middle" x="119" y="-326.939" font-family="FreeSans" font-size="8.00" fill="#1c2021"> </text>
</g>
<!-- N26 -->
<g id="node24" class="node"><title>N26</title>
<polygon fill="#ffffff" stroke="#ffffff" stroke-width="1.5" points="175.21,-300.5 205.21,-300.5 217.21,-312.5 217.21,-324.5 205.21,-336.5 175.21,-336.5 163.21,-324.5 163.21,-312.5 175.21,-300.5"/>
<path fill="#ffffff" stroke="#ffffff" stroke-width="1.5" d="M205.21,-300.5C211.21,-300.5 217.21,-306.5 217.21,-312.5"/>
<path fill="#ffffff" stroke="#ffffff" stroke-width="1.5" d="M217.21,-324.5C217.21,-330.5 211.21,-336.5 205.21,-336.5"/>
<path fill="#ffffff" stroke="#ffffff" stroke-width="1.5" d="M175.21,-336.5C169.21,-336.5 163.21,-330.5 163.21,-324.5"/>
<path fill="#ffffff" stroke="#ffffff" stroke-width="1.5" d="M163.21,-312.5C163.21,-306.5 169.21,-300.5 175.21,-300.5"/>
<polyline fill="none" stroke="#2e3436" stroke-width="1.5" points="175.21,-300.5 205.21,-300.5 "/>
<path fill="none" stroke="#2e3436" stroke-width="1.5" d="M205.21,-300.5C211.21,-300.5 217.21,-306.5 217.21,-312.5"/>
<polyline fill="none" stroke="#2e3436" stroke-width="1.5" points="217.21,-312.5 217.21,-324.5 "/>
<path fill="none" stroke="#2e3436" stroke-width="1.5" d="M217.21,-324.5C217.21,-330.5 211.21,-336.5 205.21,-336.5"/>
<polyline fill="none" stroke="#2e3436" stroke-width="1.5" points="205.21,-336.5 175.21,-336.5 "/>
<path fill="none" stroke="#2e3436" stroke-width="1.5" d="M175.21,-336.5C169.21,-336.5 163.21,-330.5 163.21,-324.5"/>
<polyline fill="none" stroke="#2e3436" stroke-width="1.5" points="163.21,-324.5 163.21,-312.5 "/>
<path fill="none" stroke="#2e3436" stroke-width="1.5" d="M163.21,-312.5C163.21,-306.5 169.21,-300.5 175.21,-300.5"/>
<text text-anchor="middle" x="190.21" y="-316.3" font-family="FreeSans" font-size="8.00" fill="#1c2021"> </text>
</g>
<!-- N26&#45;&gt;N27 -->
<g id="edge20" class="edge"><title>N26&#45;&gt;N27</title>
<path fill="none" stroke="#2e3436" stroke-width="2" d="M162.882,-322.583C159.879,-323.032 156.793,-323.493 153.716,-323.952"/>
<polygon fill="#2e3436" stroke="#2e3436" points="146.137,-325.085 153.056,-320.638 149.772,-324.036 153.481,-323.482 153.555,-323.976 153.629,-324.471 149.92,-325.025 154.054,-327.314 146.137,-325.085 146.137,-325.085"/>
<text text-anchor="middle" x="158.299" y="-327.068" font-family="FreeSans" font-size="8.00" fill="#2e3436">X</text>
</g>
<!-- N29 -->
<g id="node26" class="node"><title>N29</title>
<polygon fill="#ffffff" stroke="#ffffff" stroke-width="1.5" points="325,-324.139 355,-324.139 367,-336.139 367,-348.139 355,-360.139 325,-360.139 313,-348.139 313,-336.139 325,-324.139"/>
<path fill="#ffffff" stroke="#ffffff" stroke-width="1.5" d="M355,-324.139C361,-324.139 367,-330.139 367,-336.139"/>
<path fill="#ffffff" stroke="#ffffff" stroke-width="1.5" d="M367,-348.139C367,-354.139 361,-360.139 355,-360.139"/>
<path fill="#ffffff" stroke="#ffffff" stroke-width="1.5" d="M325,-360.139C319,-360.139 313,-354.139 313,-348.139"/>
<path fill="#ffffff" stroke="#ffffff" stroke-width="1.5" d="M313,-336.139C313,-330.139 319,-324.139 325,-324.139"/>
<polyline fill="none" stroke="#2e3436" stroke-width="1.5" points="325,-324.139 355,-324.139 "/>
<path fill="none" stroke="#2e3436" stroke-width="1.5" d="M355,-324.139C361,-324.139 367,-330.139 367,-336.139"/>
<polyline fill="none" stroke="#2e3436" stroke-width="1.5" points="367,-336.139 367,-348.139 "/>
<path fill="none" stroke="#2e3436" stroke-width="1.5" d="M367,-348.139C367,-354.139 361,-360.139 355,-360.139"/>
<polyline fill="none" stroke="#2e3436" stroke-width="1.5" points="355,-360.139 325,-360.139 "/>
<path fill="none" stroke="#2e3436" stroke-width="1.5" d="M325,-360.139C319,-360.139 313,-354.139 313,-348.139"/>
<polyline fill="none" stroke="#2e3436" stroke-width="1.5" points="313,-348.139 313,-336.139 "/>
<path fill="none" stroke="#2e3436" stroke-width="1.5" d="M313,-336.139C313,-330.139 319,-324.139 325,-324.139"/>
<text text-anchor="middle" x="340" y="-339.939" font-family="FreeSans" font-size="8.00" fill="#1c2021"> </text>
</g>
<!-- N28 -->
<g id="node27" class="node"><title>N28</title>
<polygon fill="#ffffff" stroke="#ffffff" stroke-width="1.5" points="396.21,-313.5 426.21,-313.5 438.21,-325.5 438.21,-337.5 426.21,-349.5 396.21,-349.5 384.21,-337.5 384.21,-325.5 396.21,-313.5"/>
<path fill="#ffffff" stroke="#ffffff" stroke-width="1.5" d="M426.21,-313.5C432.21,-313.5 438.21,-319.5 438.21,-325.5"/>
<path fill="#ffffff" stroke="#ffffff" stroke-width="1.5" d="M438.21,-337.5C438.21,-343.5 432.21,-349.5 426.21,-349.5"/>
<path fill="#ffffff" stroke="#ffffff" stroke-width="1.5" d="M396.21,-349.5C390.21,-349.5 384.21,-343.5 384.21,-337.5"/>
<path fill="#ffffff" stroke="#ffffff" stroke-width="1.5" d="M384.21,-325.5C384.21,-319.5 390.21,-313.5 396.21,-313.5"/>
<polyline fill="none" stroke="#2e3436" stroke-width="1.5" points="396.21,-313.5 426.21,-313.5 "/>
<path fill="none" stroke="#2e3436" stroke-width="1.5" d="M426.21,-313.5C432.21,-313.5 438.21,-319.5 438.21,-325.5"/>
<polyline fill="none" stroke="#2e3436" stroke-width="1.5" points="438.21,-325.5 438.21,-337.5 "/>
<path fill="none" stroke="#2e3436" stroke-width="1.5" d="M438.21,-337.5C438.21,-343.5 432.21,-349.5 426.21,-349.5"/>
<polyline fill="none" stroke="#2e3436" stroke-width="1.5" points="426.21,-349.5 396.21,-349.5 "/>
<path fill="none" stroke="#2e3436" stroke-width="1.5" d="M396.21,-349.5C390.21,-349.5 384.21,-343.5 384.21,-337.5"/>
<polyline fill="none" stroke="#2e3436" stroke-width="1.5" points="384.21,-337.5 384.21,-325.5 "/>
<path fill="none" stroke="#2e3436" stroke-width="1.5" d="M384.21,-325.5C384.21,-319.5 390.21,-313.5 396.21,-313.5"/>
<text text-anchor="middle" x="411.21" y="-329.3" font-family="FreeSans" font-size="8.00" fill="#1c2021"> </text>
</g>
<!-- N28&#45;&gt;N29 -->
<g id="edge22" class="edge"><title>N28&#45;&gt;N29</title>
<path fill="none" stroke="#2e3436" stroke-width="2" d="M383.882,-335.583C380.879,-336.032 377.793,-336.493 374.716,-336.952"/>
<polygon fill="#2e3436" stroke="#2e3436" points="367.137,-338.085 374.056,-333.638 370.772,-337.036 374.481,-336.482 374.555,-336.976 374.629,-337.471 370.92,-338.025 375.054,-340.314 367.137,-338.085 367.137,-338.085"/>
<text text-anchor="middle" x="379.299" y="-340.068" font-family="FreeSans" font-size="8.00" fill="#2e3436">X</text>
</g>
<!-- N31 -->
<g id="node29" class="node"><title>N31</title>
<polygon fill="#ffffff" stroke="#ffffff" stroke-width="1.5" points="13,-12.1391 43,-12.1391 55,-24.1391 55,-36.1391 43,-48.1391 13,-48.1391 1,-36.1391 1,-24.1391 13,-12.1391"/>
<path fill="#ffffff" stroke="#ffffff" stroke-width="1.5" d="M43,-12.1391C49,-12.1391 55,-18.1391 55,-24.1391"/>
<path fill="#ffffff" stroke="#ffffff" stroke-width="1.5" d="M55,-36.1391C55,-42.1391 49,-48.1391 43,-48.1391"/>
<path fill="#ffffff" stroke="#ffffff" stroke-width="1.5" d="M13,-48.1391C7,-48.1391 1,-42.1391 1,-36.1391"/>
<path fill="#ffffff" stroke="#ffffff" stroke-width="1.5" d="M1,-24.1391C1,-18.1391 7,-12.1391 13,-12.1391"/>
<polyline fill="none" stroke="#2e3436" stroke-width="1.5" points="13,-12.1391 43,-12.1391 "/>
<path fill="none" stroke="#2e3436" stroke-width="1.5" d="M43,-12.1391C49,-12.1391 55,-18.1391 55,-24.1391"/>
<polyline fill="none" stroke="#2e3436" stroke-width="1.5" points="55,-24.1391 55,-36.1391 "/>
<path fill="none" stroke="#2e3436" stroke-width="1.5" d="M55,-36.1391C55,-42.1391 49,-48.1391 43,-48.1391"/>
<polyline fill="none" stroke="#2e3436" stroke-width="1.5" points="43,-48.1391 13,-48.1391 "/>
<path fill="none" stroke="#2e3436" stroke-width="1.5" d="M13,-48.1391C7,-48.1391 1,-42.1391 1,-36.1391"/>
<polyline fill="none" stroke="#2e3436" stroke-width="1.5" points="1,-36.1391 1,-24.1391 "/>
<path fill="none" stroke="#2e3436" stroke-width="1.5" d="M1,-24.1391C1,-18.1391 7,-12.1391 13,-12.1391"/>
<text text-anchor="middle" x="28" y="-27.9391" font-family="FreeSans" font-size="8.00" fill="#1c2021"> </text>
</g>
<!-- N30 -->
<g id="node30" class="node"><title>N30</title>
<polygon fill="#ffffff" stroke="#ffffff" stroke-width="1.5" points="84.2096,-1.5 114.21,-1.5 126.21,-13.5 126.21,-25.5 114.21,-37.5 84.2096,-37.5 72.2096,-25.5 72.2096,-13.5 84.2096,-1.5"/>
<path fill="#ffffff" stroke="#ffffff" stroke-width="1.5" d="M114.21,-1.5C120.21,-1.5 126.21,-7.5 126.21,-13.5"/>
<path fill="#ffffff" stroke="#ffffff" stroke-width="1.5" d="M126.21,-25.5C126.21,-31.5 120.21,-37.5 114.21,-37.5"/>
<path fill="#ffffff" stroke="#ffffff" stroke-width="1.5" d="M84.2096,-37.5C78.2096,-37.5 72.2096,-31.5 72.2096,-25.5"/>
<path fill="#ffffff" stroke="#ffffff" stroke-width="1.5" d="M72.2096,-13.5C72.2096,-7.5 78.2096,-1.5 84.2096,-1.5"/>
<polyline fill="none" stroke="#2e3436" stroke-width="1.5" points="84.2096,-1.5 114.21,-1.5 "/>
<path fill="none" stroke="#2e3436" stroke-width="1.5" d="M114.21,-1.5C120.21,-1.5 126.21,-7.5 126.21,-13.5"/>
<polyline fill="none" stroke="#2e3436" stroke-width="1.5" points="126.21,-13.5 126.21,-25.5 "/>
<path fill="none" stroke="#2e3436" stroke-width="1.5" d="M126.21,-25.5C126.21,-31.5 120.21,-37.5 114.21,-37.5"/>
<polyline fill="none" stroke="#2e3436" stroke-width="1.5" points="114.21,-37.5 84.2096,-37.5 "/>
<path fill="none" stroke="#2e3436" stroke-width="1.5" d="M84.2096,-37.5C78.2096,-37.5 72.2096,-31.5 72.2096,-25.5"/>
<polyline fill="none" stroke="#2e3436" stroke-width="1.5" points="72.2096,-25.5 72.2096,-13.5 "/>
<path fill="none" stroke="#2e3436" stroke-width="1.5" d="M72.2096,-13.5C72.2096,-7.5 78.2096,-1.5 84.2096,-1.5"/>
<text text-anchor="middle" x="99.2096" y="-17.3" font-family="FreeSans" font-size="8.00" fill="#1c2021"> </text>
</g>
<!-- N30&#45;&gt;N31 -->
<g id="edge24" class="edge"><title>N30&#45;&gt;N31</title>
<path fill="none" stroke="#2e3436" stroke-width="2" d="M71.8818,-23.5829C68.8789,-24.0316 65.7928,-24.4927 62.7156,-24.9524"/>
<polygon fill="#2e3436" stroke="#2e3436" points="55.1371,-26.0847 62.0561,-21.6384 58.7721,-25.036 62.4809,-24.4818 62.5548,-24.9763 62.6287,-25.4709 58.9199,-26.025 63.0536,-28.3143 55.1371,-26.0847 55.1371,-26.0847"/>
<text text-anchor="middle" x="67.2987" y="-28.0677" font-family="FreeSans" font-size="8.00" fill="#2e3436">X</text>
</g>
</g>
</svg>
