<?xml version="1.0" encoding="UTF-8" standalone="no"?>
<!DOCTYPE svg PUBLIC "-//W3C//DTD SVG 1.1//EN"
 "http://www.w3.org/Graphics/SVG/1.1/DTD/svg11.dtd">
<!-- Generated by graphviz version 2.26.3 (20100126.1600)
 -->
<!-- Title: g Pages: 1 -->
<svg width="267pt" height="130pt"
 viewBox="0.00 0.00 267.00 130.00" xmlns="http://www.w3.org/2000/svg" xmlns:xlink="http://www.w3.org/1999/xlink">
<g id="graph1" class="graph" transform="scale(1 1) rotate(0) translate(4 126)">
<title>g</title>
<polygon fill="white" stroke="white" points="-4,5 -4,-126 264,-126 264,5 -4,5"/>
<!-- N0 -->
<g id="node1" class="node"><title>N0</title>
<polygon fill="#ffffff" stroke="#ffffff" stroke-width="1.5" points="12,-1 106,-1 118,-13 118,-25 106,-37 12,-37 0,-25 0,-13 12,-1"/>
<path fill="#ffffff" stroke="#ffffff" stroke-width="1.5" d="M106,-1C112,-1 118,-7 118,-13"/>
<path fill="#ffffff" stroke="#ffffff" stroke-width="1.5" d="M118,-25C118,-31 112,-37 106,-37"/>
<path fill="#ffffff" stroke="#ffffff" stroke-width="1.5" d="M12,-37C6,-37 0,-31 0,-25"/>
<path fill="#ffffff" stroke="#ffffff" stroke-width="1.5" d="M0,-13C0,-7 6,-1 12,-1"/>
<polyline fill="none" stroke="#2e3436" stroke-width="1.5" points="12,-1 106,-1 "/>
<path fill="none" stroke="#2e3436" stroke-width="1.5" d="M106,-1C112,-1 118,-7 118,-13"/>
<polyline fill="none" stroke="#2e3436" stroke-width="1.5" points="118,-13 118,-25 "/>
<path fill="none" stroke="#2e3436" stroke-width="1.5" d="M118,-25C118,-31 112,-37 106,-37"/>
<polyline fill="none" stroke="#2e3436" stroke-width="1.5" points="106,-37 12,-37 "/>
<path fill="none" stroke="#2e3436" stroke-width="1.5" d="M12,-37C6,-37 0,-31 0,-25"/>
<polyline fill="none" stroke="#2e3436" stroke-width="1.5" points="0,-25 0,-13 "/>
<path fill="none" stroke="#2e3436" stroke-width="1.5" d="M0,-13C0,-7 6,-1 12,-1"/>
<text text-anchor="start" x="8" y="-21.8" font-family="FreeSans" font-size="8.00" fill="#1c2021">Node[0]name = &#39;Tobias&#39;</text>
<text text-anchor="start" x="8" y="-11.8" font-family="FreeSans" font-size="8.00" fill="#1c2021">age = 25</text>
</g>
<!-- N1 -->
<g id="node2" class="node"><title>N1</title>
<polygon fill="#ffffff" stroke="#ffffff" stroke-width="1.5" points="158.5,-1 247.5,-1 259.5,-13 259.5,-25 247.5,-37 158.5,-37 146.5,-25 146.5,-13 158.5,-1"/>
<path fill="#ffffff" stroke="#ffffff" stroke-width="1.5" d="M247.5,-1C253.5,-1 259.5,-7 259.5,-13"/>
<path fill="#ffffff" stroke="#ffffff" stroke-width="1.5" d="M259.5,-25C259.5,-31 253.5,-37 247.5,-37"/>
<path fill="#ffffff" stroke="#ffffff" stroke-width="1.5" d="M158.5,-37C152.5,-37 146.5,-31 146.5,-25"/>
<path fill="#ffffff" stroke="#ffffff" stroke-width="1.5" d="M146.5,-13C146.5,-7 152.5,-1 158.5,-1"/>
<polyline fill="none" stroke="#2e3436" stroke-width="1.5" points="158.5,-1 247.5,-1 "/>
<path fill="none" stroke="#2e3436" stroke-width="1.5" d="M247.5,-1C253.5,-1 259.5,-7 259.5,-13"/>
<polyline fill="none" stroke="#2e3436" stroke-width="1.5" points="259.5,-13 259.5,-25 "/>
<path fill="none" stroke="#2e3436" stroke-width="1.5" d="M259.5,-25C259.5,-31 253.5,-37 247.5,-37"/>
<polyline fill="none" stroke="#2e3436" stroke-width="1.5" points="247.5,-37 158.5,-37 "/>
<path fill="none" stroke="#2e3436" stroke-width="1.5" d="M158.5,-37C152.5,-37 146.5,-31 146.5,-25"/>
<polyline fill="none" stroke="#2e3436" stroke-width="1.5" points="146.5,-25 146.5,-13 "/>
<path fill="none" stroke="#2e3436" stroke-width="1.5" d="M146.5,-13C146.5,-7 152.5,-1 158.5,-1"/>
<text text-anchor="start" x="154.5" y="-21.8" font-family="FreeSans" font-size="8.00" fill="#1c2021">Node[1]name = &#39;Peter&#39;</text>
<text text-anchor="start" x="154.5" y="-11.8" font-family="FreeSans" font-size="8.00" fill="#1c2021">age = 34</text>
</g>
<!-- N2 -->
<g id="node3" class="node"><title>N2</title>
<polygon fill="#ffffff" stroke="#ffffff" stroke-width="1.5" points="82.5,-85 179.5,-85 191.5,-97 191.5,-109 179.5,-121 82.5,-121 70.5,-109 70.5,-97 82.5,-85"/>
<path fill="#ffffff" stroke="#ffffff" stroke-width="1.5" d="M179.5,-85C185.5,-85 191.5,-91 191.5,-97"/>
<path fill="#ffffff" stroke="#ffffff" stroke-width="1.5" d="M191.5,-109C191.5,-115 185.5,-121 179.5,-121"/>
<path fill="#ffffff" stroke="#ffffff" stroke-width="1.5" d="M82.5,-121C76.5,-121 70.5,-115 70.5,-109"/>
<path fill="#ffffff" stroke="#ffffff" stroke-width="1.5" d="M70.5,-97C70.5,-91 76.5,-85 82.5,-85"/>
<polyline fill="none" stroke="#2e3436" stroke-width="1.5" points="82.5,-85 179.5,-85 "/>
<path fill="none" stroke="#2e3436" stroke-width="1.5" d="M179.5,-85C185.5,-85 191.5,-91 191.5,-97"/>
<polyline fill="none" stroke="#2e3436" stroke-width="1.5" points="191.5,-97 191.5,-109 "/>
<path fill="none" stroke="#2e3436" stroke-width="1.5" d="M191.5,-109C191.5,-115 185.5,-121 179.5,-121"/>
<polyline fill="none" stroke="#2e3436" stroke-width="1.5" points="179.5,-121 82.5,-121 "/>
<path fill="none" stroke="#2e3436" stroke-width="1.5" d="M82.5,-121C76.5,-121 70.5,-115 70.5,-109"/>
<polyline fill="none" stroke="#2e3436" stroke-width="1.5" points="70.5,-109 70.5,-97 "/>
<path fill="none" stroke="#2e3436" stroke-width="1.5" d="M70.5,-97C70.5,-91 76.5,-85 82.5,-85"/>
<text text-anchor="start" x="78.5" y="-105.8" font-family="FreeSans" font-size="8.00" fill="#1c2021">Node[2]name = &#39;Andres&#39;</text>
<text text-anchor="start" x="78.5" y="-95.8" font-family="FreeSans" font-size="8.00" fill="#1c2021">age = 36</text>
</g>
<!-- N2&#45;&gt;N0 -->
<g id="edge2" class="edge"><title>N2&#45;&gt;N0</title>
<path fill="none" stroke="#2e3436" stroke-width="2" d="M115.377,-84.7733C104.904,-72.5549 91.0007,-56.3342 79.6216,-43.0586"/>
<polygon fill="#2e3436" stroke="#2e3436" points="74.5924,-37.1912 82.0359,-40.6892 77.4126,-39.713 79.853,-42.5602 79.4734,-42.8856 79.0938,-43.211 76.6533,-40.3638 76.9109,-45.0821 74.5924,-37.1912 74.5924,-37.1912"/>
<text text-anchor="middle" x="113.5" y="-58.8" font-family="FreeSans" font-size="8.00" fill="#2e3436">KNOWS</text>
</g>
<!-- N2&#45;&gt;N1 -->
<g id="edge4" class="edge"><title>N2&#45;&gt;N1</title>
<path fill="none" stroke="#2e3436" stroke-width="2" d="M146.623,-84.7733C157.096,-72.5549 170.999,-56.3342 182.378,-43.0586"/>
<polygon fill="#2e3436" stroke="#2e3436" points="187.408,-37.1912 185.089,-45.0821 185.347,-40.3638 182.906,-43.211 182.527,-42.8856 182.147,-42.5602 184.587,-39.713 179.964,-40.6892 187.408,-37.1912 187.408,-37.1912"/>
<text text-anchor="middle" x="184.5" y="-58.8" font-family="FreeSans" font-size="8.00" fill="#2e3436">KNOWS</text>
</g>
</g>
</svg>
