<?xml version="1.0" encoding="UTF-8" standalone="no"?>
<!DOCTYPE svg PUBLIC "-//W3C//DTD SVG 1.1//EN"
 "http://www.w3.org/Graphics/SVG/1.1/DTD/svg11.dtd">
<!-- Generated by graphviz version 2.26.3 (20100126.1600)
 -->
<!-- Title: g Pages: 1 -->
<svg width="208pt" height="140pt"
 viewBox="0.00 0.00 208.00 140.00" xmlns="http://www.w3.org/2000/svg" xmlns:xlink="http://www.w3.org/1999/xlink">
<g id="graph1" class="graph" transform="scale(1 1) rotate(0) translate(4 136)">
<title>g</title>
<polygon fill="white" stroke="white" points="-4,5 -4,-136 205,-136 205,5 -4,5"/>
<!-- N0 -->
<g id="node1" class="node"><title>N0</title>
<polygon fill="#ffffff" stroke="#ffffff" stroke-width="1.5" points="12,-95 42,-95 54,-107 54,-119 42,-131 12,-131 0,-119 0,-107 12,-95"/>
<path fill="#ffffff" stroke="#ffffff" stroke-width="1.5" d="M42,-95C48,-95 54,-101 54,-107"/>
<path fill="#ffffff" stroke="#ffffff" stroke-width="1.5" d="M54,-119C54,-125 48,-131 42,-131"/>
<path fill="#ffffff" stroke="#ffffff" stroke-width="1.5" d="M12,-131C6,-131 0,-125 0,-119"/>
<path fill="#ffffff" stroke="#ffffff" stroke-width="1.5" d="M0,-107C0,-101 6,-95 12,-95"/>
<polyline fill="none" stroke="#2e3436" stroke-width="1.5" points="12,-95 42,-95 "/>
<path fill="none" stroke="#2e3436" stroke-width="1.5" d="M42,-95C48,-95 54,-101 54,-107"/>
<polyline fill="none" stroke="#2e3436" stroke-width="1.5" points="54,-107 54,-119 "/>
<path fill="none" stroke="#2e3436" stroke-width="1.5" d="M54,-119C54,-125 48,-131 42,-131"/>
<polyline fill="none" stroke="#2e3436" stroke-width="1.5" points="42,-131 12,-131 "/>
<path fill="none" stroke="#2e3436" stroke-width="1.5" d="M12,-131C6,-131 0,-125 0,-119"/>
<polyline fill="none" stroke="#2e3436" stroke-width="1.5" points="0,-119 0,-107 "/>
<path fill="none" stroke="#2e3436" stroke-width="1.5" d="M0,-107C0,-101 6,-95 12,-95"/>
<text text-anchor="middle" x="27" y="-110.8" font-family="FreeSans" font-size="8.00" fill="#1c2021">Node[0]</text>
</g>
<!-- N23 -->
<g id="node2" class="node"><title>N23</title>
<polygon fill="#ffffff" stroke="#ffffff" stroke-width="1.5" points="95,-95 183,-95 195,-107 195,-119 183,-131 95,-131 83,-119 83,-107 95,-95"/>
<path fill="#ffffff" stroke="#ffffff" stroke-width="1.5" d="M183,-95C189,-95 195,-101 195,-107"/>
<path fill="#ffffff" stroke="#ffffff" stroke-width="1.5" d="M195,-119C195,-125 189,-131 183,-131"/>
<path fill="#ffffff" stroke="#ffffff" stroke-width="1.5" d="M95,-131C89,-131 83,-125 83,-119"/>
<path fill="#ffffff" stroke="#ffffff" stroke-width="1.5" d="M83,-107C83,-101 89,-95 95,-95"/>
<polyline fill="none" stroke="#2e3436" stroke-width="1.5" points="95,-95 183,-95 "/>
<path fill="none" stroke="#2e3436" stroke-width="1.5" d="M183,-95C189,-95 195,-101 195,-107"/>
<polyline fill="none" stroke="#2e3436" stroke-width="1.5" points="195,-107 195,-119 "/>
<path fill="none" stroke="#2e3436" stroke-width="1.5" d="M195,-119C195,-125 189,-131 183,-131"/>
<polyline fill="none" stroke="#2e3436" stroke-width="1.5" points="183,-131 95,-131 "/>
<path fill="none" stroke="#2e3436" stroke-width="1.5" d="M95,-131C89,-131 83,-125 83,-119"/>
<polyline fill="none" stroke="#2e3436" stroke-width="1.5" points="83,-119 83,-107 "/>
<path fill="none" stroke="#2e3436" stroke-width="1.5" d="M83,-107C83,-101 89,-95 95,-95"/>
<text text-anchor="start" x="91" y="-110.8" font-family="FreeSans" font-size="8.00" fill="#1c2021">Node[23]name = &#39;bob&#39;</text>
</g>
<!-- N24 -->
<g id="node4" class="node"><title>N24</title>
<polygon fill="#ffffff" stroke="#ffffff" stroke-width="1.5" points="104,-1 174,-1 186,-13 186,-25 174,-37 104,-37 92,-25 92,-13 104,-1"/>
<path fill="#ffffff" stroke="#ffffff" stroke-width="1.5" d="M174,-1C180,-1 186,-7 186,-13"/>
<path fill="#ffffff" stroke="#ffffff" stroke-width="1.5" d="M186,-25C186,-31 180,-37 174,-37"/>
<path fill="#ffffff" stroke="#ffffff" stroke-width="1.5" d="M104,-37C98,-37 92,-31 92,-25"/>
<path fill="#ffffff" stroke="#ffffff" stroke-width="1.5" d="M92,-13C92,-7 98,-1 104,-1"/>
<polyline fill="none" stroke="#2e3436" stroke-width="1.5" points="104,-1 174,-1 "/>
<path fill="none" stroke="#2e3436" stroke-width="1.5" d="M174,-1C180,-1 186,-7 186,-13"/>
<polyline fill="none" stroke="#2e3436" stroke-width="1.5" points="186,-13 186,-25 "/>
<path fill="none" stroke="#2e3436" stroke-width="1.5" d="M186,-25C186,-31 180,-37 174,-37"/>
<polyline fill="none" stroke="#2e3436" stroke-width="1.5" points="174,-37 104,-37 "/>
<path fill="none" stroke="#2e3436" stroke-width="1.5" d="M104,-37C98,-37 92,-31 92,-25"/>
<polyline fill="none" stroke="#2e3436" stroke-width="1.5" points="92,-25 92,-13 "/>
<path fill="none" stroke="#2e3436" stroke-width="1.5" d="M92,-13C92,-7 98,-1 104,-1"/>
<text text-anchor="start" x="100" y="-16.8" font-family="FreeSans" font-size="8.00" fill="#1c2021">Node[24]age = 12</text>
</g>
<!-- N23&#45;&gt;N24 -->
<g id="edge2" class="edge"><title>N23&#45;&gt;N24</title>
<path fill="none" stroke="#2e3436" stroke-width="2" d="M139,-94.8759C139,-80.7014 139,-60.806 139,-44.944"/>
<polygon fill="#2e3436" stroke="#2e3436" points="139,-37.0685 142.375,-44.5685 139.5,-40.8185 139.5,-44.5685 139,-44.5685 138.5,-44.5685 138.5,-40.8185 135.625,-44.5685 139,-37.0685 139,-37.0685"/>
<text text-anchor="middle" x="169.5" y="-68.8" font-family="FreeSans" font-size="8.00" fill="#2e3436">KNOWS</text>
<text text-anchor="start" x="139" y="-58.8" font-family="FreeSans" font-size="8.00" fill="#2e3436">since = &#39;2010&#39;</text>
</g>
</g>
</svg>
