<?xml version="1.0" encoding="UTF-8" standalone="no"?>
<!DOCTYPE svg PUBLIC "-//W3C//DTD SVG 1.1//EN"
 "http://www.w3.org/Graphics/SVG/1.1/DTD/svg11.dtd">
<!-- Generated by graphviz version 2.26.3 (20100126.1600)
 -->
<!-- Title: g Pages: 1 -->
<svg width="384pt" height="46pt"
 viewBox="0.00 0.00 384.00 46.00" xmlns="http://www.w3.org/2000/svg" xmlns:xlink="http://www.w3.org/1999/xlink">
<g id="graph1" class="graph" transform="scale(1 1) rotate(0) translate(4 42)">
<title>g</title>
<polygon fill="white" stroke="white" points="-4,5 -4,-42 381,-42 381,5 -4,5"/>
<!-- N144 -->
<g id="node1" class="node"><title>N144</title>
<polygon fill="#ffffff" stroke="#ffffff" stroke-width="1.5" points="11.5,-1 94.5,-1 106.5,-13 106.5,-25 94.5,-37 11.5,-37 -0.5,-25 -0.5,-13 11.5,-1"/>
<path fill="#ffffff" stroke="#ffffff" stroke-width="1.5" d="M94.5,-1C100.5,-1 106.5,-7 106.5,-13"/>
<path fill="#ffffff" stroke="#ffffff" stroke-width="1.5" d="M106.5,-25C106.5,-31 100.5,-37 94.5,-37"/>
<path fill="#ffffff" stroke="#ffffff" stroke-width="1.5" d="M11.5,-37C5.5,-37 -0.5,-31 -0.5,-25"/>
<path fill="#ffffff" stroke="#ffffff" stroke-width="1.5" d="M-0.5,-13C-0.5,-7 5.5,-1 11.5,-1"/>
<polyline fill="none" stroke="#2e3436" stroke-width="1.5" points="11.5,-1 94.5,-1 "/>
<path fill="none" stroke="#2e3436" stroke-width="1.5" d="M94.5,-1C100.5,-1 106.5,-7 106.5,-13"/>
<polyline fill="none" stroke="#2e3436" stroke-width="1.5" points="106.5,-13 106.5,-25 "/>
<path fill="none" stroke="#2e3436" stroke-width="1.5" d="M106.5,-25C106.5,-31 100.5,-37 94.5,-37"/>
<polyline fill="none" stroke="#2e3436" stroke-width="1.5" points="94.5,-37 11.5,-37 "/>
<path fill="none" stroke="#2e3436" stroke-width="1.5" d="M11.5,-37C5.5,-37 -0.5,-31 -0.5,-25"/>
<polyline fill="none" stroke="#2e3436" stroke-width="1.5" points="-0.5,-25 -0.5,-13 "/>
<path fill="none" stroke="#2e3436" stroke-width="1.5" d="M-0.5,-13C-0.5,-7 5.5,-1 11.5,-1"/>
<text text-anchor="start" x="7.5" y="-16.8" font-family="FreeSans" font-size="8.00" fill="#1c2021">Node[144]name = &#39;b&#39;</text>
</g>
<!-- N145 -->
<g id="node2" class="node"><title>N145</title>
<polygon fill="#ffffff" stroke="#ffffff" stroke-width="1.5" points="147,-1 229,-1 241,-13 241,-25 229,-37 147,-37 135,-25 135,-13 147,-1"/>
<path fill="#ffffff" stroke="#ffffff" stroke-width="1.5" d="M229,-1C235,-1 241,-7 241,-13"/>
<path fill="#ffffff" stroke="#ffffff" stroke-width="1.5" d="M241,-25C241,-31 235,-37 229,-37"/>
<path fill="#ffffff" stroke="#ffffff" stroke-width="1.5" d="M147,-37C141,-37 135,-31 135,-25"/>
<path fill="#ffffff" stroke="#ffffff" stroke-width="1.5" d="M135,-13C135,-7 141,-1 147,-1"/>
<polyline fill="none" stroke="#2e3436" stroke-width="1.5" points="147,-1 229,-1 "/>
<path fill="none" stroke="#2e3436" stroke-width="1.5" d="M229,-1C235,-1 241,-7 241,-13"/>
<polyline fill="none" stroke="#2e3436" stroke-width="1.5" points="241,-13 241,-25 "/>
<path fill="none" stroke="#2e3436" stroke-width="1.5" d="M241,-25C241,-31 235,-37 229,-37"/>
<polyline fill="none" stroke="#2e3436" stroke-width="1.5" points="229,-37 147,-37 "/>
<path fill="none" stroke="#2e3436" stroke-width="1.5" d="M147,-37C141,-37 135,-31 135,-25"/>
<polyline fill="none" stroke="#2e3436" stroke-width="1.5" points="135,-25 135,-13 "/>
<path fill="none" stroke="#2e3436" stroke-width="1.5" d="M135,-13C135,-7 141,-1 147,-1"/>
<text text-anchor="start" x="143" y="-16.8" font-family="FreeSans" font-size="8.00" fill="#1c2021">Node[145]name = &#39;c&#39;</text>
</g>
<!-- N146 -->
<g id="node3" class="node"><title>N146</title>
<polygon fill="#ffffff" stroke="#ffffff" stroke-width="1.5" points="281.5,-1 364.5,-1 376.5,-13 376.5,-25 364.5,-37 281.5,-37 269.5,-25 269.5,-13 281.5,-1"/>
<path fill="#ffffff" stroke="#ffffff" stroke-width="1.5" d="M364.5,-1C370.5,-1 376.5,-7 376.5,-13"/>
<path fill="#ffffff" stroke="#ffffff" stroke-width="1.5" d="M376.5,-25C376.5,-31 370.5,-37 364.5,-37"/>
<path fill="#ffffff" stroke="#ffffff" stroke-width="1.5" d="M281.5,-37C275.5,-37 269.5,-31 269.5,-25"/>
<path fill="#ffffff" stroke="#ffffff" stroke-width="1.5" d="M269.5,-13C269.5,-7 275.5,-1 281.5,-1"/>
<polyline fill="none" stroke="#2e3436" stroke-width="1.5" points="281.5,-1 364.5,-1 "/>
<path fill="none" stroke="#2e3436" stroke-width="1.5" d="M364.5,-1C370.5,-1 376.5,-7 376.5,-13"/>
<polyline fill="none" stroke="#2e3436" stroke-width="1.5" points="376.5,-13 376.5,-25 "/>
<path fill="none" stroke="#2e3436" stroke-width="1.5" d="M376.5,-25C376.5,-31 370.5,-37 364.5,-37"/>
<polyline fill="none" stroke="#2e3436" stroke-width="1.5" points="364.5,-37 281.5,-37 "/>
<path fill="none" stroke="#2e3436" stroke-width="1.5" d="M281.5,-37C275.5,-37 269.5,-31 269.5,-25"/>
<polyline fill="none" stroke="#2e3436" stroke-width="1.5" points="269.5,-25 269.5,-13 "/>
<path fill="none" stroke="#2e3436" stroke-width="1.5" d="M269.5,-13C269.5,-7 275.5,-1 281.5,-1"/>
<text text-anchor="start" x="277.5" y="-16.8" font-family="FreeSans" font-size="8.00" fill="#1c2021">Node[146]name = &#39;a&#39;</text>
</g>
</g>
</svg>
