<?xml version="1.0" encoding="UTF-8" standalone="no"?>
<!DOCTYPE svg PUBLIC "-//W3C//DTD SVG 1.1//EN"
 "http://www.w3.org/Graphics/SVG/1.1/DTD/svg11.dtd">
<!-- Generated by graphviz version 2.26.3 (20100126.1600)
 -->
<!-- Title: g Pages: 1 -->
<svg width="185pt" height="46pt"
 viewBox="0.00 0.00 185.00 46.00" xmlns="http://www.w3.org/2000/svg" xmlns:xlink="http://www.w3.org/1999/xlink">
<g id="graph1" class="graph" transform="scale(1 1) rotate(0) translate(4 42)">
<title>g</title>
<polygon fill="white" stroke="white" points="-4,5 -4,-42 182,-42 182,5 -4,5"/>
<!-- N0 -->
<g id="node1" class="node"><title>N0</title>
<polygon fill="#ffffff" stroke="#ffffff" stroke-width="1.5" points="12,-1 42,-1 54,-13 54,-25 42,-37 12,-37 0,-25 0,-13 12,-1"/>
<path fill="#ffffff" stroke="#ffffff" stroke-width="1.5" d="M42,-1C48,-1 54,-7 54,-13"/>
<path fill="#ffffff" stroke="#ffffff" stroke-width="1.5" d="M54,-25C54,-31 48,-37 42,-37"/>
<path fill="#ffffff" stroke="#ffffff" stroke-width="1.5" d="M12,-37C6,-37 0,-31 0,-25"/>
<path fill="#ffffff" stroke="#ffffff" stroke-width="1.5" d="M0,-13C0,-7 6,-1 12,-1"/>
<polyline fill="none" stroke="#2e3436" stroke-width="1.5" points="12,-1 42,-1 "/>
<path fill="none" stroke="#2e3436" stroke-width="1.5" d="M42,-1C48,-1 54,-7 54,-13"/>
<polyline fill="none" stroke="#2e3436" stroke-width="1.5" points="54,-13 54,-25 "/>
<path fill="none" stroke="#2e3436" stroke-width="1.5" d="M54,-25C54,-31 48,-37 42,-37"/>
<polyline fill="none" stroke="#2e3436" stroke-width="1.5" points="42,-37 12,-37 "/>
<path fill="none" stroke="#2e3436" stroke-width="1.5" d="M12,-37C6,-37 0,-31 0,-25"/>
<polyline fill="none" stroke="#2e3436" stroke-width="1.5" points="0,-25 0,-13 "/>
<path fill="none" stroke="#2e3436" stroke-width="1.5" d="M0,-13C0,-7 6,-1 12,-1"/>
<text text-anchor="middle" x="27" y="-16.8" font-family="FreeSans" font-size="8.00" fill="#1c2021">Node[0]</text>
</g>
<!-- N4 -->
<g id="node2" class="node"><title>N4</title>
<polygon fill="#ffffff" stroke="#ffffff" stroke-width="1.5" points="94.5,-1 165.5,-1 177.5,-13 177.5,-25 165.5,-37 94.5,-37 82.5,-25 82.5,-13 94.5,-1"/>
<path fill="#ffffff" stroke="#ffffff" stroke-width="1.5" d="M165.5,-1C171.5,-1 177.5,-7 177.5,-13"/>
<path fill="#ffffff" stroke="#ffffff" stroke-width="1.5" d="M177.5,-25C177.5,-31 171.5,-37 165.5,-37"/>
<path fill="#ffffff" stroke="#ffffff" stroke-width="1.5" d="M94.5,-37C88.5,-37 82.5,-31 82.5,-25"/>
<path fill="#ffffff" stroke="#ffffff" stroke-width="1.5" d="M82.5,-13C82.5,-7 88.5,-1 94.5,-1"/>
<polyline fill="none" stroke="#2e3436" stroke-width="1.5" points="94.5,-1 165.5,-1 "/>
<path fill="none" stroke="#2e3436" stroke-width="1.5" d="M165.5,-1C171.5,-1 177.5,-7 177.5,-13"/>
<polyline fill="none" stroke="#2e3436" stroke-width="1.5" points="177.5,-13 177.5,-25 "/>
<path fill="none" stroke="#2e3436" stroke-width="1.5" d="M177.5,-25C177.5,-31 171.5,-37 165.5,-37"/>
<polyline fill="none" stroke="#2e3436" stroke-width="1.5" points="165.5,-37 94.5,-37 "/>
<path fill="none" stroke="#2e3436" stroke-width="1.5" d="M94.5,-37C88.5,-37 82.5,-31 82.5,-25"/>
<polyline fill="none" stroke="#2e3436" stroke-width="1.5" points="82.5,-25 82.5,-13 "/>
<path fill="none" stroke="#2e3436" stroke-width="1.5" d="M82.5,-13C82.5,-7 88.5,-1 94.5,-1"/>
<text text-anchor="start" x="90.5" y="-16.8" font-family="FreeSans" font-size="8.00" fill="#1c2021">Node[4]foo = &#39;bar&#39;</text>
</g>
</g>
</svg>
